<?xml version="1.0" encoding="utf-8"?>
<!-- Generator: Adobe Illustrator 24.3.0, SVG Export Plug-In . SVG Version: 6.00 Build 0)  -->
<svg version="1.1" id="Слой_1" xmlns="http://www.w3.org/2000/svg" xmlns:xlink="http://www.w3.org/1999/xlink" x="0px" y="0px"
	 viewBox="0 0 531 318" style="enable-background:new 0 0 531 318;" xml:space="preserve">
<style type="text/css">
	.st0{fill:#4981EC;}
</style>
<path class="st0" d="M334.2,272.3c-7.7,0-14.4-5.7-15.4-13.6c-1.1-8.5,4.9-16.3,13.5-17.4c49.2-6.3,93.2-19.6,124-37.5
	c28.1-16.4,43.6-35.7,43.6-54.3c0-20.5-18.1-37.3-33.3-47.7c-7.1-4.9-8.9-14.6-4-21.6c4.9-7.1,14.6-8.9,21.6-4
	c30.6,21.1,46.8,46.4,46.8,73.4c0,30.6-20.4,58.6-59.1,81.2c-34.8,20.3-81.7,34.6-135.7,41.5C335.6,272.3,334.9,272.3,334.2,272.3z"
	/>
<path class="st0" d="M261.7,250l-41.5-41.5c-6.1-6.1-15.9-6.1-22,0c-6.1,6.1-6.1,15.9,0,22l12.1,12.1
	c-46.5-4.8-88.7-15.6-121.4-31.3c-36.8-17.7-57.8-40.2-57.8-61.8c0-18.3,15.1-37.3,42.5-53.6c7.4-4.4,9.8-13.9,5.5-21.3
	c-4.4-7.4-13.9-9.8-21.3-5.5C10,97.5,0,128.5,0,149.5c0,34.5,26.8,66.4,75.5,89.8c37.8,18.2,86.6,30.3,139.9,35l-17.1,17.1
	c-6.1,6.1-6.1,15.9,0,22c3,3,7,4.6,11,4.6c4,0,8-1.5,11-4.6l41.5-41.5C267.8,266,267.8,256.1,261.7,250z"/>
<g>
	<path class="st0" d="M135,89.9c0.2,5,2.2,10.1,5.3,13.3c3,3.2,7.7,5.2,13.5,5.2c6.7,0,10.9-3,13.5-5.7c3-3.4,4-6.9,4-10.9
		c0-5.7-2.8-9.7-5.2-11.7c-3.4-2.8-8.5-3.8-12.7-3.8c-2.2,0-4,0.2-5.7,0.8V53.9c6.9,1,11.3-1,14.1-3.4c3.2-2.8,4.4-6.3,4.4-9.3
		c0-3.6-1.6-7.5-3.6-9.5c-2.2-2.2-5.9-3.6-9.7-3.6c-4.2,0-7.5,1.4-9.5,3.4c-3,2.8-4.6,7.5-4.6,11.7h-31.9
		c0.8-13.9,6.9-24.4,12.9-30.3C129.4,2.8,141.9,0,154.6,0c9.9,0,23,2,32.9,11.7c6.5,6.5,10.7,15.5,10.7,25.6c0,5.7-1,10.9-4,16.2
		c-2.4,4.4-5.3,7.7-10.1,10.1c8.1,3,12.9,8.1,15.6,12.1c3.8,5.5,5.5,11.9,5.5,19.4c0,14.1-6.1,23.4-11.7,28.9
		c-7.1,7.1-19.8,14.1-39.4,14.1c-12.7,0-26.3-3-37.8-13.7c-6.7-6.1-14.9-17.4-16.4-34.5H135z"/>
	<path class="st0" d="M305.1,3l-37.6,45c5.3-2.4,11.9-4.2,18.4-4.2c9.9,0,21.2,4,29.9,12.7c9.3,9.3,12.5,20.2,12.5,31.5
		c0,12.3-3.4,24.2-13.7,34.5c-13.1,13.1-29.5,15.6-42.2,15.6c-22.8,0-36.1-8.5-43.4-16c-6.3-6.5-12.1-16.6-12.1-30.9
		c0-18,9.1-35.5,19.6-49.3L266.1,3H305.1z M287.1,104.8c3.8-3.8,6.1-9.1,6.1-15.1c0-4.2-1.4-9.3-6.1-13.9
		c-5.3-5.2-11.3-6.1-15.3-6.1c-5.2,0-10.9,2.2-14.9,5.7c-4.2,3.8-6.5,9.1-6.5,13.7c0,5.5,2,11.1,5.7,15.1c5.2,5.3,11.3,6.7,15.6,6.7
		C279.2,110.9,284.1,107.8,287.1,104.8z"/>
	<path class="st0" d="M427.9,123c-10.3,10.1-23.6,15.1-36.4,15.1c-12.9,0-26.1-5-36.4-15.1c-11.9-11.7-19.6-30.7-19.6-53.9
		c0-23.4,7.7-42.4,19.6-54.1C365.3,5,378.6,0,391.5,0c12.9,0,26.1,5,36.4,15.1c11.9,11.7,19.6,30.7,19.6,54.1
		C447.5,92.3,439.8,111.3,427.9,123z M381,34.9c-7.1,6.1-11.5,22.2-11.5,34.5c0,10.5,3.8,27.7,11.5,34.5c2.6,2.4,6.5,4.2,10.5,4.2
		c4,0,7.9-1.8,10.5-4.2c7.3-6.3,11.5-23,11.5-34.3c0-11.7-4.6-28.5-11.5-34.7c-2.6-2.4-6.5-4.2-10.5-4.2
		C387.5,30.7,383.6,32.5,381,34.9z"/>
	<path class="st0" d="M478.8,54.3c-4.2-4.2-8.9-11.1-8.9-21.4c0-5.9,1.6-13.9,8.9-21c6.3-6.1,14.1-8.9,21.4-8.9
		c8.5,0,16.4,3.6,21.8,8.7c5.2,5,8.9,12.5,8.9,21.2c0,5.9-1.6,14.1-8.9,21.4c-6.1,6.1-13.3,8.9-21.2,8.9
		C490.5,63.2,483.2,58.6,478.8,54.3z M500.4,46.9c8.3,0,14.3-6.1,14.3-13.9c0-7.7-5.9-13.9-14.3-13.9c-8.3,0-14.3,6.1-14.3,13.9
		C486.2,40.8,492.1,46.9,500.4,46.9z"/>
</g>
</svg>
