<?xml version="1.0" encoding="utf-8"?>
<!-- Generator: Adobe Illustrator 24.3.0, SVG Export Plug-In . SVG Version: 6.00 Build 0)  -->
<svg version="1.1" id="Слой_1" xmlns="http://www.w3.org/2000/svg" xmlns:xlink="http://www.w3.org/1999/xlink" x="0px" y="0px"
	 viewBox="0 0 102 62" style="enable-background:new 0 0 102 62;" xml:space="preserve">
<style type="text/css">
	.st0{fill:#DADEE4;}
	.st1{fill:#4885FA;}
</style>
<g>
	<g>
		<g>
			<g>
				<path class="st0" d="M61.2,46.7l1.7-1.7l0.9,0.9v1.8l-1.6,1.6h-1V46.7z M97,59.2l3-3v-1.1l0.8-0.8l1.3,1.3L97.7,60L97,59.2z
					 M92.3,58.2v-1.7h1.6v0.9L93,58.2L92.3,58.2z M83.8,53.9V49l1.2-1.2h1.5l2.1-2.1l0.5,0.5l2-2l1,1L91.5,46l0.9,0.9h0.7v-1.2
					l0.7-0.7l0.5,0.5v2.3l2,2v4l-2,2h-3.4v-2.4l-0.7-0.7h-1.6l-1.1,1.1H83.8z M91.3,41.7h3.8l1.2,1.2v1.5h-0.9l-0.7-0.7h-1.4
					L91.3,41.7z M86.8,41.3l0.6,0.6v1h-1.2v-1.6H86.8z M82.9,40.2h0.7l1.6-1.6l1,1V41l-1,1h-2.4V40.2z M78.3,39.7l0.8-0.8l2.8,2.8
					v0.8h0.8l0.4,0.4h2.7l0.8,0.8h-3.6l-0.5-0.5h-0.8L78.3,39.7z M90.2,22.9l1-1l1.4,1.4l-1.4,1.4l0.4,0.4v2.2L89.8,29h-1.4v-0.9
					l1.6-1.6h0.9v-1.6l-0.7-0.7L90.2,22.9z M44,25.4h2.3v-0.9l-0.8-0.8l0.9-0.9h0.8l0.9-0.9h0.4l0.7-0.7v-1.7h0.5l0.2,0.2v1l0.3,0.3
					H51l0.5-0.4h1.8v-1.6l1-1h-1.5v-1.7l-0.4,0.3v1.7l-0.7,0.7v1.1h-1L49.5,19h-1.3v-2.2l4.6-4.6h3.1l0.7,0.7H58V15l3.3-3.4h2.5v-3
					h2.9l4.3-4.3h2.5v2.3l1.9-1.9h2.7l1.6,1.6l2-2h4.3l0.6,0.6h3.1L90.7,4H97v3.7l-1.5,1.5V12h-1.4v2.4l0.7,0.7v3.2l-2.7-2.7v-3.6
					H91v1.7h-2.5l-1.5,1.5v2.4h2.5v5.6l-2.2,2.2l1.4,1.4l-1.1,1.1l-2.4-2.4l-1.2,1.2l3.3,3.3v0.9l-2.3,2.3H83l-1.4,1.4l1.6,1.6
					l-1.4,1.4l-1-1l-1,1l1.2,1.2v0.7l0.5,0.5h-0.7l-1-1v-0.7L79.2,38v-2.7l-0.4-0.3l-0.3,0.3h-0.7v-0.6l-1.2-1.2h-1.2l-2.2,2.2v1.8
					l-0.9,0.9l-0.7-0.7l-1.2-1.8v-2.5h-0.8L68.6,32h-3.2l-0.6-0.6L64.2,32l-0.9-0.9v-0.6h-0.8v0.6l1.9,1.9l0.7-0.7l1.1,1.1l-3,3
					h-2.1v-1.1l-1-1v-1l-1.4-1.4h-0.8v1.1l2,2v0.9l1.7,1.7h1.7v1.9L60,42.5v3.4l-1.5,1.5v1.9l-2.9,2.9h-2.1l-2.3-2.3V43l-1.6-1.6V40
					l-1.1-1.1l-0.8,0.8h-3.1l-3.1-3.1V33l4.4-4.4h4.7l1,1h0.9l0.6,0.6l0.8-0.8h3.6l0.7-0.7v-0.6h-2.2l-0.5-0.5v-0.9h-1L54,27.1
					l0.7,0.7l-0.3,0.3h-0.6l-0.4-0.4v-1.2l-1.8-1.8h-0.8v0.5l2,2l-1.1,1.1L51,27.8l0.7-0.7L49.6,25l-0.8,0.8l-0.5-0.5L47,26.7v0.8
					l-0.7,0.7h-1.1L44,27.2V25.4z M45.3,19.3l0.5-0.5l0.7,0.7v0.6l1,1v0.9l-0.5,0.5h-1.7V22l0.4-0.4v-0.8h-0.4L45.3,19.3z M44,22.4
					v-1l0.5-0.5v-0.5h0.8v1.4l-0.6,0.6L44,22.4z M49.1,4.6h4v1.4l-1.4,1.4h-1.1l-1.6-1.5L49.1,4.6z M40.4,14.7h1.1l1-1l1.2,1.2
					l-1.5,1.5h-1.7L40.4,14.7z M0,11.1L1.1,10V7.9l1.4-1.4h1.9l2-2h1.7l3.7,3.7h3.3l2.9,2.9h2.1l1.2-1.2h2l1.4,1.4v1.6l-1.1,1.1
					h-1.4l-1.9,1.9v1.9l2.6,2.6h1.5l1.1-1.1V16h2.1l1.4,1.4v2.3l2.3,2.3l-1,1l-0.8-0.8h-1.8l-0.5,0.5l0.8,0.8L27,24.6h-1.1l-2.5,2.5
					v1.3L21.7,30v2.2h-0.9v-0.7l-1-1h-3.1l-1,1v2.1l0.7,0.7h0.9l0.8-0.8h0.8v2.1h1.3v1.6l0.6,0.6l0.3-0.3h0.6l0.6,0.6l1.1-1.1h3.2
					l1.6,1.6H30l0.9,0.9v1.3H32l0.7,0.7h2l1.1,1.1v1.4l-1.3,1.3v2.1c0,0-2.3,2.3-2.3,2.3c0,0,0,1.5,0,1.5L30.2,53h-1V54l-1.5,1.5
					v2.1l-0.8,0.8v2.1l0.8,0.8V62h-1.9l-1-1v-6l-0.6-0.6v-6.9L23,46.4v-1.1l-2.4-2.4v-2l1.3-1.3v-0.9h-1.1l-2.3-2.3h-1.2l-0.9-0.9
					h-1.3l-2.7-2.7h-0.6l-1.5-1.5V30l-2.3-2.3v-4.6l1.2-1.2V16l-2.8-2.8H3.8l-1.9,1.9L0,14V11.1z M31.1,6.8V5.2L34.3,2H37l1.2-1.2h3
					l3,3L41,7.1v6.2h-2.5l-1.6,1.6V16l-2.6,2.6l-1.5-1.5v-3l0.6-0.6V6.9L31.1,6.8z M24.2,8.2h2.7l2.9,2.9v2.5l-2,2L26,13.8h1.4v-2.6
					h-1.8l-1.3-1.3L24.2,8.2z M21.4,7h2v2.3h-1.3l-0.7-1V7z M22.5,5.3l2.2,2.2h2.4L28,6.6h-2.7l-2-2L22.5,5.3z M24.9,1.4l1,1
					l-1.1,1.1l-1-1L24.9,1.4z M18.6,3.2l1.7-1.7h2.6v3.2h-2.4L18.6,3.2z M17.2,5.1h1.9v1.8h2v2.8l-0.9,0.9h-1.9L17,9.3V8.5l-1-1v-1
					L17.2,5.1z M26.3,5.1V1.6L27.7,0h5.8l1.2,1.2l-1.7,1.7H31l-3.3,3.5L26.3,5.1z"/>
			</g>
		</g>
	</g>
</g>
<g>
	<path class="st1" d="M56.3,25.1c2.2-1.1,4.9-0.7,6.7,1.1l9.8,9.8c2.2,2.2,2.2,5.9,0,8.2c-2.3,2.2-5.9,2.2-8.2,0l-9.8-9.8
		c-1.8-1.8-2.2-4.5-1.1-6.7L40,14c-0.4,0.1-0.7,0-1-0.1l-3.5-1.6c-0.1,0-0.1-0.1-0.2-0.2c-0.1-0.1-0.2-0.2-0.3-0.3L32,6.8
		C31.4,6,31.3,5,32,4.3l0.9-0.9c0.7-0.7,1.7-0.5,2.5,0l5,3.1c0.1,0.1,0.2,0.2,0.3,0.3c0.1,0,0.1,0.1,0.2,0.2l1.6,3.5
		c0.1,0.3,0.2,0.6,0.1,0.9L56.3,25.1"/>
	<path class="st1" d="M32.9,36.3l12.6-12.6l5.6,5.6c-0.4,1.5-0.3,3.1,0.1,4.6L40.8,44.2c-2.2,2.2-5.7,2.2-7.9,0
		C30.8,42,30.8,38.5,32.9,36.3 M52.1,17.2l2.3-2.3c-1.1-3.6-0.2-7.7,2.6-10.6c3-3,7.3-3.8,11.1-2.4l-5.6,5.6c-1.8,1.8-1.8,4.8,0,6.7
		c1.8,1.8,4.8,1.8,6.7,0l5.6-5.6c1.3,3.8,0.5,8.1-2.4,11.1c-2.6,2.6-6.2,3.5-9.6,2.9c-1.7-0.5-3.6-0.5-5.3,0L52.1,17.2 M35.2,38.2
		c-1,1-1,2.6,0,3.7c1,1,2.7,1,3.7,0c1-1,1-2.6,0-3.7C37.9,37.2,36.2,37.2,35.2,38.2"/>
</g>
</svg>
