<?xml version="1.0" encoding="utf-8"?>
<!-- Generator: Adobe Illustrator 24.3.0, SVG Export Plug-In . SVG Version: 6.00 Build 0)  -->
<svg version="1.1" id="Слой_1" xmlns="http://www.w3.org/2000/svg" xmlns:xlink="http://www.w3.org/1999/xlink" x="0px" y="0px"
	 viewBox="0 0 77 105" style="enable-background:new 0 0 77 105;" xml:space="preserve">
<style type="text/css">
	.st0{fill:#4885FA;}
	.st1{fill:#DADEE4;}
</style>
<ellipse class="st0" cx="38.5" cy="38.5" rx="38.5" ry="38.5"/>
<path class="st1" d="M71.7,38.5c0,18.3-14.9,33.1-33.2,33.1c-18.3,0-33.2-14.8-33.2-33.1S20.2,5.4,38.5,5.4
	C56.8,5.4,71.7,20.2,71.7,38.5z"/>
<g>
	<path class="st0" d="M49.9,27.3H39.2l-1.7,5.8C38,33,38.6,33,39.1,33c2.9,0,5.9,1,8,3.1c1.7,1.6,3.4,4.4,3.4,8.9
		c0,3.8-1.2,6.8-3.5,9.2c-2.8,2.7-6.1,3.5-9.6,3.5c-2,0-4.4-0.3-6.6-1.6c-0.5-0.3-2.5-1.5-4.1-4l4-3.3c0.1,0.3,1,2,2.6,3
		c1.1,0.8,2.8,1.2,4.5,1.2c2.8,0,4.4-1.1,5.3-1.9c1-1,2.2-2.9,2.2-5.9c0-2.9-1-4.6-2.1-5.6c-1.7-1.6-4-1.9-5.7-1.9
		c-1.5,0-2.6,0.2-4,0.7c-1.1,0.4-2.1,0.9-3.1,1.6l5.1-17.5h14.3V27.3z"/>
</g>
<g>
	<path class="st0" d="M56,75.5c-5.2,2.7-11.1,4.2-17.4,4.2l7.9,25.3l6.9-9.5l10,2.8l-7.1-22.8L56,75.5z"/>
	<path class="st0" d="M19.1,74.4l-5.5,17.8l11-3.9l6.6,8l5.1-16.8C30.2,79.2,24.3,77.4,19.1,74.4z"/>
</g>
</svg>
