<?xml version="1.0" encoding="utf-8"?>
<!-- Generator: Adobe Illustrator 24.3.0, SVG Export Plug-In . SVG Version: 6.00 Build 0)  -->
<svg version="1.1" id="Слой_1" xmlns="http://www.w3.org/2000/svg" xmlns:xlink="http://www.w3.org/1999/xlink" x="0px" y="0px"
	 viewBox="0 0 34 52" style="enable-background:new 0 0 34 52;" xml:space="preserve">
<style type="text/css">
	.st0{fill:#4885FA;}
</style>
<path class="st0" d="M30.8,8.3H17.1l0.3-0.3c0.9-0.9,1.3-2,1.3-3.3c0-1.2-0.5-2.4-1.4-3.3l-0.2-0.2c-0.9-0.9-2-1.3-3.3-1.3
	c0,0,0,0,0,0c-1.2,0-2.4,0.5-3.3,1.4L0.3,11.8C0.1,12,0,12.2,0,12.5v38.4C0,51.5,0.5,52,1.1,52h14.8c0.4,0,0.7-0.2,0.9-0.6
	c0.2-0.3,0.2-0.8,0-1.1l-2-3.1c-0.2-0.3-0.5-0.5-0.9-0.5H5.6V19.9l2.4-2.4v11.5c0,1.3,1.1,2.4,2.4,2.4c1.3,0,2.4-1.1,2.4-2.4V16.5
	l11.1,9.7c0.5,0.4,1,0.6,1.6,0.6c0.6,0,1.2-0.2,1.7-0.7c0.5-0.5,0.7-1.1,0.7-1.8c0-0.7-0.3-1.3-0.8-1.7l-10.8-9.5h14.5
	c1.3,0,2.4-1.1,2.4-2.4C33.2,9.4,32.1,8.3,30.8,8.3z M3.8,18.8c-0.2,0.2-0.3,0.5-0.3,0.7v28.4c0,0.6,0.5,1.1,1.1,1.1h8.7l0.6,1H2.1
	V12.9l10-10.1c0.5-0.5,1.1-0.7,1.8-0.7c0.7,0,1.3,0.3,1.8,0.7L15.9,3c0.5,0.5,0.7,1.1,0.7,1.8c0,0.7-0.3,1.3-0.7,1.8L3.8,18.8z
	 M10.7,29.1c0,0.2-0.1,0.3-0.3,0.3c-0.2,0-0.3-0.1-0.3-0.3V15.6l0.6-0.6V29.1z M25.7,24.2c0.1,0.1,0.1,0.2,0.1,0.2
	c0,0,0,0.1-0.1,0.2c-0.1,0.1-0.3,0.1-0.4,0l-12.5-11v-0.5h0.3L25.7,24.2z M30.8,11.1h-16l0.6-0.6h15.4c0.2,0,0.3,0.1,0.3,0.3
	C31.1,10.9,30.9,11.1,30.8,11.1z"/>
</svg>
