<?xml version="1.0" encoding="utf-8"?>
<!-- Generator: Adobe Illustrator 24.3.0, SVG Export Plug-In . SVG Version: 6.00 Build 0)  -->
<svg version="1.1" id="Слой_1" xmlns="http://www.w3.org/2000/svg" xmlns:xlink="http://www.w3.org/1999/xlink" x="0px" y="0px"
	 viewBox="0 0 79 85" style="enable-background:new 0 0 79 85;" xml:space="preserve">
<style type="text/css">
	.st0{fill:#DADEE4;}
	.st1{fill:#4885FA;}
	.st2{clip-path:url(#SVGID_2_);}
</style>
<g>
	<ellipse class="st0" cx="36.4" cy="36.2" rx="36.4" ry="36.2"/>
</g>
<g>
	<g>
		<path class="st1" d="M35.8,82.7l7.1-9.3C42,73.8,40.8,74,39.7,74c-2.1,0-4.8-0.8-6.6-2.5c-1.6-1.5-2.8-4-2.8-7.1
			c0-2.5,0.7-5,2.7-7.2c2.6-2.8,5.5-3.4,8.5-3.4c3.2,0,6.1,0.6,8.5,3c1.6,1.6,2.9,3.9,2.9,7.2c0,3.6-1.7,6.5-3.8,9.3L40.5,85
			L35.8,82.7z M37.8,59.9c-0.7,0.7-1.6,2-1.6,3.9c0,1.8,0.6,3.1,1.7,4.1c1.1,1.1,2.4,1.4,3.9,1.4c1.6,0,2.8-0.5,3.9-1.6
			c1.1-1.1,1.6-2.4,1.6-3.9c0-1.9-0.8-3.2-1.7-4c-0.8-0.7-2.1-1.5-3.9-1.5C39.8,58.4,38.5,59.2,37.8,59.9z"/>
		<path class="st1" d="M55.8,69.3c0-10.2,5.6-15.5,11.6-15.5S79,59.1,79,69.3c0,10.2-5.6,15.5-11.6,15.5S55.8,79.6,55.8,69.3z
			 M61.6,69.3c0,7.8,3.2,10.6,5.8,10.6c2.6,0,5.8-2.8,5.8-10.6c0-7.7-3.2-10.5-5.8-10.5S61.6,61.6,61.6,69.3z"/>
	</g>
</g>
<g>
	<defs>
		<ellipse id="SVGID_1_" cx="36.4" cy="36.2" rx="36.4" ry="36.2"/>
	</defs>
	<clipPath id="SVGID_2_">
		<use xlink:href="#SVGID_1_"  style="overflow:visible;"/>
	</clipPath>
	<g class="st2">
		<g>
			<g>
				<g>
					<path class="st1" d="M45.9,46.5l1.4-1.4l0.7,0.7v1.5l-1.3,1.3h-0.8V46.5z M75.1,56.7l2.4-2.4v-0.9l0.6-0.6l1,1l-3.5,3.5
						L75.1,56.7z M71.2,55.9v-1.4h1.3v0.7l-0.7,0.7L71.2,55.9z M64.3,52.4v-4l1-0.9h1.3l1.7-1.7l0.4,0.4l1.6-1.6l0.8,0.8l-0.5,0.5
						l0.8,0.8h0.6v-0.9l0.6-0.6l0.4,0.4v1.9l1.6,1.6v3.2L72.9,54h-2.8v-1.9l-0.5-0.5h-1.3l-0.9,0.9H64.3z M70.4,42.5h3.1l1,1v1.2
						h-0.8l-0.5-0.5H72L70.4,42.5z M66.8,42.1l0.5,0.5v0.8h-1v-1.3H66.8z M63.6,41.3h0.6l1.3-1.3l0.8,0.8v1.2l-0.8,0.8h-2V41.3z
						 M59.8,40.8l0.6-0.6l2.3,2.3v0.6h0.7l0.3,0.3h2.2l0.7,0.7h-3l-0.4-0.4h-0.6L59.8,40.8z M69.5,27.2l0.8-0.8l1.1,1.1l-1.1,1.1
						l0.3,0.3v1.8l-1.5,1.5h-1.1v-0.7l1.3-1.3h0.8v-1.3l-0.6-0.6L69.5,27.2z M31.9,29.3h1.9v-0.8l-0.7-0.7l0.7-0.7h0.6l0.7-0.7h0.3
						l0.6-0.5v-1.4h0.4l0.2,0.2v0.8l0.3,0.3h0.6l0.4-0.3h1.5v-1.3l0.8-0.8H39V22l-0.3,0.2v1.4l-0.6,0.6V25h-0.8l-1-1h-1.1v-1.8
						l3.7-3.7h2.6l0.5,0.5h1.2v1.7l2.7-2.7h2v-2.5h2.4l3.5-3.5h2V14l1.5-1.5h2.2l1.3,1.3l1.6-1.6H66l0.5,0.5h2.5l0.9-0.9h5.1v3
						L73.9,16v2.3h-1.2v2l0.6,0.6v2.6l-2.2-2.2v-2.9h-0.9v1.4h-2.1l-1.2,1.2V23h2v4.6l-1.8,1.8l1.1,1.1l-0.9,0.9l-1.9-1.9l-0.9,0.9
						l2.7,2.7v0.8l-1.9,1.9h-1.6l-1.1,1.1l1.3,1.3l-1.1,1.1l-0.8-0.8L61,39.3l1,1v0.6l0.4,0.4h-0.6L61,40.5v-0.5l-0.4-0.4v-2.2
						L60.3,37l-0.2,0.2h-0.6v-0.5l-0.9-0.9h-0.9l-1.8,1.8V39l-0.7,0.7l-0.6-0.6l-0.9-1.4v-2.1H53l-1-1h-2.6l-0.5-0.5l-0.5,0.5
						l-0.7-0.7v-0.5H47v0.5l1.5,1.5l0.6-0.6l0.9,0.9l-2.5,2.5h-1.7v-0.9L45,36.4v-0.8l-1.1-1.1h-0.7v0.9l1.6,1.6v0.7l1.3,1.3h1.4
						v1.5L45,43.1v2.8l-1.3,1.3v1.5L41.3,51h-1.7l-1.9-1.9v-5.6l-1.3-1.3v-1.2l-0.9-0.9l-0.6,0.6h-2.5l-2.6-2.5v-2.9l3.6-3.6h3.8
						l0.8,0.8h0.7l0.5,0.5l0.6-0.6h2.9l0.6-0.6v-0.5h-1.8L41.2,31v-0.7h-0.8L40,30.6l0.5,0.5l-0.3,0.3h-0.5l-0.3-0.3v-0.9L38,28.7
						h-0.7v0.4l1.6,1.6l-0.9,0.9l-0.4-0.4l0.6-0.6l-1.7-1.7l-0.7,0.7l-0.4-0.4l-1.1,1.1V31l-0.6,0.6h-0.9l-0.9-0.9V29.3z M33,24.3
						l0.4-0.4l0.6,0.6V25l0.9,0.9v0.7L34.4,27h-1.4v-0.5l0.4-0.4v-0.7h-0.3L33,24.3z M31.9,26.8V26l0.4-0.4v-0.4H33v1.1l-0.5,0.5
						L31.9,26.8z M36.1,12.4h3.3v1.2l-1.1,1.1h-0.9L36,13.4L36.1,12.4z M29,20.6h0.9l0.8-0.8l0.9,0.9L30.3,22h-1.4L29,20.6z
						 M-3.9,17.7l0.9-0.9V15l1.1-1.1h1.6l1.6-1.6h1.4l3,3h2.7l2.3,2.3h1.7l1-1h1.6l1.1,1.1V19l-0.9,0.9h-1.2l-1.6,1.6V23l2.1,2.1H16
						l0.9-0.9v-2.6h1.7l1.1,1.1v1.9l1.9,1.9l-0.8,0.8l-0.7-0.7h-1.5L18.3,27l0.7,0.6L18,28.6h-0.9l-2,2v1L13.8,33v1.8h-0.7v-0.6
						l-0.8-0.8H9.7l-0.8,0.8v1.7l0.6,0.6h0.7l0.6-0.6h0.6v1.7h1v1.3l0.5,0.5l0.3-0.3h0.5l0.5,0.5l0.9-0.9h2.6l1.3,1.3h1.3l0.7,0.7v1
						h1l0.5,0.5h1.6l0.9,0.9v1.1l-1,1V47c0,0-1.9,1.9-1.9,1.9s0,1.2,0,1.2l-1.6,1.6h-0.8v0.8l-1.3,1.2v1.7L17.9,56v1.7l0.6,0.6V59
						h-1.5l-0.8-0.8v-4.9l-0.5-0.5v-5.6l-1-1v-0.9l-1.9-1.9v-1.6l1-1v-0.7H13l-1.9-1.9h-1l-0.7-0.7H8.4l-2.2-2.2H5.7l-1.2-1.2V33
						l-1.8-1.8v-3.8l1-1v-4.8l-2.2-2.2h-2.2L-2.4,21l-1.5-1V17.7z M21.4,14.1v-1.2l2.6-2.6h2.2l1-1h2.5l2.4,2.4l-2.7,2.6v5.1h-2.1
						l-1.3,1.3v0.9L24,23.7l-1.3-1.3v-2.4l0.5-0.5v-5.4L21.4,14.1z M15.8,15.3H18l2.3,2.3v2l-1.7,1.6l-1.4-1.4h1.1v-2.1h-1.5l-1-1
						L15.8,15.3z M13.5,14.3h1.6v1.9h-1l-0.6-0.8V14.3z M14.4,12.9l1.8,1.8h1.9l0.7-0.7h-2.2L15,12.4L14.4,12.9z M16.4,9.7l0.8,0.8
						l-0.9,0.9l-0.8-0.8L16.4,9.7z M11.2,11.2l1.3-1.3h2.1v2.6h-2L11.2,11.2z M10.1,12.8h1.6v1.5h1.6v2.2l-0.8,0.7H11l-1.1-1.1v-0.7
						l-0.8-0.8v-0.9L10.1,12.8z M17.5,12.8V9.9l1.1-1.3h4.7l1,1L22.9,11h-1.6l-2.7,2.8L17.5,12.8z"/>
				</g>
			</g>
		</g>
	</g>
</g>
</svg>
