<?xml version="1.0" encoding="utf-8"?>
<!-- Generator: Adobe Illustrator 24.3.0, SVG Export Plug-In . SVG Version: 6.00 Build 0)  -->
<svg version="1.1" id="Слой_1" xmlns="http://www.w3.org/2000/svg" xmlns:xlink="http://www.w3.org/1999/xlink" x="0px" y="0px"
	 viewBox="0 0 59 52" style="enable-background:new 0 0 59 52;" xml:space="preserve">
<style type="text/css">
	.st0{fill:#4885FA;}
</style>
<g>
	<path class="st0" d="M14.8,52H1.5c-0.7,0-1.3-0.6-1.3-1.3V3.4c0-0.7,0.5-1.2,1.1-1.3l13.4-2C15,0,15.4,0.1,15.7,0.3
		c0.3,0.3,0.5,0.6,0.5,1v11.1h40.9c0.5,0,1,0.3,1.2,0.8c0.1,0.1,0.6,1.4,0.6,3.4c0,2.5-0.4,3.5-0.8,3.9c-0.3,0.3-0.6,0.5-1,0.5H16.2
		v29.7C16.2,51.4,15.6,52,14.8,52z M2.8,49.3h10.7V21H7.6c-0.5,0-1-0.3-1.2-0.7c-0.1-0.1-0.7-1.5-0.7-3.7c0-2.4,0.7-3.4,0.9-3.6
		c0.3-0.3,0.6-0.5,1.1-0.5h5.9V9.8H2.8V49.3z M8.5,18.3h47.5c0.1-0.4,0.1-0.9,0.1-1.7c0-0.6-0.1-1.1-0.1-1.5H8.5
		c-0.1,0.3-0.1,0.8-0.1,1.4C8.3,17.3,8.4,17.9,8.5,18.3z M2.8,7.1h10.7V2.9L2.8,4.5V7.1z"/>
</g>
</svg>
