<?xml version="1.0" encoding="utf-8"?>
<!-- Generator: Adobe Illustrator 24.3.0, SVG Export Plug-In . SVG Version: 6.00 Build 0)  -->
<svg version="1.1" id="Слой_1" xmlns="http://www.w3.org/2000/svg" xmlns:xlink="http://www.w3.org/1999/xlink" x="0px" y="0px"
	 viewBox="0 0 69 52" style="enable-background:new 0 0 69 52;" xml:space="preserve">
<style type="text/css">
	.st0{fill:#4885FA;}
</style>
<path class="st0" d="M53.9,52c-0.2,0-0.4-0.1-0.7-0.2c-0.9-0.5-1.8-1.1-2.7-1.8c-1.7,0.6-12.4,3.9-15.2-2.8
	c-0.2-0.1-0.3-0.1-0.5-0.2c-1.9-0.9-3.2-2.5-3.9-4.6c-0.3-0.1-0.6-0.2-1-0.3l-0.3,0.3c-1.6,1.6-4.1,1.7-5.7,0.1l-1-1
	c-2.5,1.2-5.5,2.2-7.3,0.5c-1.9-1.7-0.8-5,0.2-7.6L1.6,20.2c-0.7-0.7-1.1-1.7-1.1-2.7c0-1.1,0.5-2.2,1.3-3L15.1,1.2
	c1.6-1.6,4.2-1.7,5.7-0.1L37.6,18c2.3-0.5,9.1-2,11.4-1.1c6.6,2.6,17.9,18.9,19.2,20.8c0.4,0.7,0.3,1.5-0.4,2
	c-0.7,0.4-1.5,0.3-2-0.4C62.6,34.4,52.9,21.4,48,19.5c-0.9-0.3-4.5,0.1-8,0.9l3.1,3.1c0.4,0.4,0.8,1,0.9,1.6c0.2,0,0.5,0.1,0.7,0.1
	c5.7,0.7,9,3.6,10.1,4.9c-0.1-0.1-0.3-0.3-0.7-0.4c0.8,0.1,1.3,0.9,1.1,1.7c-0.1,0.8-0.9,1.3-1.7,1.2c-0.5-0.1-0.7-0.4-0.9-0.5
	c-0.9-1-3.6-3.4-8.3-4c-5.9-0.7-12.1-4.1-14.5-6.1c-1-0.9-2-1.2-2.9-0.9c-0.6,0.2-0.9,0.6-1,0.9C25.3,25.7,34.9,32,42,35.2
	c0.3,0.1,0.5,0.3,0.6,0.6c0.1,0.1,6.3,10.6,11.9,13.5c0.7,0.4,1,1.2,0.6,1.9C55,51.7,54.4,52,53.9,52z M40,48c2.4,1,6,0.3,8.1-0.2
	c-0.4-0.4-0.8-0.8-1.1-1.2C45.8,47,43,47.9,40,48z M34.6,43.1c0.4,0.6,1,1,1.6,1.3c2.6,1.3,6.5,0.5,8.9-0.2
	c-0.6-0.8-1.2-1.6-1.7-2.3C41.8,42.6,38.9,43.6,34.6,43.1z M18,2.9c-0.3,0-0.7,0.1-0.9,0.4L3.8,16.6c-0.3,0.3-0.4,0.6-0.4,0.9
	c0,0.2,0,0.5,0.3,0.7L26,40.6c0.4,0.4,1.1,0.4,1.6-0.1l6.3-6.2c-5.4-3.3-11.6-8.1-10.6-12.9c0.3-1.4,1.4-2.6,2.9-3.1
	c1.8-0.6,3.9-0.1,5.7,1.5c1.4,1.2,4.3,2.9,7.6,4.1L18.7,3.1C18.6,3,18.3,2.9,18,2.9z M32.4,39.8c4.8,1.1,7.8,0.3,9.2-0.3
	c-0.6-0.8-1-1.5-1.2-1.9c-0.9-0.4-2.3-1.1-3.9-2L32.4,39.8z M18.2,36.8c-1,2.6-0.5,3.3-0.5,3.3c0.2,0.2,1.3,0.2,3.2-0.6L18.2,36.8z
	 M54.2,29.6C54.2,29.6,54.2,29.6,54.2,29.6C54.2,29.6,54.2,29.6,54.2,29.6z M54.2,29.6C54.2,29.6,54.2,29.6,54.2,29.6
	C54.2,29.6,54.2,29.6,54.2,29.6z M54.2,29.6C54.2,29.6,54.2,29.6,54.2,29.6C54.2,29.6,54.2,29.6,54.2,29.6z M54.2,29.6
	C54.2,29.6,54.2,29.6,54.2,29.6C54.2,29.6,54.2,29.6,54.2,29.6z M54.2,29.6C54.2,29.6,54.2,29.6,54.2,29.6
	C54.2,29.6,54.2,29.6,54.2,29.6z M54.2,29.6C54.2,29.6,54.2,29.6,54.2,29.6C54.2,29.6,54.2,29.6,54.2,29.6z M54.2,29.6L54.2,29.6
	L54.2,29.6z M54.2,29.6C54.2,29.6,54.2,29.6,54.2,29.6C54.2,29.6,54.2,29.6,54.2,29.6z"/>
</svg>
