<?xml version="1.0" encoding="utf-8"?>
<!-- Generator: Adobe Illustrator 24.3.0, SVG Export Plug-In . SVG Version: 6.00 Build 0)  -->
<svg version="1.1" id="Слой_1" xmlns="http://www.w3.org/2000/svg" xmlns:xlink="http://www.w3.org/1999/xlink" x="0px" y="0px"
	 viewBox="0 0 110 91" style="enable-background:new 0 0 110 91;" xml:space="preserve">
<style type="text/css">
	.st0{fill-rule:evenodd;clip-rule:evenodd;fill:#DADEE4;}
	.st1{fill-rule:evenodd;clip-rule:evenodd;fill:#4885FA;}
</style>
<g>
	<path class="st0" d="M33.7,40.8h6.9L15.7,30.2v18.4c0,6,7.5,11,18,13.1V40.8z"/>
</g>
<g>
	<g>
		<rect x="7.5" y="23.5" class="st0" width="4" height="30.4"/>
		<polygon class="st0" points="90.1,21.5 45.1,39.7 0,21.5 45.1,0 		"/>
	</g>
	<path class="st0" d="M13.3,77H5V55.9c0-2.1,1.7-4,4-4h0.2c2.1,0,4,1.7,4,4V77z"/>
</g>
<g>
	<g>
		<path class="st1" d="M94.4,62.7c0,7.8-13.3,14.2-29.4,14.2s-29.4-6.2-29.4-14.2l0,0V44.1l29.6,12.2l29.4-12v18.6h-0.2V62.7z"/>
		<rect x="27.3" y="37.6" class="st1" width="4" height="30.4"/>
		<polygon class="st1" points="110,35.6 64.9,53.7 19.9,35.6 64.9,14 		"/>
	</g>
	<path class="st1" d="M33.2,91h-8.3V69.9c0-2.1,1.7-4,4-4h0.2c2.1,0,4,1.7,4,4V91z"/>
</g>
</svg>
