<?xml version="1.0" encoding="utf-8"?>
<!-- Generator: Adobe Illustrator 24.3.0, SVG Export Plug-In . SVG Version: 6.00 Build 0)  -->
<svg version="1.1" id="Слой_1" xmlns="http://www.w3.org/2000/svg" xmlns:xlink="http://www.w3.org/1999/xlink" x="0px" y="0px"
	 viewBox="0 0 67 61" style="enable-background:new 0 0 67 61;" xml:space="preserve">
<style type="text/css">
	.st0{fill:#FFFFFF;}
</style>
<path class="st0" d="M66.4,16c-0.4-1-1.5-1.7-2.6-1.7l0,0l-41.3,0.5V0L0,4.8V61h22.4V26.1l41.2-0.5c1.4,0,2.6-0.9,3-2.2
	c0.2-0.7,0.5-1.9,0.5-3.5C67,18.3,66.8,17,66.4,16z M18,5.4v3.8H4.4V8.3L18,5.4z M18,56.6H4.4v-43H18v1.3L8.5,15
	c-1.1,0-2.1,0.7-2.5,1.7c-0.4,0.9-0.5,2.2-0.5,3.9c0,1.5,0.2,2.7,0.5,3.6c0.4,1.2,1.5,2,2.8,2l0,0l9.2-0.1V56.6z M62.6,21.2
	L9.9,21.9c0-0.3-0.1-0.8-0.1-1.3s0-0.9,0-1.2l52.7-0.7c0,0.3,0.1,0.7,0.1,1.2S62.6,20.9,62.6,21.2z"/>
</svg>
