<?xml version="1.0" encoding="utf-8"?>
<!-- Generator: Adobe Illustrator 25.0.0, SVG Export Plug-In . SVG Version: 6.00 Build 0)  -->
<svg version="1.1" id="Слой_1" xmlns="http://www.w3.org/2000/svg" xmlns:xlink="http://www.w3.org/1999/xlink" x="0px" y="0px"
	 viewBox="0 0 255 255" style="enable-background:new 0 0 255 255;" xml:space="preserve">
<style type="text/css">
	.st0{fill:#FFFFFF;}
</style>
<g>
	<g>
		<path class="st0" d="M127.5,14.9c-62.3,0-113,50.5-113,112.5S65.2,240,127.5,240s113-50.5,113-112.5S189.8,14.9,127.5,14.9z
			 M127.5,236.1c-60.1,0-109.1-48.7-109.1-108.6S67.3,18.8,127.5,18.8c60.1,0,109.1,48.7,109.1,108.6
			C236.6,187.3,187.6,236.1,127.5,236.1z"/>
	</g>
	<g>
		<path class="st0" d="M52.7,71.8c0.6-0.8,1.4-2,2.8-2.4c1-0.3,2.2-0.2,3.3,0.5c1.1,0.7,1.6,2,1.4,3.5c0.5-0.5,1.2-0.9,1.9-1.1
			c0.9-0.2,1.9-0.1,3,0.7c1.5,1,1.8,2.3,1.8,3.2c0,1.5-0.8,2.8-1.1,3.3L61.3,86l-12.4-8.7L52.7,71.8z M57.4,75.7
			c0-0.1,0.4-0.5,0.4-1.1c0-0.5-0.2-0.8-0.5-1.1c-0.5-0.3-0.9-0.3-1.2-0.2c-0.4,0.1-0.7,0.5-0.9,0.9l-1.1,1.5l2.2,1.5L57.4,75.7z
			 M62.1,78.9c0.3-0.4,0.6-0.9,0.6-1.5c0-0.4-0.2-0.8-0.7-1.2c-0.5-0.3-0.9-0.3-1.2-0.2c-0.5,0.2-0.9,0.7-1.1,1l-1.2,1.7l2.5,1.7
			L62.1,78.9z"/>
		<path class="st0" d="M70.8,58.5c-1.2,0-2.4,0.5-3.4,1.5c-2,2-1.6,4.5,0,6c1.7,1.8,4.3,1.8,6.2,0c0.7-0.7,1.4-1.7,1.5-3.3l2.9,3
			c-0.3,0.9-0.9,2.2-2.1,3.4c-1.7,1.7-3.8,2.5-5.7,2.5c-1.6,0-3.8-0.4-5.8-2.4c-1.9-1.9-2.6-4.2-2.5-6.2c0.2-2.5,1.5-4.2,2.5-5.2
			c1.1-1.1,2.3-1.8,3.6-2.2L70.8,58.5z"/>
		<path class="st0" d="M79.6,50.9l6.5,9.5l-3.5,2.4l-6.5-9.5l-3.5,2.4l-2.1-3L81,45.5l2.1,3L79.6,50.9z"/>
		<path class="st0" d="M97.6,63l-3.9,1.7l-9.1-21.3l3.9-1.7l0.8,1.8c0.2-1.1,1-3.1,3.6-4.2c1.2-0.5,3.3-1.1,5.6-0.2
			c1.5,0.6,3.3,1.9,4.4,4.7c1.3,3.2,0.7,5.5,0.2,6.6c-0.6,1.5-1.9,2.9-4,3.8c-1,0.4-3,1.1-5.4-0.4L97.6,63z M91.1,45.3
			c-0.6,1.1-0.6,2.3,0,3.6c0.5,1.3,1.5,2.1,2.6,2.5c0.7,0.2,1.8,0.4,3-0.2c1.3-0.5,1.9-1.4,2.2-2.1c0.5-1.1,0.4-2.5,0-3.5
			c-0.4-1-1.3-2-2.4-2.4c-1-0.3-2.2-0.3-3.1,0.1C92.3,43.7,91.6,44.3,91.1,45.3z"/>
		<path class="st0" d="M119.5,34.8c1.7,1.1,3.1,3,3.5,5.5c0.4,2.4-0.3,4.7-1.6,6.2c-1.1,1.4-2.9,2.6-5.7,3.1
			c-2.8,0.5-4.9-0.2-6.4-1.1c-1.7-1.1-3.1-3-3.5-5.4c-0.4-2.5,0.3-4.7,1.6-6.3c1.1-1.4,2.9-2.6,5.7-3.1
			C115.9,33.2,118,33.8,119.5,34.8z M118.6,41c-0.4-2.3-2.5-4-4.9-3.6c-2.4,0.4-3.9,2.6-3.5,4.9c0.4,2.3,2.4,3.9,4.9,3.5
			S119,43.2,118.6,41z"/>
		<path class="st0" d="M141.3,44.6c-0.5,1.1-2.5,4.6-7.8,4.2c-2.4-0.2-4.2-1-5.6-2.5c-1.6-1.7-2.1-3.7-2-6.1c0.2-3,1.6-4.8,2.7-5.8
			c1.9-1.6,4-1.9,5.8-1.7c3.1,0.2,4.8,1.6,5.7,2.9c1.5,2,1.5,4.4,1.4,6.1l0,0.3l-11.3-0.8c-0.1,0.9,0.1,1.9,0.6,2.6
			c0.4,0.7,1.3,1.5,2.9,1.6c1.6,0.1,2.9-0.6,3.7-1.7L141.3,44.6z M137.8,39c-0.2-2.1-1.8-3.2-3.4-3.3s-3.3,0.8-3.8,2.8L137.8,39z"/>
		<path class="st0" d="M147.5,34.8l4.1,1.2l-1.5,5.1l5.7,1.7l1.5-5.1l4.1,1.2L157,53.4l-4.1-1.2l1.8-5.9l-5.7-1.7l-1.8,5.9l-4.1-1.2
			L147.5,34.8z"/>
		<path class="st0" d="M167.1,41.4l3.7,2.1l-2.6,4.7l5.2,2.9l2.6-4.7l3.7,2.1l-7.5,13.2l-3.7-2.1l3-5.4l-5.2-2.9l-3,5.4l-3.7-2.1
			L167.1,41.4z"/>
		<path class="st0" d="M193.3,60.1l3.1,2.9l-10.3,11.1l-3.1-2.9l1.3-1.4c-2.6,0.6-4.3-0.6-5.1-1.4c-3.4-3.2-3.2-7.9-0.2-11.2
			c3-3.3,7.7-3.8,11-0.8c0.8,0.8,2.4,2.5,1.9,5.1L193.3,60.1z M182.3,60.2c-1.6,1.8-1.6,4.3,0.1,6c1.8,1.7,4.4,1.5,6-0.3
			c1.6-1.8,1.6-4.3-0.2-6C186.5,58.3,183.9,58.4,182.3,60.2z"/>
		<path class="st0" d="M194.3,75.8c-0.1-0.2-0.7-1.4-0.4-2.7c0.2-0.8,0.7-1.9,2-2.8c1.6-1.1,3.1-1,4.2-0.7c1.8,0.6,2.9,2,3.7,3.1
			l3.4,5l-12.5,8.6l-2.4-3.5l4.4-3l-0.3-0.4l-6.5,0l-2.8-4L194.3,75.8z M201.9,76.1l-1.1-1.5c-0.3-0.4-0.6-0.8-1.2-0.9
			c-0.6-0.1-1,0-1.4,0.3c-0.4,0.3-0.7,0.6-0.7,1.2c0,0.6,0.2,1,0.5,1.4l1.1,1.5L201.9,76.1z"/>
	</g>
	<g>
		<g>
			<g>
				<path class="st0" d="M155.3,165.2h-4.9c0-3,0.6-5.9,1.2-8.8c0.6-2.7,1.1-5.3,1.1-7.8s-0.5-5.1-1.1-7.8c-0.6-2.8-1.2-5.8-1.2-8.8
					c0-3,0.6-5.9,1.2-8.8c0.6-2.7,1.1-5.3,1.1-7.8c0-2.5-0.5-5.1-1.1-7.8c-0.6-2.8-1.2-5.8-1.2-8.8c0-3.1,0.6-6.1,1.2-9
					c0.2-0.8,0.3-1.7,0.5-2.5l4.8,0.9c-0.2,0.9-0.3,1.7-0.5,2.6c-0.6,2.8-1.1,5.4-1.1,8c0,2.5,0.5,5.1,1.1,7.8
					c0.6,2.8,1.2,5.8,1.2,8.8s-0.6,5.9-1.2,8.8c-0.6,2.7-1.1,5.3-1.1,7.8s0.5,5.1,1.1,7.8c0.6,2.8,1.2,5.8,1.2,8.8s-0.6,5.9-1.2,8.8
					C155.9,160.1,155.3,162.7,155.3,165.2z"/>
				<g>
					<polygon class="st0" points="145.2,96.3 154.4,89.1 161.6,98.2 162.4,91.3 155.2,82.1 146,89.4 					"/>
				</g>
			</g>
		</g>
		<g>
			<g>
				<path class="st0" d="M129.8,164.4H125c0-3,0.6-5.9,1.2-8.8c0.6-2.7,1.1-5.3,1.1-7.8s-0.5-5.1-1.1-7.8c-0.6-2.8-1.2-5.8-1.2-8.8
					s0.6-5.9,1.2-8.8c0.6-2.7,1.1-5.3,1.1-7.8s-0.5-5.1-1.1-7.8c-0.6-2.8-1.2-5.8-1.2-8.8c0-3.1,0.6-6.1,1.2-9
					c0.2-0.8,0.3-1.7,0.5-2.5l4.8,0.9c-0.2,0.9-0.3,1.7-0.5,2.6c-0.6,2.8-1.1,5.4-1.1,8c0,2.5,0.5,5.1,1.1,7.8
					c0.6,2.8,1.2,5.8,1.2,8.8c0,3-0.6,5.9-1.2,8.8c-0.6,2.7-1.1,5.3-1.1,7.8c0,2.5,0.5,5.1,1.1,7.8c0.6,2.8,1.2,5.8,1.2,8.8
					s-0.6,5.9-1.2,8.8C130.4,159.3,129.8,161.9,129.8,164.4z"/>
				<g>
					<polygon class="st0" points="119.7,95.5 128.8,88.3 136.1,97.4 136.9,90.5 129.7,81.4 120.5,88.6 					"/>
				</g>
			</g>
		</g>
		<g>
			<g>
				<path class="st0" d="M104.2,164.4h-4.9c0-3,0.6-5.9,1.2-8.8c0.6-2.7,1.1-5.3,1.1-7.8s-0.5-5.1-1.1-7.8c-0.6-2.8-1.2-5.8-1.2-8.8
					s0.6-5.9,1.2-8.8c0.6-2.7,1.1-5.3,1.1-7.8s-0.5-5.1-1.1-7.8c-0.6-2.8-1.2-5.8-1.2-8.8c0-3.1,0.6-6.1,1.2-9
					c0.2-0.8,0.3-1.7,0.5-2.5l4.8,0.9c-0.2,0.9-0.3,1.7-0.5,2.6c-0.6,2.8-1.1,5.4-1.1,8c0,2.5,0.5,5.1,1.1,7.8
					c0.6,2.8,1.2,5.8,1.2,8.8s-0.6,5.9-1.2,8.8c-0.6,2.7-1.1,5.3-1.1,7.8s0.5,5.1,1.1,7.8c0.6,2.8,1.2,5.8,1.2,8.8s-0.6,5.9-1.2,8.8
					C104.8,159.3,104.2,161.9,104.2,164.4z"/>
				<g>
					<polygon class="st0" points="94.2,95.5 103.3,88.3 110.6,97.4 111.4,90.5 104.1,81.4 95,88.6 					"/>
				</g>
			</g>
		</g>
	</g>
	<g>
		<path class="st0" d="M46.7,129.7c0.9-0.8,1.5-1.9,1.6-3.4c0.2-2.8-1.7-4.4-3.9-4.6c-2.5-0.2-4.4,1.5-4.6,4.1
			c-0.1,0.9,0.1,2.2,1.1,3.5l-4.2-0.3c-0.4-0.9-0.8-2.2-0.6-4c0.2-2.4,1.3-4.4,2.7-5.7c1.2-1.1,3.2-2.2,6-2c2.7,0.2,4.7,1.5,5.9,3.1
			c1.5,2,1.6,4.1,1.5,5.6c-0.1,1.6-0.5,2.8-1.2,4L46.7,129.7z"/>
		<path class="st0" d="M51.8,137.5l-9.3,1.3l10.2,5.6l0.6,4.2l-15,2.1l-0.6-4.2l9.3-1.3l-10.2-5.6l-0.6-4.2l15-2.1L51.8,137.5z"/>
		<path class="st0" d="M54.4,164.8c0.5-1.1,0.5-2.4,0-3.7c-1-2.7-3.4-3.3-5.5-2.5c-2.3,0.9-3.4,3.3-2.5,5.7c0.3,0.9,1,2,2.4,2.7
			l-3.9,1.5c-0.7-0.6-1.7-1.7-2.3-3.3c-0.8-2.2-0.7-4.5,0-6.2c0.6-1.5,1.9-3.3,4.6-4.3c2.5-0.9,4.9-0.7,6.7,0.3
			c2.2,1.1,3.3,3,3.8,4.4c0.6,1.5,0.7,2.8,0.6,4.2L54.4,164.8z"/>
		<path class="st0" d="M61.1,174.2l-9.8,6.1l-2.2-3.6l9.8-6.1l-2.2-3.6l3.1-1.9l6.7,10.8l-3.1,1.9L61.1,174.2z"/>
		<path class="st0" d="M69.9,196c-1.1,0.4-4.9,1.7-8.6-2.2c-1.7-1.8-2.4-3.6-2.4-5.7c0-2.3,0.9-4.2,2.7-5.8c2.2-2.1,4.4-2.5,5.9-2.4
			c2.5,0.1,4.2,1.4,5.5,2.7c2.1,2.2,2.5,4.4,2.3,6c-0.3,2.5-1.9,4.3-3.1,5.4l-0.3,0.2l-7.8-8.2c-0.7,0.6-1.2,1.5-1.4,2.3
			c-0.1,0.8-0.1,2,1,3.2c1.1,1.2,2.5,1.5,3.9,1.2L69.9,196z M71.1,189.5c1.3-1.7,0.8-3.6-0.3-4.7c-1.1-1.1-2.9-1.6-4.7-0.5
			L71.1,189.5z"/>
		<path class="st0" d="M81.4,191.4l2.7,1.7l-1.1,9.6l8.2-5.2l2.7,1.7l-5.7,14.3l-3.6-2.3l3.3-7.6l-7.6,5l-1.3-0.8l1.2-9l-5.4,6.3
			l-3.6-2.3L81.4,191.4z"/>
		<path class="st0" d="M109.7,204.7l4.1,1.2l-4.4,14.5l-4.1-1.2l0.6-1.9c-2.1,1.7-4.1,1.3-5.2,1c-4.5-1.3-6.3-5.7-5.1-10
			c1.3-4.3,5.2-6.8,9.5-5.5c1.1,0.3,3.2,1.2,3.9,3.8L109.7,204.7z M99.8,209.7c-0.7,2.3,0.4,4.6,2.8,5.3c2.3,0.7,4.6-0.6,5.3-2.9
			c0.7-2.3-0.4-4.6-2.8-5.3C102.7,206.1,100.5,207.4,99.8,209.7z"/>
		<path class="st0" d="M140,208c1.6,1.3,2.8,3.3,3,5.8c0.2,2.4-0.7,4.6-2.1,6.1c-1.2,1.3-3.1,2.4-6,2.5c-2.9,0.2-4.9-0.6-6.3-1.7
			c-1.6-1.3-2.8-3.3-3-5.7c-0.2-2.5,0.7-4.6,2.1-6.1c1.2-1.3,3.1-2.3,6-2.5S138.7,206.9,140,208z M138.6,214.1
			c-0.2-2.4-2.1-4.2-4.6-4c-2.4,0.2-4.1,2.2-4,4.6c0.2,2.3,2.1,4.1,4.5,4C137.1,218.5,138.7,216.4,138.6,214.1z"/>
		<path class="st0" d="M157.6,190.8c0.7,4.2-2.1,6.2-2.9,6.8l-1.3,0.9c-1.1,0.8-2.7,1.6-3.5,3.1c-0.6,1.1-0.8,2.7-0.4,4.2l0.1,0
			c0.6-1.8,2.6-3.1,4.4-3.7c2.2-0.7,4.2-0.7,6.1,0.2c1.1,0.5,3.1,1.8,4.1,4.8c0.9,2.8,0.3,5-0.5,6.5c-1.1,2-2.7,3.2-5,4
			c-1.6,0.5-3.9,1.1-6.4,0.1c-3.1-1.3-4.4-4.3-5.1-6.4c-1.9-5.5-1.7-8.6-1.1-10.4c1-3.2,3.5-4.7,5.3-5.7c2-1.2,2.6-2,2.6-3.1
			L157.6,190.8z M159.9,208.6c-0.8-2.3-3-3.5-5.4-2.7s-3.4,3.2-2.7,5.5c0.8,2.3,3,3.5,5.4,2.7C159.6,213.3,160.7,210.9,159.9,208.6z
			"/>
		<path class="st0" d="M177.1,192c2,0.3,4,1.5,5.4,3.5c1.4,2,1.7,4.4,1.2,6.3c-0.4,1.7-1.5,3.6-3.9,5.2c-2.4,1.6-4.5,1.9-6.3,1.6
			c-2-0.3-4-1.5-5.4-3.5c-1.4-2.1-1.7-4.4-1.2-6.4c0.4-1.7,1.5-3.6,3.9-5.2C173.3,192.1,175.4,191.8,177.1,192z M178.9,198
			c-1.3-2-3.9-2.6-5.9-1.2c-2,1.4-2.5,4-1.2,6c1.3,1.9,3.9,2.6,5.9,1.2C179.8,202.6,180.2,199.9,178.9,198z"/>
		<path class="st0" d="M180.6,186.8l6.8-6.9l2.6,2.6l-3.8,3.8l8.2,8.1l-3,3L180.6,186.8z"/>
		<path class="st0" d="M210.7,187.3l-2.3,3.6l-19.5-12.6l2.3-3.6l1.6,1.1c-0.4-1.1-0.9-3.1,0.6-5.5c0.7-1.1,2.1-2.7,4.5-3.3
			c1.5-0.3,3.8-0.3,6.3,1.4c2.9,1.9,3.6,4.1,3.9,5.3c0.3,1.6,0.1,3.5-1.1,5.4c-0.6,0.9-1.9,2.6-4.7,2.8L210.7,187.3z M195.4,176.2
			c0.2,1.2,0.8,2.2,2,3c1.2,0.8,2.5,0.9,3.5,0.6c0.7-0.2,1.7-0.7,2.4-1.8c0.8-1.2,0.8-2.2,0.6-3c-0.2-1.2-1-2.3-2-2.9
			c-0.9-0.6-2.2-0.9-3.4-0.6c-1,0.3-1.9,1-2.5,1.9C195.4,174.3,195.2,175.2,195.4,176.2z"/>
		<path class="st0" d="M214.3,150.7c0.9,0.8,3.8,3.6,2.1,8.6c-0.8,2.3-2,3.9-3.9,4.8c-2,1.1-4.1,1.1-6.4,0.4c-2.9-1-4.2-2.7-4.9-4.1
			c-1.1-2.2-0.8-4.4-0.2-6.1c1-2.9,2.7-4.2,4.2-4.8c2.3-0.9,4.7-0.4,6.2,0.2l0.3,0.1l-3.6,10.7c0.9,0.3,1.9,0.4,2.7,0.1
			c0.7-0.2,1.8-0.9,2.3-2.4c0.5-1.5,0.2-2.9-0.8-4L214.3,150.7z M208,152.7c-2.1-0.3-3.5,1-4,2.4s-0.1,3.4,1.7,4.4L208,152.7z"/>
		<path class="st0" d="M205.1,137.2c0.1-1,0.2-2.4,1.3-3.5c0.8-0.8,1.9-1.3,3.1-1.2c1.3,0.1,2.4,1,2.9,2.4c0.2-0.7,0.6-1.4,1.2-1.9
			c0.7-0.6,1.6-1,2.9-0.9c1.8,0.2,2.7,1.2,3.2,1.9c0.8,1.3,0.7,2.8,0.6,3.5l-0.8,7.8l-15.1-1.5L205.1,137.2z M211.1,138.2
			c0-0.1,0.1-0.7-0.2-1.1c-0.2-0.4-0.5-0.6-1-0.7c-0.6-0.1-0.9,0.2-1.1,0.4c-0.3,0.3-0.3,0.8-0.4,1.2l-0.2,1.9l2.6,0.3L211.1,138.2z
			 M216.8,138.8c0-0.5,0.1-1.1-0.2-1.6c-0.2-0.3-0.6-0.6-1.2-0.7c-0.6-0.1-0.9,0.2-1.1,0.4c-0.4,0.4-0.5,1-0.5,1.4l-0.2,2.1l3,0.3
			L216.8,138.8z"/>
		<path class="st0" d="M204.3,116.4l-0.5-4.2l15-1.9l0.5,4.2l-1.9,0.3c2.4,1.2,2.9,3.2,3,4.3c0.6,4.6-2.6,8.1-7,8.7
			c-4.4,0.6-8.4-2-8.9-6.4c-0.1-1.1-0.2-3.4,1.8-5.1L204.3,116.4z M212.9,123.3c2.4-0.3,4-2.3,3.7-4.7c-0.3-2.4-2.4-3.9-4.8-3.6
			c-2.4,0.3-4,2.3-3.7,4.7C208.4,122.1,210.5,123.6,212.9,123.3z"/>
	</g>
	<path class="st0" d="M127.5,252.9c-69.1,0-125.4-56.3-125.4-125.4S58.4,2.1,127.5,2.1c69.1,0,125.4,56.3,125.4,125.4
		S196.6,252.9,127.5,252.9z M127.5,9.1C62.2,9.1,9.1,62.2,9.1,127.5c0,65.3,53.1,118.4,118.4,118.4s118.4-53.1,118.4-118.4
		C245.9,62.2,192.8,9.1,127.5,9.1z"/>
</g>
</svg>
