<?xml version="1.0" encoding="utf-8"?>
<!-- Generator: Adobe Illustrator 24.3.0, SVG Export Plug-In . SVG Version: 6.00 Build 0)  -->
<svg version="1.1" id="Слой_1" xmlns="http://www.w3.org/2000/svg" xmlns:xlink="http://www.w3.org/1999/xlink" x="0px" y="0px"
	 viewBox="0 0 65 65" style="enable-background:new 0 0 65 65;" xml:space="preserve">
<style type="text/css">
	.st0{fill:#4885FA;}
</style>
<path class="st0" d="M40.6,64.8H23.9l-1-9.4l-7.4,5.8l-12-12l5.8-7.5L0,40.6V24l9.4-1.1l-5.8-7.3l12-12l7.4,5.8L24,0h16.9L42,9.3
	l7.5-5.9l12,11.9l-5.9,7.4l9.4,1.1l-0.3,17.1l-9.4,1l5.9,7.4l-12,12l-7.5-6L40.6,64.8z M28.1,60.1h8.4l1-8.9l1.4-0.5
	c0.2-0.1,0.5-0.2,0.8-0.3c0.3-0.1,0.6-0.3,0.9-0.4l1.2-0.5l7,5.6L55,49l-5.8-7.2l0.8-1.4c0.3-0.5,0.4-0.9,0.6-1.3l0.5-1.4l9.1-1
	l0.1-8.8l-8.7-1L51,26c-0.4-0.7-0.7-1.3-0.9-2l-0.4-1.2l5.6-7l-6.1-6.1l-6.8,5.4l-1.2-0.4c-0.5-0.1-0.9-0.3-1.2-0.5
	c-0.3-0.1-0.5-0.2-0.6-0.3l-1.4-0.5l-1-8.8h-8.7L27,13.5l-1.7,0.3c-0.1,0-0.3,0.1-0.5,0.2c-0.4,0.2-0.8,0.4-1.3,0.5l-1.1,0.3
	l-6.5-5.1l-6.1,6.1l5.2,6.5l-0.5,1.3c-0.1,0.2-0.2,0.5-0.3,0.7c-0.2,0.5-0.4,0.9-0.5,1.3l-0.5,1.4l-8.5,1v8.3l8.6,1l0.4,1.5
	c0.1,0.3,0.3,0.7,0.5,1.1c0.1,0.2,0.2,0.5,0.3,0.8l0.5,1.3l-5.2,6.6l6.1,6.1l6.8-5.4l1.3,0.7c0.5,0.3,1,0.4,1.5,0.6l1.6,0.4
	L28.1,60.1z M32.5,48.3c-8.8,0-15.9-7.1-15.9-15.9c0-8.8,7.1-15.9,15.9-15.9c8.8,0,15.9,7.1,15.9,15.9
	C48.4,41.2,41.3,48.3,32.5,48.3z M32.5,21.2c-6.2,0-11.2,5-11.2,11.2c0,6.2,5,11.2,11.2,11.2c6.2,0,11.2-5,11.2-11.2
	C43.7,26.2,38.7,21.2,32.5,21.2z"/>
</svg>
