<?xml version="1.0" encoding="utf-8"?>
<!-- Generator: Adobe Illustrator 24.3.0, SVG Export Plug-In . SVG Version: 6.00 Build 0)  -->
<svg version="1.1" id="Слой_1" xmlns="http://www.w3.org/2000/svg" xmlns:xlink="http://www.w3.org/1999/xlink" x="0px" y="0px"
	 viewBox="0 0 531 318" style="enable-background:new 0 0 531 318;" xml:space="preserve">
<style type="text/css">
	.st0{fill:#4981EC;}
</style>
<path class="st0" d="M378.9,290.4c-4.6,0-9.2-1.8-12.7-5.3L139.4,58.3c-7-7-7-18.4,0-25.5c7-7,18.4-7,25.5,0l226.8,226.8
	c7,7,7,18.4,0,25.5C388.1,288.6,383.5,290.4,378.9,290.4z"/>
<path class="st0" d="M152.1,290.4c-4.6,0-9.2-1.8-12.7-5.3c-7-7-7-18.4,0-25.5L366.2,32.9c7-7,18.4-7,25.5,0c7,7,7,18.4,0,25.5
	L164.8,285.1C161.3,288.6,156.7,290.4,152.1,290.4z"/>
</svg>
