<?xml version="1.0" encoding="utf-8"?>
<!-- Generator: Adobe Illustrator 24.3.0, SVG Export Plug-In . SVG Version: 6.00 Build 0)  -->
<svg version="1.1" id="Слой_1" xmlns="http://www.w3.org/2000/svg" xmlns:xlink="http://www.w3.org/1999/xlink" x="0px" y="0px"
	 viewBox="0 0 65 86" style="enable-background:new 0 0 65 86;" xml:space="preserve">
<style type="text/css">
	.st0{fill:#4885FA;}
</style>
<path class="st0" d="M65,58.7c0-0.8,0-1.7,0-2.5c0-0.7,0-1.5,0-2.2c0-1.5,0-3,0-4.4c0.1-3.4-1.3-6-4.2-7.6l-0.2-0.1h-0.2
	c-0.1,0-0.1,0-0.2-0.1L60,41.5l-0.2,0c-1.6-0.3-3.1-0.3-4.5,0.1V9.7C55.4,4.3,51,0,45.7,0h-36C4.3,0,0,4.3,0,9.7v36
	c0,3.2,2,6.4,4.9,8.3c0,0.1-0.1,0.2-0.1,0.2l0,0C4.6,55,4.5,57.8,5,58.9L5,59.1c2.1,3.3,4.7,5.7,7.2,8.1c1.7,1.6,3.4,3.3,5,5.2
	l0.9,0.9l0.1,0.1c0.4,0.4,0.9,0.8,1.3,1.3l0.1,0.1c1.5,1.5,3,2.9,4.5,4.4c1,1,2,1.8,3.1,2.7l0.3,0.2l0.1,0.1
	c0.5,0.3,0.9,0.6,1.4,0.9c0.5,0.3,0.9,0.6,1.4,0.9l0,0c0.3,0.2,0.6,0.3,0.9,0.4c0.3,0.1,0.6,0.2,0.8,0.4l0.1,0.1
	c0.8,0.2,1.5,0.4,2.3,0.6c0.8,0.2,1.5,0.4,2.3,0.6l0.1,0c0.8,0,1.5,0.1,2.3,0.2c0.7,0.1,1.5,0.1,2.3,0.2l0,0l0,0
	c1.5-0.1,3-0.1,4.5-0.1l0.1,0c0.8-0.1,1.5-0.2,2.3-0.3c0.8-0.1,1.5-0.2,2.3-0.3l0.1,0c1.3-0.3,2.5-0.7,3.7-1.1l0.9-0.3l0.7-0.3l0,0
	c1.4-0.8,2.9-1.8,4.1-3l0.1-0.1c0.2-0.3,0.4-0.5,0.6-0.8c0.2-0.3,0.5-0.6,0.7-0.9c0.9-1.5,1.5-3.1,2.1-4.7l0-0.1
	C65.1,69.1,65,63.8,65,58.7z M60,64.7c0,0.4,0,0.8,0,1.2c-0.1,2.7-0.1,5.3-1.2,7.7l0,0.1c-0.9,2.8-2.9,4.7-6,5.9
	c-0.7,0.3-1.5,0.5-2.3,0.7c-1.4,0.4-2.9,0.6-4.4,0.6l-0.1,0c-1.4,0.3-2.8,0.2-4.3,0.1l-0.1,0c-1.8,0-3.2-0.1-4.4-0.5l-0.1,0
	c-1.8-0.3-3.2-0.7-4.4-1.4l-0.1,0l-0.1,0c-0.7-0.2-1.3-0.6-1.8-1l-0.1-0.1c-0.9-0.5-1.7-1.1-2.2-1.9l-0.1-0.1l-0.1-0.1
	c-0.9-0.6-1.6-1.5-2.4-2.3l-0.1-0.1C24.9,72.8,10.8,59,10,57.6l0,0c-0.5-1.2-0.3-2.2,0.6-3.1c1-0.9,2.3-1,3.5-0.4
	c0.7,0.4,1.2,0.9,1.8,1.6c0.1,0.1,0.2,0.2,0.3,0.3l0.2,0.1c0.8,0.7,1.5,1.4,2.2,2.2l0.1,0.1c0.8,0.7,1.5,1.4,2.2,2.2l0.2,0.1
	c0.8,0.7,1.5,1.4,2.2,2.2l0.1,0.1l0.1,0.1c0.2,0.1,0.4,0.3,0.6,0.5c0.2,0.2,0.4,0.4,0.7,0.6l1.1,0.9V29.4c0.1-1.4,0.8-2.2,2.3-2.4
	c1.3-0.1,1.9,0.3,2.4,1.6c0.3,1.4,0.2,2.8,0.1,4.3l0,0.1l0,0c0.1,1.5,0.1,3,0,4.5l0,0l0,0c0.1,1.4,0.1,3,0,4.4l0,0l0,0
	c0.1,1.5,0.1,3,0,4.5l0,0l0,0c0.1,1.5,0.1,3,0,4.5l0,0.1l0,0.1c0.1,1.3,0.9,2.3,2,2.6l0.1,0l0.1,0c1.7-0.2,2.5-0.6,2.7-2.6l0-4.7
	c0-0.5,0-1.1,0-1.6c0-1,0-2.1,0-3.1c0.2-1.4,1.2-2.3,2.5-2.2c1.5,0.1,2.2,0.8,2.3,2.4c0.1,1.5,0.1,3,0,4.5l0,0l0,0
	c0.1,1.5,0.1,3,0,4.5l0,0.1l0,0.1c0.1,0.8,0.1,1.7,0.1,2.6c0,0.9,0.1,1.6,0.7,2.4l0.1,0.1l0.1,0.1c1.1,0.6,2.4,0.5,3.4-0.4l0.1-0.1
	l0.1-0.1c0.5-0.8,0.5-1.5,0.5-2.1v-7.5c0-1.3,0.3-2,0.9-2.4l0.1-0.1c0.3-0.2,1.1-1,2.7,0c1,0.5,1.3,1.4,1.1,2.8l0,4.7l0,0
	c0.1,1.5,0.1,3,0,4.5l0,0c0,0.3,0,0.5,0.1,0.8c0,0.2,0,0.4,0,0.6v0.2l0.1,0.2c1,1.6,2.1,1.6,2.9,1.4c1.7-0.5,1.8-2,1.9-3l0-0.1
	l0-0.1c-0.1-1.5-0.1-3,0-4.5l0,0l0,0c0-0.2,0-0.4-0.1-0.6c-0.1-1.1-0.2-2.2,0.6-3.1c0.5-0.7,1.2-1,2-1c0.7,0,1.3,0.4,1.8,1
	c0.6,0.8,0.5,1.7,0.5,2.7c0,0.3,0,0.6,0,1L60,64.7z M37.5,34.2c-0.2,0-0.4,0-0.6,0h-0.2l-0.1,0c-0.5,0.1-1,0.3-1.3,0.3
	c0-0.3,0-0.9,0.1-1.4l0-4.6l0,0c-0.1-1.7-0.7-3.3-1.8-4.8l-0.1-0.1l-0.1-0.1c-0.3-0.3-0.6-0.5-0.9-0.8l-0.1-0.1
	c-1.3-0.9-2.8-1.4-4.6-1.5l-0.1,0l-0.1,0c-2.1,0.4-3.7,1.1-4.9,2.2l0,0c-1.3,1.4-2,3-2.2,5l0,4.7l0,0c0.1,1.5,0.1,3,0,4.5
	c-2.6-2.1-4.2-5.3-4.2-8.7c0-6.2,5-11.2,11.2-11.2s11.2,5,11.2,11.2C38.9,30.7,38.4,32.5,37.5,34.2z M5.2,9.7c0-2.5,2-4.5,4.5-4.5
	h36c2.5,0,4.5,2,4.5,4.5v28.4c-1.4-0.4-2.8-0.5-4.3-0.2L45.4,38v0.2c-0.4,0.1-0.7,0.3-0.8,0.3c-0.1-0.1-0.4-0.6-0.6-1l-0.1-0.1
	c-0.4-0.5-0.9-0.9-1.3-1.3c0,0-0.1-0.1-0.1-0.1c1-2.2,1.6-4.5,1.6-7c0-9.1-7.4-16.4-16.4-16.4c-9.1,0-16.4,7.4-16.4,16.4
	c0,6.4,3.7,12.1,9.4,14.8c0,0.9,0,1.8,0,2.7c0,3.2,0,5.6,0,7c-0.8-0.8-1.7-1.7-2.5-2.6c-1-1.1-2.4-1.8-3.6-2.2l-0.1,0
	c-1.5-0.3-3.1-0.2-4.9,0.3l-0.1,0c-0.5,0.3-1,0.6-1.5,0.9c-1.7-1-2.7-2.7-2.7-4.1V9.7z"/>
</svg>
