<?xml version="1.0" encoding="utf-8"?>
<!-- Generator: Adobe Illustrator 24.3.0, SVG Export Plug-In . SVG Version: 6.00 Build 0)  -->
<svg version="1.1" id="Слой_1" xmlns="http://www.w3.org/2000/svg" xmlns:xlink="http://www.w3.org/1999/xlink" x="0px" y="0px"
	 viewBox="0 0 361 225" style="enable-background:new 0 0 361 225;" xml:space="preserve">
<style type="text/css">
	.st0{fill:#4885FA;}
	.st1{fill:#DADEE4;}
	.st2{fill:#FFFFFF;}
</style>
<polygon class="st0" points="297.4,112.9 180.5,-0.1 65.5,112.9 65.5,225.2 297.4,225.2 "/>
<polygon class="st1" points="120.2,59.5 88.1,33 1.2,115.2 1.2,225.2 66.3,225.2 66.3,115.2 "/>
<polygon class="st1" points="275.3,33 243.1,59.5 297.1,115.2 297.1,225.2 362.2,225.2 362.2,115.2 "/>
<polygon class="st1" points="232.7,62.5 181.7,12.6 130.7,62.5 76.8,115.2 76.8,142.8 130.7,90 181.7,40.2 232.7,90 286.6,142.8 
	286.6,115.2 "/>
<g>
	<rect x="141.6" y="128.9" class="st2" width="35.4" height="35.2"/>
	<rect x="141.6" y="173.2" class="st2" width="35.4" height="35.1"/>
	<rect x="186.3" y="128.9" class="st2" width="35.4" height="35.2"/>
	<rect x="186.3" y="173.2" class="st2" width="35.4" height="35.1"/>
</g>
</svg>
