<?xml version="1.0" encoding="utf-8"?>
<!-- Generator: Adobe Illustrator 25.3.1, SVG Export Plug-In . SVG Version: 6.00 Build 0)  -->
<svg version="1.1" id="Слой_1" xmlns="http://www.w3.org/2000/svg" xmlns:xlink="http://www.w3.org/1999/xlink" x="0px" y="0px"
	 viewBox="0 0 106 98" style="enable-background:new 0 0 106 98;" xml:space="preserve">
<style type="text/css">
	.st0{fill:#DADEE4;}
	.st1{fill:#4885FA;}
</style>
<ellipse class="st0" cx="57.1" cy="49" rx="47.9" ry="48.5"/>
<path class="st1" d="M57.1,98c-27,0-49-22-49-49c0-4.7,0.7-9.3,2-13.8l2.2,0.6c-1.2,4.2-1.9,8.7-1.9,13.1c0,25.8,21,46.7,46.7,46.7
	c25.8,0,46.7-21,46.7-46.7S82.9,2.3,57.1,2.3c-11,0-21.7,3.9-30.1,11l-1.5-1.7C34.4,4.1,45.6,0,57.1,0c27,0,49,22,49,49
	S84.2,98,57.1,98z"/>
<g>
	<polygon class="st1" points="18.6,19.7 0,37.4 10.9,35.9 17.7,45.4 	"/>
</g>
<g>
	<path class="st1" d="M23.1,44.2c0.4-4.1,3.5-6.4,7.3-6.4c4.3,0,7.1,2.4,7.1,6.2c0,1.2-0.2,3.4-2.6,4.7c0.9,0.4,3.4,1.7,3.4,5.4
		c0,4.6-3.6,7.2-8,7.2c-4.3,0-7.7-2.7-8.1-7h4.4c0.3,1.9,1.6,3.2,3.7,3.2c2.5,0,3.6-1.9,3.6-3.6c0-1.7-1-3.5-3.7-3.5h-0.6v-3.2h0.6
		c2.2,0,3.1-1.5,3.1-3.1c0-1.8-1.2-3-3-3c-1.6,0-3,1-3.1,2.9H23.1z"/>
	<path class="st1" d="M46.1,46.2h3l4,8.4l4-8.4h3l2.7,14.6h-4.1l-1.2-7.9l-3.6,7.9h-1.5l-3.6-7.9l-1.2,7.9h-4.1L46.1,46.2z"/>
	<path class="st1" d="M79,60.8h-4.1V49.7h-4v5.4c0,1.2-0.2,3-1.4,4.3c-0.3,0.3-1.6,1.6-4,1.6c-0.4,0-0.8,0-1.2-0.1v-3.5
		c0.2,0,0.4,0.1,0.6,0.1c0.9,0,1.4-0.4,1.7-0.7c0.4-0.5,0.5-1.3,0.5-1.9v-8.6H79V60.8z"/>
	<path class="st1" d="M81.9,46.2h4.1v5.2h5.7v-5.2h4.1v14.6h-4.1v-5.9h-5.7v5.9h-4.1V46.2z"/>
</g>
</svg>
