<?xml version="1.0" encoding="utf-8"?>
<!-- Generator: Adobe Illustrator 24.3.0, SVG Export Plug-In . SVG Version: 6.00 Build 0)  -->
<svg version="1.1" id="Слой_1" xmlns="http://www.w3.org/2000/svg" xmlns:xlink="http://www.w3.org/1999/xlink" x="0px" y="0px"
	 viewBox="0 0 106 98" style="enable-background:new 0 0 106 98;" xml:space="preserve">
<style type="text/css">
	.st0{fill:#DADEE4;}
	.st1{fill:#4885FA;}
</style>
<ellipse class="st0" cx="57.1" cy="49" rx="47.9" ry="48.5"/>
<g>
	<path class="st1" d="M29.5,42.1h-3.2v-3.8h7.6v22.4h-4.3L29.5,42.1L29.5,42.1z"/>
	<path class="st1" d="M43.9,46.2h3l4,8.4l4-8.4h3l2.6,14.5h-4.1l-1.2-7.9l-3.6,7.9h-1.5l-3.6-7.9l-1.2,7.9h-4.1L43.9,46.2z"/>
	<path class="st1" d="M75.7,60.7h-4.1v-11h-3.9V55c0,1.2-0.2,3-1.4,4.3c-0.3,0.3-1.5,1.5-3.9,1.5c-0.4,0-0.8,0-1.2-0.1v-3.5
		c0.2,0,0.4,0.1,0.6,0.1c0.9,0,1.4-0.4,1.7-0.7c0.4-0.5,0.5-1.3,0.5-1.8v-8.6h11.7C75.7,46.2,75.7,60.7,75.7,60.7z"/>
	<path class="st1" d="M79.5,46.2h4.1v5.1h5.7v-5.1h4.1v14.5h-4.1v-5.9h-5.7v5.9h-4.1V46.2z"/>
</g>
<path class="st1" d="M57.1,98c-27,0-49-22-49-49c0-4.7,0.7-9.3,2-13.8l2.2,0.6c-1.2,4.2-1.9,8.7-1.9,13.1c0,25.8,21,46.7,46.7,46.7
	c25.8,0,46.7-21,46.7-46.7S82.9,2.3,57.1,2.3c-11,0-21.7,3.9-30.1,11l-1.5-1.7C34.4,4.1,45.6,0,57.1,0c27,0,49,22,49,49
	S84.2,98,57.1,98z"/>
<g>
	<polygon class="st1" points="18.6,19.7 0,37.4 10.9,35.9 17.7,45.4 	"/>
</g>
</svg>
