<?xml version="1.0" encoding="utf-8"?>
<!-- Generator: Adobe Illustrator 24.2.1, SVG Export Plug-In . SVG Version: 6.00 Build 0)  -->
<svg version="1.1" id="Слой_1" xmlns="http://www.w3.org/2000/svg" xmlns:xlink="http://www.w3.org/1999/xlink" x="0px" y="0px"
	 viewBox="0 0 135 98" style="enable-background:new 0 0 135 98;" xml:space="preserve">
<style type="text/css">
	.st0{fill:#4885FA;}
	.st1{fill:#DADEE4;}
</style>
<path class="st0" d="M128.4,92.4h-2.1c0-22.2-8.4-44-24.2-62.9l1.6-1.4C119.8,47.5,128.4,69.7,128.4,92.4z"/>
<rect x="-9.1" y="40.7" transform="matrix(0.7071 -0.7071 0.7071 0.7071 -17.95 49.5576)" class="st1" width="119.9" height="11.4"/>
<g>
	
		<rect x="17.1" y="67.7" transform="matrix(0.7071 -0.7071 0.7071 0.7071 -41.9036 39.717)" class="st0" width="19.8" height="5.5"/>
	
		<rect x="43.1" y="41.6" transform="matrix(0.7071 -0.7071 0.7071 0.7071 -15.8427 50.4693)" class="st0" width="19.8" height="5.5"/>
	
		<rect x="69.3" y="15.4" transform="matrix(0.7071 -0.7071 0.7071 0.7071 10.3341 61.3177)" class="st0" width="19.8" height="5.5"/>
</g>
<circle class="st0" cx="8.2" cy="88.9" r="8.2"/>
<g>
	<polygon class="st0" points="92.5,20.2 100.9,42.6 104.1,32.5 114.4,30.4 	"/>
</g>
<g>
	<polygon class="st0" points="128.4,97.5 134.7,74.3 126.2,80.8 116.5,76.8 	"/>
</g>
<g>
	<path class="st0" d="M98.5,81c0,2.8-2,4.9-5.2,4.9s-5.2-2.1-5.2-4.9s2-4.9,5.2-4.9C96.5,76,98.5,78.1,98.5,81z M95.9,81
		c0-1.6-1.1-2.7-2.6-2.7s-2.6,1.1-2.6,2.7s1.1,2.7,2.6,2.7C94.8,83.6,95.9,82.5,95.9,81z M104.6,75.6l1.7,0.9L93.8,98l-1.7-1
		L104.6,75.6z M110.3,92.5c0,2.8-2,4.9-5.2,4.9s-5.2-2.1-5.2-4.9s2-4.9,5.2-4.9S110.3,89.6,110.3,92.5z M107.7,92.5
		c0-1.6-1.1-2.7-2.6-2.7s-2.6,1.1-2.6,2.7s1.1,2.7,2.6,2.7S107.7,94.1,107.7,92.5z"/>
</g>
<g>
	<path class="st0" d="M43,79.8h-3v-3.5h7v20.8h-4V79.8z"/>
	<path class="st0" d="M52.2,86.7c0-7.1,3.9-10.8,8-10.8s8,3.7,8,10.9c0,7.1-3.9,10.8-8,10.8S52.2,93.8,52.2,86.7z M56.2,86.7
		c0,5.4,2.2,7.4,4,7.4c1.8,0,4-2,4-7.4c0-5.4-2.2-7.4-4-7.4S56.2,81.3,56.2,86.7z"/>
	<path class="st0" d="M69.9,86.7c0-7.1,3.9-10.8,8-10.8c4.1,0,8,3.7,8,10.9c0,7.1-3.9,10.8-8,10.8C73.8,97.5,69.9,93.8,69.9,86.7z
		 M73.9,86.7c0,5.4,2.2,7.4,4,7.4s4-2,4-7.4c0-5.4-2.2-7.4-4-7.4S73.9,81.3,73.9,86.7z"/>
</g>
</svg>
