<?xml version="1.0" encoding="utf-8"?>
<!-- Generator: Adobe Illustrator 24.3.0, SVG Export Plug-In . SVG Version: 6.00 Build 0)  -->
<svg version="1.1" id="Слой_1" xmlns="http://www.w3.org/2000/svg" xmlns:xlink="http://www.w3.org/1999/xlink" x="0px" y="0px"
	 viewBox="0 0 50 50" style="enable-background:new 0 0 50 50;" xml:space="preserve">
<style type="text/css">
	.st0{fill-rule:evenodd;clip-rule:evenodd;fill:#6B7279;}
</style>
<path class="st0" d="M50,25.3V25v-0.3c-11.1-0.3-16.1-0.6-20.2-4.6c-3.9-4-4.2-9.1-4.6-20.2H25h-0.3C24.4,11,24.1,16,20.1,20.1
	c-4,3.9-9.1,4.2-20.2,4.6V25v0.3C11,25.6,16,25.9,20.1,29.9c3.9,4,4.2,9.1,4.6,20.2H25h0.3C25.6,39,25.9,34,29.9,29.9
	C33.9,25.9,38.9,25.6,50,25.3z"/>
</svg>
