<?xml version="1.0" encoding="utf-8"?>
<!-- Generator: Adobe Illustrator 24.3.0, SVG Export Plug-In . SVG Version: 6.00 Build 0)  -->
<svg version="1.1" id="Слой_1" xmlns="http://www.w3.org/2000/svg" xmlns:xlink="http://www.w3.org/1999/xlink" x="0px" y="0px"
	 viewBox="0 0 72 65" style="enable-background:new 0 0 72 65;" xml:space="preserve">
<style type="text/css">
	.st0{fill:#DADEE4;}
	.st1{fill:#4885FA;}
</style>
<rect y="15.5" class="st0" width="72" height="49.5"/>
<g>
	<path class="st1" d="M12.2,31.3c0.1-2.6,1.3-4.9,2.8-6.3c2.2-2.1,5-2.5,7.1-2.5c2.5,0,4.9,0.5,7,2.7c1.7,1.7,2.3,3.8,2.3,6.2
		c0,1.6-0.3,2.9-1.1,4.3c-0.9,1.4-2,2.2-2.9,2.7c1.7,0.6,2.7,1.7,3.2,2.6c0.9,1.4,1.4,3.2,1.4,5c0,3.2-1.2,5.7-2.8,7.2
		c-2.3,2.3-5.4,2.8-7.9,2.8c-2.5,0-5.2-0.5-7.2-2.7c-1.5-1.6-2.5-4.1-2.8-6.6H16c0.2,1.5,0.9,2.7,1.7,3.5c0.7,0.6,1.9,1.5,3.9,1.5
		c1.5,0,2.9-0.6,3.8-1.4c0.9-0.9,1.7-2.4,1.7-4.6c0-1.1-0.2-2.6-1.5-3.8c-1.4-1.4-3.2-1.5-4.2-1.5h-1v-4.2h0.7
		c2.1,0,3.4-0.7,4.1-1.4c0.8-0.8,1.3-2,1.3-3.4c0-1.7-0.7-2.7-1.3-3.3c-1.1-1.1-2.5-1.2-3.5-1.2c-1.2,0-2.5,0.2-3.6,1.3
		c-1.1,1.2-1.4,2.9-1.4,3.1H12.2z"/>
	<path class="st1" d="M42.1,52.4c-3.4-3.9-4.1-9-4.1-13.2c0-4.2,0.7-9.4,4.1-13.3c2-2.3,4.5-3.5,7.3-3.5c2.9,0,5.3,1.2,7.3,3.5
		c3.4,3.9,4.1,9.1,4.1,13.3c0,4.2-0.7,9.3-4.1,13.2c-2,2.3-4.4,3.5-7.3,3.5S44.2,54.8,42.1,52.4z M45.1,29.5
		c-1.8,2.7-2.2,6.8-2.2,9.7c0,2.9,0.4,7,2.2,9.7c1.4,2.1,3.1,2.7,4.4,2.7c1.3,0,3-0.5,4.4-2.7c1.8-2.7,2.2-6.8,2.2-9.7
		c0-2.8-0.4-7-2.2-9.7c-1.4-2.1-3.1-2.7-4.4-2.7C48.2,26.9,46.5,27.4,45.1,29.5z"/>
</g>
<g>
	<path class="st1" d="M11.6,12.1h-1.1c-0.5,0-0.9-0.4-0.9-0.9V0.9C9.6,0.4,10,0,10.5,0h1.1c0.5,0,0.9,0.4,0.9,0.9v10.2
		C12.5,11.7,12.1,12.1,11.6,12.1z"/>
</g>
<path class="st1" d="M63.9,7.4v4.9c0,0.5-0.4,0.9-0.9,0.9h-4c-0.5,0-0.9-0.4-0.9-0.9V7.4H13.9v4.9c0,0.5-0.4,0.9-0.9,0.9H9.1
	c-0.5,0-0.9-0.4-0.9-0.9V7.4H4.3C1.9,7.4,0,9.3,0,11.7v3.9h72v-3.9c0-2.4-1.9-4.3-4.3-4.3H63.9z"/>
<path class="st1" d="M61.6,12.1h-1.1c-0.5,0-0.9-0.4-0.9-0.9V0.9c0-0.5,0.4-0.9,0.9-0.9h1.1c0.5,0,0.9,0.4,0.9,0.9v10.2
	C62.5,11.7,62.1,12.1,61.6,12.1z"/>
</svg>
