<?xml version="1.0" encoding="utf-8"?>
<!-- Generator: Adobe Illustrator 24.3.0, SVG Export Plug-In . SVG Version: 6.00 Build 0)  -->
<svg version="1.1" id="Слой_1" xmlns="http://www.w3.org/2000/svg" xmlns:xlink="http://www.w3.org/1999/xlink" x="0px" y="0px"
	 viewBox="0 0 56 56" style="enable-background:new 0 0 56 56;" xml:space="preserve">
<style type="text/css">
	.st0{fill:#4885FA;}
</style>
<path class="st0" d="M45.4,56H10.6C4.8,56,0,51.2,0,45.4V10.6C0,4.8,4.8,0,10.6,0h34.8C51.2,0,56,4.8,56,10.6v34.8
	C56,51.2,51.2,56,45.4,56z M10.6,5.6c-2.7,0-5,2.2-5,5v34.8c0,2.7,2.2,5,5,5h34.8c2.7,0,5-2.2,5-5V10.6c0-2.7-2.2-5-5-5H10.6z"/>
<g>
	<path class="st0" d="M27.8,11.3c2.2,0,3.9,1.7,3.9,3.9s-1.7,3.9-3.9,3.9c-2.2,0-3.9-1.7-3.9-3.9S25.6,11.3,27.8,11.3z M31.1,24
		v20.8h-6.7V24H31.1z"/>
</g>
</svg>
