<?xml version="1.0" encoding="utf-8"?>
<!-- Generator: Adobe Illustrator 24.3.0, SVG Export Plug-In . SVG Version: 6.00 Build 0)  -->
<svg version="1.1" id="Слой_1" xmlns="http://www.w3.org/2000/svg" xmlns:xlink="http://www.w3.org/1999/xlink" x="0px" y="0px"
	 viewBox="0 0 24 25" style="enable-background:new 0 0 24 25;" xml:space="preserve">
<style type="text/css">
	.st0{fill:#A1A5A7;}
</style>
<path class="st0" d="M23.8,20.6c-0.8-1.9-4-5.1-5.8-5.6c-0.7-0.3-1.2,0.2-1.7,0.6l-0.2,0.2c-1.3,1.2-1.9,1.5-2,1.5L14,17.3h-0.3
	c-0.3-0.1-1.4-0.7-3.5-3.1c-1.4-1.6-2.3-2.7-2.6-3.4c0.2-0.4,1-2,1.9-3.3c0.3-0.3,0.3-0.8,0.1-1.2c-0.4-1.2-3-5-4.6-6.1L4.8,0H4.3
	L4.2,0C1.5,0.7,0.5,3.4,0.5,3.5c-2.1,6,2.9,12.4,4.5,14.2l0.1,0.1c2,2.2,7.3,7.2,12.5,7.2c0.7,0,1.3-0.1,1.9-0.3l0,0
	c0.7-0.2,3.5-1.1,4.3-2.6l0.1-0.1v0C24.1,21.4,24,21.1,23.8,20.6z M5.6,11.4c0.3,1,1.4,2.4,3.1,4.4c2.3,2.6,3.8,3.3,4.4,3.7l0.1,0.1
	h0c1.5,0.7,3.4-1,4.4-1.8l0.2-0.2c0,0,0.1-0.1,0.1-0.1c1.1,0.7,2.8,2.4,3.6,3.6c-0.3,0.2-1.1,0.7-2.7,1.3c-0.4,0.1-0.8,0.1-1.3,0.1
	c-3,0-6.9-2.3-11.1-6.5l-0.1,0C5.5,14.7,1,8.9,2.6,4.3l0.1-0.2C3,3.3,3.5,2.7,4.2,2.4c1,1,2.6,3.2,3.2,4.3
	C5.5,9.5,5.3,10.6,5.6,11.4z"/>
</svg>
