<?xml version="1.0" encoding="utf-8"?>
<!-- Generator: Adobe Illustrator 24.3.0, SVG Export Plug-In . SVG Version: 6.00 Build 0)  -->
<svg version="1.1" id="Слой_1" xmlns="http://www.w3.org/2000/svg" xmlns:xlink="http://www.w3.org/1999/xlink" x="0px" y="0px"
	 viewBox="0 0 57 59" style="enable-background:new 0 0 57 59;" xml:space="preserve">
<style type="text/css">
	.st0{fill:#4885FA;}
</style>
<path class="st0" d="M56.7,49.9c-1.8-4.2-9.5-12-13.6-13c-1.1-0.4-1.9,0.3-3.1,1.4l-0.5,0.4c-4.9,4.6-6.1,4-6.3,3.9l-0.2-0.2h-0.4
	c-0.6-0.2-3.7-1.6-9.3-7.9c-2.6-2.9-5.8-6.7-6.8-9.1v0c0-1,2.8-5.7,5.1-8.9c0.3-0.4,0.5-1,0.1-1.7c-0.7-2.5-7.4-12.2-11.1-14.4
	L10.2,0H9.5L9.4,0C3.6,1.4,1.3,7.4,1.2,7.7l0,0c-4.9,14.1,7,29.3,10.8,33.6l0.3,0.3C18.4,48.1,30.6,59,42.4,59c1.6,0,3-0.2,4.4-0.7
	c0.1,0,8.1-2.3,9.9-5.8l0-0.1C57.1,51.4,57.1,50.8,56.7,49.9z M9.4,3.4L9.4,3.4c3,2.4,7.8,9.6,9.1,11.9c-5.2,7.5-5.3,9.8-4.8,11
	c0.8,2.2,3.3,5.7,7.5,10.5c5.7,6.4,9.4,8.1,10.6,8.7l0.1,0c3.2,1.6,7.6-2.3,9.9-4.3l0,0c0.1-0.1,0.3-0.3,0.4-0.4
	c0.3-0.2,0.6-0.5,0.8-0.8c3,1.5,8.7,7.2,10.5,10.5l-0.1,0.1c-0.4,0.8-2.6,2.3-7.8,4.1c-1.2,0.3-2.4,0.4-3.5,0.4
	c-7.7,0-17.7-5.8-28.2-16.4l-0.2-0.2C11.4,35.7,0,21,4.1,8.9l0.2-0.4C5.6,5.7,7.3,4.1,9.4,3.4z"/>
</svg>
