<?xml version="1.0" encoding="utf-8"?>
<!-- Generator: Adobe Illustrator 24.3.0, SVG Export Plug-In . SVG Version: 6.00 Build 0)  -->
<svg version="1.1" id="Слой_1" xmlns="http://www.w3.org/2000/svg" xmlns:xlink="http://www.w3.org/1999/xlink" x="0px" y="0px"
	 viewBox="0 0 84 59" style="enable-background:new 0 0 84 59;" xml:space="preserve">
<style type="text/css">
	.st0{fill:#4885FA;}
</style>
<path class="st0" d="M82.9,1.7C82,0.7,80.7,0,79.4,0H4.7C2.3,0,0,2.3,0,4.7v49.6C0,57.1,2.4,59,4.7,59h74.4c2.6,0,4.7-2.2,4.7-5V4.4
	C83.9,3.5,83.6,2.6,82.9,1.7z M54.6,28.2l26-21.9v47.9L54.6,28.2z M78.5,3.4L42.1,34.2L6.9,3.4H78.5z M31.8,29.9L42,38.7l9.6-8.3
	L77,55.6H5.8L31.8,29.9z M29.4,27.6L3.7,53.2V5.3L29.4,27.6z"/>
</svg>
