<?xml version="1.0" encoding="utf-8"?>
<!-- Generator: Adobe Illustrator 24.3.0, SVG Export Plug-In . SVG Version: 6.00 Build 0)  -->
<svg version="1.1" id="Слой_1" xmlns="http://www.w3.org/2000/svg" xmlns:xlink="http://www.w3.org/1999/xlink" x="0px" y="0px"
	 viewBox="0 0 27 35" style="enable-background:new 0 0 27 35;" xml:space="preserve">
<style type="text/css">
	.st0{fill:#A1A5A7;}
</style>
<path class="st0" d="M13.5,15.5c-4.2,0-7.6-3.5-7.6-7.8S9.3,0,13.5,0c4.2,0,7.6,3.5,7.6,7.8S17.7,15.5,13.5,15.5z M13.5,2.1
	C10.4,2.1,8,4.6,8,7.8s2.5,5.7,5.5,5.7c3.1,0,5.5-2.6,5.5-5.7S16.6,2.1,13.5,2.1z"/>
<path class="st0" d="M13.5,19.1c3.1,0,5.9,1.1,8.1,3.2c2.1,2,3.3,4.7,3.3,7.5v3.2H2.1v-3.1C2.1,23.9,7.2,19.1,13.5,19.1 M13.5,17
	C6.1,17,0,22.7,0,29.9V35h27v-5.3C27,22.7,20.9,17,13.5,17L13.5,17z"/>
</svg>
