<?xml version="1.0" encoding="utf-8"?>
<!-- Generator: Adobe Illustrator 24.3.0, SVG Export Plug-In . SVG Version: 6.00 Build 0)  -->
<svg version="1.1" id="Слой_1" xmlns="http://www.w3.org/2000/svg" xmlns:xlink="http://www.w3.org/1999/xlink" x="0px" y="0px"
	 viewBox="0 0 35 25" style="enable-background:new 0 0 35 25;" xml:space="preserve">
<style type="text/css">
	.st0{fill:#A1A5A7;}
</style>
<path class="st0" d="M35,2.3c0.1-0.5-0.1-1-0.5-1.5l0,0C34,0.3,33.3,0,32.7,0H2.4C1.1,0,0,1.1,0,2.4v20.2C0,24,1.2,25,2.4,25h30.2
	c1.3,0,2.4-1.1,2.4-2.5L35,2.3z M4.6,2.4H31L17.6,13.8L4.6,2.4z M13.4,13.3l4.1,3.6l3.9-3.4l9.1,9.1H4.1L13.4,13.3z M11.7,11.8
	l-9.2,9.2V3.8L11.7,11.8z M23.4,12l9.3-7.9v17.2L23.4,12z"/>
</svg>
