<?xml version="1.0" encoding="utf-8"?>
<!-- Generator: Adobe Illustrator 24.3.0, SVG Export Plug-In . SVG Version: 6.00 Build 0)  -->
<svg version="1.1" id="Слой_1" xmlns="http://www.w3.org/2000/svg" xmlns:xlink="http://www.w3.org/1999/xlink" x="0px" y="0px"
	 viewBox="0 0 340 283" style="enable-background:new 0 0 340 283;" xml:space="preserve">
<style type="text/css">
	.st0{fill:#4981EC;}
	.st1{fill:none;stroke:#4981EC;stroke-width:20;stroke-miterlimit:10;}
</style>
<path class="st0" d="M303.6,255.9h-69.3v-23h69.3c7.9,0,14.3-6.4,14.3-14.3V93.5c0-7.9-6.4-14.3-14.3-14.3H38.3
	c-7.9,0-14.3,6.4-14.3,14.3v125.1c0,7.9,6.4,14.3,14.3,14.3h74.1v23H38.3C17.7,255.9,1,239.2,1,218.6V93.5C1,73,17.7,56.2,38.3,56.2
	h265.3c20.6,0,37.3,16.7,37.3,37.3v125.1C340.9,239.2,324.1,255.9,303.6,255.9z"/>
<path class="st0" d="M285.2,79.2H58.4l30.1-59.6c6.1-12,18.2-19.5,31.6-19.5h103.3c13.4,0,25.6,7.5,31.6,19.5L285.2,79.2z
	 M95.8,56.2h152.1L234.6,30c-2.1-4.2-6.4-6.8-11.1-6.8H120.1c-4.7,0-9,2.6-11.1,6.8L95.8,56.2z"/>
<path class="st0" d="M172.2,231.1c-25.5,0-46.2-20.7-46.2-46.2s20.7-46.2,46.2-46.2c25.5,0,46.2,20.7,46.2,46.2
	S197.6,231.1,172.2,231.1z M172.2,161.7c-12.8,0-23.2,10.4-23.2,23.2s10.4,23.2,23.2,23.2c12.8,0,23.2-10.4,23.2-23.2
	S185,161.7,172.2,161.7z"/>
<path class="st0" d="M172.2,282.8c-54,0-98-43.9-98-98c0-54,43.9-98,98-98c54,0,98,43.9,98,98C270.1,238.9,226.2,282.8,172.2,282.8z
	 M172.2,109.9c-41.3,0-75,33.6-75,75s33.6,75,75,75c41.3,0,75-33.6,75-75S213.5,109.9,172.2,109.9z"/>
<path class="st1" d="M73.5,124H43.8c-2,0-3.6-1.6-3.6-3.6v-18.3c0-2,1.6-3.6,3.6-3.6h29.7c2,0,3.6,1.6,3.6,3.6v18.3
	C77.1,122.3,75.4,124,73.5,124z"/>
</svg>
