<?xml version="1.0" encoding="utf-8"?>
<!-- Generator: Adobe Illustrator 24.3.0, SVG Export Plug-In . SVG Version: 6.00 Build 0)  -->
<svg version="1.1" id="Слой_1" xmlns="http://www.w3.org/2000/svg" xmlns:xlink="http://www.w3.org/1999/xlink" x="0px" y="0px"
	 viewBox="0 0 50 50" style="enable-background:new 0 0 50 50;" xml:space="preserve">
<style type="text/css">
	.st0{fill:#6B7279;}
</style>
<path class="st0" d="M45.4,39.4c2.9-4.1,4.6-9,4.6-14.4c0-12.8-9.7-23.4-22.1-24.8h-0.1c-0.4,0-0.8-0.1-1.2-0.1c-0.1,0-0.1,0-0.2,0
	c-0.5,0-0.9,0-1.4,0l0,0l0,0h-0.1c-0.4,0-0.9,0-1.3,0c-0.1,0-0.3,0-0.4,0c-0.3,0-0.7,0-1,0.1c-0.1,0-0.2,0-0.3,0
	c-0.4,0-0.7,0.1-1.1,0.2c-0.1,0-0.1,0-0.2,0c-0.4,0.1-0.8,0.2-1.2,0.3l0,0C8.3,3.2,0,13.1,0,25c0,13.8,11.2,25,25,25c0,0,0,0,0.1,0
	l0,0c0.3,0,0.5,0,0.8,0c0.1,0,0.3,0,0.4,0c0.4,0,0.8-0.1,1.2-0.1l0,0c3.6-0.4,7.1-1.5,10.2-3.4c0.1-0.1,0.2-0.1,0.4-0.2
	c0.2-0.1,0.4-0.3,0.6-0.4c0.2-0.1,0.4-0.3,0.6-0.4c0.1-0.1,0.2-0.2,0.3-0.2c2.1-1.5,3.9-3.3,5.4-5.4L45.4,39.4L45.4,39.4z M37,43.9
	c-0.2,0.1-0.3,0.2-0.5,0.3c-0.3,0.2-0.5,0.3-0.8,0.4c0,0-0.1,0-0.1,0.1c-2.8,1.5-6,2.5-9.4,2.7v-13c5.9,0.2,11.3,2.1,15.6,5.3
	c-1.3,1.5-2.8,2.8-4.4,3.9C37.3,43.8,37.2,43.8,37,43.9z M2.6,26.5h21.1v5.3c-6.4,0.3-12.4,2.4-17.1,6C4.3,34.6,2.9,30.7,2.6,26.5z
	 M6.6,12.2c4.7,3.6,10.7,5.7,17.1,5.9V24H2.6C2.8,19.6,4.2,15.6,6.6,12.2z M22.6,2.7c0.3,0,0.6-0.1,0.9-0.1c0.1,0,0.1,0,0.2,0v13
	c-5.8-0.2-11.2-2.1-15.5-5.3c3.7-4.3,8.8-7,14.3-7.6H22.6z M47.4,24H26.3v-5.8c6.4-0.2,12.4-2.3,17.2-6C45.8,15.6,47.2,19.6,47.4,24
	z M26.3,2.6c6,0.3,11.5,3.1,15.5,7.7c-4.3,3.2-9.7,5.1-15.5,5.3V2.6z M23.7,47.4c-5.9-0.4-11.4-3.1-15.4-7.6
	c4.2-3.2,9.6-5.1,15.4-5.3V47.4z M26.3,31.8v-5.3h21.1c-0.3,4.1-1.7,8-3.9,11.2C38.7,34.1,32.7,32.1,26.3,31.8z"/>
</svg>
