<?xml version="1.0" encoding="utf-8"?>
<!-- Generator: Adobe Illustrator 25.0.0, SVG Export Plug-In . SVG Version: 6.00 Build 0)  -->
<svg version="1.1" id="Слой_1" xmlns="http://www.w3.org/2000/svg" xmlns:xlink="http://www.w3.org/1999/xlink" x="0px" y="0px"
	 viewBox="0 0 472 570" style="enable-background:new 0 0 472 570;" xml:space="preserve">
<style type="text/css">
	.st0{fill:none;stroke:#FFFFFF;stroke-width:1.8154;stroke-linecap:round;stroke-linejoin:round;stroke-miterlimit:10;}
	.st1{fill:none;stroke:#FFFFFF;stroke-width:2.4199;stroke-linecap:round;stroke-linejoin:round;stroke-miterlimit:10;}
	.st2{fill:none;stroke:#FFFFFF;stroke-width:0.605;stroke-linecap:round;stroke-linejoin:round;stroke-miterlimit:10;}
	
		.st3{fill:none;stroke:#FFFFFF;stroke-width:0.605;stroke-linecap:round;stroke-linejoin:round;stroke-miterlimit:10;stroke-dasharray:9.6795,9.6795;}
	
		.st4{fill:none;stroke:#000000;stroke-width:0.605;stroke-linecap:round;stroke-linejoin:round;stroke-miterlimit:10;stroke-dasharray:14.5192,4.8397;}
	.st5{fill:#FFFFFF;}
	.st6{enable-background:new    ;}
</style>
<line class="st0" x1="418.3" y1="379.2" x2="418.3" y2="368.2"/>
<g>
	<line class="st1" x1="400.4" y1="459.9" x2="400.4" y2="464"/>
	<line class="st1" x1="395.2" y1="465.3" x2="395.2" y2="461.2"/>
	<g>
		<line class="st1" x1="383.3" y1="399.4" x2="358.3" y2="385"/>
		<line class="st1" x1="383.3" y1="399.4" x2="358" y2="384.9"/>
		<line class="st1" x1="418.2" y1="381.6" x2="418.2" y2="516.5"/>
		<line class="st1" x1="383.1" y1="400.7" x2="383.1" y2="537"/>
		<line class="st1" x1="383.1" y1="400.7" x2="358.3" y2="386.5"/>
		<line class="st1" x1="383.1" y1="537" x2="358" y2="521.6"/>
		<line class="st1" x1="358" y1="384.9" x2="358" y2="398.8"/>
		<line class="st1" x1="358" y1="416.5" x2="358" y2="521.6"/>
		<line class="st1" x1="358" y1="384.9" x2="358" y2="375.8"/>
		<line class="st1" x1="383.3" y1="399.4" x2="383.3" y2="387.8"/>
		<line class="st1" x1="358" y1="375.8" x2="383.3" y2="387.8"/>
		<line class="st1" x1="418.2" y1="367.7" x2="393" y2="355.6"/>
		<path class="st1" d="M383.1,537c19.2,0.1,35-7.6,35-20.6"/>
		<path class="st1" d="M383.1,400.7c11.9-0.1,35.1-2.9,35.1-21.5"/>
		<path class="st1" d="M383.3,399.4c11.9-0.1,35-1.6,35-20.2"/>
		<path class="st1" d="M383.3,387.8c20.9-0.7,35.3-10,35-19.6"/>
		<path class="st1" d="M358,375.8c0-11,15.9-20.2,35-20.2"/>
	</g>
	<path class="st1" d="M395.2,461.3c0-2.5,5.2-3.1,5.2-1.5"/>
	<path class="st1" d="M400.4,464c0,2.3-5.2,3.5-5.2,1.3"/>
</g>
<path class="st2" d="M363.9,402.2c3.4-8,12.5,0.5,12.8,7.4"/>
<path class="st2" d="M363.9,402.2c4.2-5,9.7,2.8,10.2,5.8"/>
<path class="st2" d="M365.9,403.3c1.7-2.1,5.3,0.6,6.7,3.9"/>
<g>
	<g id="XMLID_32_">
		<g>
			<line class="st2" x1="264.9" y1="352.5" x2="267.9" y2="361.6"/>
			<line class="st2" x1="236.8" y1="343.9" x2="239.8" y2="338.1"/>
			<line class="st2" x1="267.9" y1="361.6" x2="236.8" y2="343.9"/>
			<line class="st2" x1="239.9" y1="337.9" x2="264.9" y2="352.5"/>
			<line class="st0" x1="9.8" y1="204.8" x2="7.5" y2="203.6"/>
			<polyline class="st2" points="322.4,385.6 322.4,385.7 319.4,391.4 			"/>
			<line class="st2" x1="294.4" y1="377.1" x2="291.5" y2="367.8"/>
			<line class="st2" x1="291.5" y1="367.8" x2="322.3" y2="385.6"/>
			<line class="st2" x1="319.4" y1="391.5" x2="294.4" y2="377.1"/>
			<polyline class="st2" points="373.6,424 318.9,392.4 236.3,344.7 209.8,329.3 158.1,299.6 100.7,266.3 19.8,219.7 9.8,213.9 			
				"/>
			<line class="st0" x1="9.8" y1="213.9" x2="9.8" y2="204.8"/>
			<line class="st1" x1="377.6" y1="410" x2="14.3" y2="200.4"/>
			<polyline class="st2" points="9.8,204.8 45.5,225.4 104.3,259.3 155.8,289.2 213.4,322.3 240.1,337.7 322.6,385.4 373.6,414.9 
							"/>
			<line class="st1" x1="9.8" y1="215.4" x2="373.6" y2="425.4"/>
			<polyline class="st0" points="373.6,425.4 373.6,424 373.6,423 373.6,414.9 			"/>
			<polyline class="st0" points="373.6,414.9 373.6,414.9 375.7,416.1 			"/>
			<line class="st0" x1="376.5" y1="423.1" x2="376.7" y2="422.9"/>
			<line class="st0" x1="376.7" y1="422.9" x2="376.8" y2="421.3"/>
			<polyline class="st0" points="376.8,421.3 376.7,420.3 376.7,419.6 			"/>
			<polyline class="st2" points="213.3,322.7 213.3,322.7 210.3,328.5 			"/>
			<line class="st2" x1="185.2" y1="314.1" x2="182.2" y2="304.8"/>
			<line class="st2" x1="182.2" y1="304.8" x2="213.2" y2="322.7"/>
			<polyline class="st2" points="210.3,328.5 210.3,328.5 185.2,314.1 			"/>
			<line class="st2" x1="155.7" y1="289.4" x2="158.7" y2="298.7"/>
			<line class="st2" x1="127.8" y1="280.8" x2="130.7" y2="275"/>
			<line class="st2" x1="158.6" y1="298.7" x2="127.8" y2="280.8"/>
			<line class="st2" x1="130.8" y1="275" x2="155.7" y2="289.4"/>
			<line class="st2" x1="104.2" y1="259.7" x2="101.2" y2="265.5"/>
			<line class="st2" x1="76.1" y1="251.1" x2="73.1" y2="241.7"/>
			<line class="st2" x1="73.1" y1="241.7" x2="104.2" y2="259.7"/>
			<line class="st2" x1="101" y1="265.5" x2="76.1" y2="251.1"/>
			<path class="st1" d="M9.8,204.8c0-2.5,2.1-5,4.2-4.6c0,0,0,0,0.1,0"/>
			<path class="st0" d="M8.1,213.8c-1-0.6-2.3-6.9-0.6-10.2"/>
			<path class="st0" d="M9.8,215.4c0-0.8,0-1.5,0-1.5"/>
			<path class="st0" d="M9.8,215.4c-0.6-0.4-1.2-0.7-1.7-1.6"/>
			<path class="st1" d="M7.5,203.6c1.6-2.7,4.4-4.7,6.5-3.4c0,0,0.1,0,0.1,0.1"/>
			<path class="st0" d="M373.6,414.9c0-1.9,1.6-4.8,4-4.8"/>
			<path class="st0" d="M375.7,416.1c0-0.1,0-0.1,0-0.2c-1-4.8,1.3-6.2,3.5-4.8"/>
			<path class="st0" d="M379.2,411c4,4.1,2.2,11.5,1.6,12.5"/>
			<path class="st0" d="M375.4,426.4c0.4,0.1,0.7,0.1,1,0"/>
			<path class="st0" d="M373.6,425.4c0.6,0.4,1.2,0.8,1.9,1"/>
			<path class="st0" d="M376.4,426.5c2.2-0.6,3.8-2.1,4.2-3"/>
			<path class="st1" d="M375.7,415.7C375.7,415.9,375.7,415.9,375.7,415.7c0.6,1.7,0.8,3.1,1.1,4.6c0.4,3.5-0.5,6-1.2,6l0,0l0,0"/>
			<path class="st0" d="M379.2,411c-0.6-0.5-1.2-0.8-1.6-1"/>
			<path class="st2" d="M45.5,225.4c0.5,0.2,0.8,0.7,1,1.2l1.8,5.9c0.4,1-0.7,1.9-1.7,1.3l-26.3-15c-0.7-0.5-1.1-1.5-0.6-2.2
				l2.1-3.9c0.2-0.4,0.7-0.6,1.1-0.4L45.5,225.4z"/>
			<polygon class="st2" points="30,223.6 30,217.5 31.9,218.6 31.9,220.1 31,219.5 31,220.3 31.8,220.9 31.8,222.3 31,221.7 
				31,222.6 31.9,223.2 31.9,224.7 			"/>
			<path class="st2" d="M28.7,216.8L28.7,216.8l-1.3-0.7v5.9l0.8,0.5v-1.9l0.4,0.2h0.1c1,0.5,1.2-0.6,1.2-1.3
				C29.8,218.6,29.5,217.3,28.7,216.8z"/>
			<path class="st2" d="M28.6,219.5L28.6,219.5l-0.1-0.1l-0.2-0.1V218l0.2,0.1h0.1c0.4,0.2,0.4,0.6,0.4,0.8S28.9,219.5,28.6,219.5z"
				/>
			<path class="st2" d="M37.6,222.7v1.1c-0.1-0.4-0.4-1-0.7-1.1c-0.5-0.2-0.8,0.4-0.8,1.2c0,1.1,0.4,1.8,0.8,2.1
				c0.4,0.2,0.6,0,0.7-0.2v1.7c-0.1,0.1-0.1,0.1-0.2,0.1h-0.1c-0.1,0-0.4-0.1-0.5-0.1c-0.8-0.5-1.6-2.1-1.6-4.1
				c0-2.1,0.8-2.8,1.6-2.3c0.2,0.1,0.6,0.5,0.8,1V222.7L37.6,222.7z"/>
			<path class="st2" d="M40.5,227.3c0-1.2-0.4-2.4-1.3-2.9c-0.8-0.5-1.3,0.2-1.3,1.5s0.4,2.4,1.3,2.9
				C40,229.4,40.5,228.6,40.5,227.3z"/>
			<path class="st2" d="M39.7,227c0,0.1,0,1.1-0.5,0.8c-0.2-0.1-0.4-0.4-0.4-0.6c-0.1-0.4-0.1-0.7-0.1-0.8c0-0.6,0.1-1.1,0.5-0.8
				C39.4,225.7,39.7,226.3,39.7,227z"/>
			<path class="st2" d="M34.2,223.8c0.5-0.1,0.6-0.8,0.6-1.5c0-0.5-0.1-1.1-0.4-1.6c-0.1-0.4-0.4-0.7-0.7-1l-0.1-0.1l-1.3-0.7v5.9
				l0.8,0.5v-1.9l0.4,1.1l0.4,1.2l1.1,0.6L34.2,223.8z"/>
			<path class="st2" d="M33.8,222.5C33.6,222.5,33.6,222.5,33.8,222.5L33.8,222.5l-0.4-0.1v-1.5l0.2,0.1h0.1c0.4,0.2,0.4,0.6,0.4,1
				C34,222.1,34,222.6,33.8,222.5z"/>
			<line class="st2" x1="349.5" y1="408.1" x2="349.1" y2="407.9"/>
			<path class="st2" d="M368.3,419.7l-26.4-15c-0.7-0.5-1.1-1.5-0.6-2.2l2.1-3.9c0.2-0.4,0.7-0.6,1.1-0.4l22.6,12.9
				c0.5,0.2,0.8,0.7,1,1.2l1.8,5.9C370.2,419.5,369.2,420.3,368.3,419.7z"/>
			<polygon class="st2" points="351.6,409.3 351.7,403.4 353.5,404.5 353.5,405.9 352.6,405.3 352.6,406.2 353.4,406.7 353.4,408 
				352.6,407.5 352.6,408.5 353.5,409 353.5,410.4 			"/>
			<path class="st2" d="M350.3,402.5L350.3,402.5l-1.3-0.7v5.9l0.8,0.5v-1.9l0.4,0.2l0.1,0.1c1,0.5,1.2-0.6,1.2-1.3
				C351.4,404.5,351.1,403.2,350.3,402.5z"/>
			<path class="st2" d="M350.3,405.2C350.2,405.2,350.2,405.2,350.3,405.2l-0.1-0.1L350,405v-1.3l0.2,0.1h0.1
				c0.4,0.2,0.4,0.6,0.4,0.8C350.5,404.8,350.5,405.3,350.3,405.2z"/>
			<path class="st2" d="M359.2,413.3c-0.2,0.2-0.6,0.1-0.8,0c-0.8-0.5-1.6-2.1-1.6-4.1c0-2.1,0.8-2.8,1.6-2.3c0.2,0.1,0.6,0.5,0.8,1
				v1.7c-0.1-0.4-0.4-1-0.7-1.1c-0.5-0.2-0.8,0.4-0.8,1.2c0,1.1,0.4,1.8,0.8,2.1c0.4,0.2,0.6,0,0.7-0.2V413.3z"/>
			<path class="st2" d="M362.1,413.2c0-1.2-0.4-2.4-1.3-2.9c-0.8-0.5-1.3,0.2-1.3,1.5s0.5,2.4,1.3,2.9
				C361.6,415.1,362.1,414.4,362.1,413.2z"/>
			<path class="st2" d="M361.3,412.7c0,0.1,0,1.1-0.5,0.8c-0.5-0.2-0.5-1.2-0.5-1.5c0-0.6,0.1-1.1,0.5-0.8
				C361.2,411.5,361.3,412.1,361.3,412.7z"/>
			<path class="st2" d="M355.8,409.6c0.5-0.1,0.6-0.8,0.6-1.5s-0.2-2.1-1.1-2.5c-0.1,0-0.1-0.1-0.1-0.1l-1.3-0.7v5.9l0.8,0.5v-1.9
				l0.4,1.1l0.4,1.2l1.1,0.6L355.8,409.6z"/>
			<path class="st2" d="M355.4,408.4C355.2,408.4,355.2,408.4,355.4,408.4h-0.1l-0.2-0.1v-1.5l0.2,0.1c0,0,0.1,0,0.1,0.1
				c0.2,0.2,0.4,0.6,0.4,0.8C355.6,408,355.6,408.4,355.4,408.4z"/>
		</g>
	</g>
</g>
<line class="st2" x1="368.8" y1="136" x2="362.3" y2="128.7"/>
<line class="st2" x1="368.8" y1="136" x2="362.3" y2="128.7"/>
<line class="st2" x1="362.3" y1="164.6" x2="368.8" y2="164.8"/>
<line class="st3" x1="362.3" y1="128.7" x2="362.3" y2="128.7"/>
<line class="st2" x1="362.3" y1="128.7" x2="362.3" y2="164.6"/>
<line class="st2" x1="368.8" y1="164.8" x2="368.8" y2="136"/>
<line class="st3" x1="368.8" y1="164.8" x2="368.8" y2="164.8"/>
<line class="st3" x1="368.8" y1="136" x2="368.8" y2="136"/>
<line class="st2" x1="369.2" y1="430.6" x2="369" y2="433.2"/>
<line class="st4" x1="368.8" y1="388" x2="368.8" y2="388"/>
<line class="st2" x1="368.8" y1="69.5" x2="362.3" y2="69.2"/>
<line class="st2" x1="362.3" y1="98" x2="368.8" y2="105.3"/>
<line class="st2" x1="368.8" y1="69.6" x2="362.1" y2="69.2"/>
<line class="st3" x1="368.8" y1="105.3" x2="368.8" y2="105.3"/>
<line class="st2" x1="368.8" y1="105.3" x2="368.8" y2="69.6"/>
<line class="st3" x1="368.8" y1="69.5" x2="368.8" y2="69.5"/>
<line class="st2" x1="362.1" y1="69.2" x2="362.3" y2="98"/>
<line class="st3" x1="362.1" y1="69.2" x2="362.1" y2="69.2"/>
<line class="st2" x1="368.8" y1="388" x2="362.3" y2="380.8"/>
<line class="st4" x1="362.1" y1="380.8" x2="362.1" y2="380.8"/>
<line class="st2" x1="362.1" y1="380.8" x2="362.3" y2="416.6"/>
<line class="st2" x1="368.8" y1="416.8" x2="368.8" y2="388"/>
<line class="st2" x1="368.4" y1="44.9" x2="363" y2="44.6"/>
<line class="st3" x1="368.8" y1="44.6" x2="368.9" y2="44.3"/>
<line class="st2" x1="368.8" y1="44.4" x2="368.8" y2="17.4"/>
<line class="st3" x1="368.9" y1="44.3" x2="368.8" y2="44.4"/>
<line class="st3" x1="368.8" y1="44.4" x2="368.7" y2="44.8"/>
<line class="st3" x1="368.7" y1="44.8" x2="368.4" y2="44.9"/>
<line class="st3" x1="363" y1="44.6" x2="362.6" y2="44.4"/>
<line class="st3" x1="362.6" y1="44.4" x2="362.3" y2="43.9"/>
<line class="st3" x1="362.3" y1="43.9" x2="362.1" y2="43.4"/>
<line class="st2" x1="363.2" y1="10.4" x2="368.7" y2="16.5"/>
<line class="st3" x1="363" y1="10.5" x2="363.2" y2="10.4"/>
<line class="st3" x1="363.2" y1="10.4" x2="362.9" y2="10.2"/>
<line class="st3" x1="362.9" y1="10.2" x2="362.5" y2="10.2"/>
<line class="st2" x1="362.1" y1="10.6" x2="362.1" y2="43.4"/>
<line class="st3" x1="362.1" y1="10.6" x2="362.3" y2="10.4"/>
<line class="st3" x1="362.3" y1="10.4" x2="362.5" y2="10.3"/>
<line class="st3" x1="362.5" y1="10.3" x2="363" y2="10.5"/>
<line class="st3" x1="368.8" y1="17.4" x2="369" y2="17.3"/>
<line class="st3" x1="369" y1="17.3" x2="368.9" y2="16.9"/>
<line class="st3" x1="368.9" y1="16.9" x2="368.7" y2="16.5"/>
<line class="st3" x1="368.7" y1="16.5" x2="368.4" y2="16.6"/>
<line class="st3" x1="368.4" y1="16.6" x2="368.7" y2="17.1"/>
<line class="st3" x1="368.7" y1="17.1" x2="368.8" y2="17.4"/>
<line class="st3" x1="368.8" y1="44.6" x2="368.5" y2="44.8"/>
<line class="st3" x1="362.3" y1="10.3" x2="362.5" y2="10.2"/>
<line class="st3" x1="361.3" y1="6" x2="361.3" y2="6"/>
<line class="st3" x1="361.3" y1="6" x2="361.3" y2="426.1"/>
<line class="st3" x1="362.1" y1="6.5" x2="361.3" y2="6"/>
<line class="st3" x1="362.1" y1="6.5" x2="362.1" y2="6.5"/>
<line class="st2" x1="361.3" y1="426.1" x2="369.2" y2="430.6"/>
<line class="st3" x1="375.3" y1="9.6" x2="375.2" y2="429"/>
<line class="st3" x1="369.2" y1="430.6" x2="369.2" y2="10.5"/>
<line class="st3" x1="360" y1="425.4" x2="360" y2="5.3"/>
<line class="st3" x1="360" y1="5.3" x2="369" y2="10.5"/>
<line class="st3" x1="369.2" y1="10.5" x2="369.2" y2="8.1"/>
<line class="st3" x1="363.5" y1="3.9" x2="363.7" y2="3.9"/>
<line class="st3" x1="363.7" y1="3.9" x2="365" y2="4.6"/>
<line class="st3" x1="365" y1="4.6" x2="366.5" y2="5.6"/>
<line class="st2" x1="368.8" y1="195.5" x2="362.3" y2="195.2"/>
<line class="st2" x1="362.3" y1="224.1" x2="368.8" y2="231.3"/>
<line class="st2" x1="368.8" y1="195.5" x2="362.3" y2="195.2"/>
<line class="st3" x1="368.8" y1="231.3" x2="368.8" y2="231.3"/>
<line class="st2" x1="368.8" y1="231.3" x2="368.8" y2="195.5"/>
<line class="st3" x1="368.8" y1="195.5" x2="368.8" y2="195.5"/>
<line class="st2" x1="362.3" y1="195.2" x2="362.3" y2="224.1"/>
<line class="st3" x1="362.3" y1="195.2" x2="362.3" y2="195.2"/>
<line class="st2" x1="368.8" y1="262" x2="362.3" y2="254.7"/>
<line class="st2" x1="368.8" y1="262" x2="362.1" y2="254.8"/>
<line class="st2" x1="362.3" y1="290.5" x2="368.8" y2="290.9"/>
<line class="st3" x1="362.1" y1="254.8" x2="362.1" y2="254.8"/>
<line class="st2" x1="362.1" y1="254.8" x2="362.3" y2="290.5"/>
<line class="st2" x1="368.8" y1="290.7" x2="368.8" y2="262"/>
<line class="st3" x1="368.8" y1="290.9" x2="368.8" y2="290.9"/>
<line class="st3" x1="368.8" y1="262" x2="368.8" y2="262"/>
<line class="st2" x1="368.8" y1="321.6" x2="362.3" y2="321.2"/>
<line class="st2" x1="362.3" y1="350.2" x2="368.8" y2="357.3"/>
<line class="st2" x1="368.8" y1="321.6" x2="362.1" y2="321.2"/>
<line class="st4" x1="368.8" y1="357.3" x2="368.8" y2="357.3"/>
<line class="st2" x1="368.8" y1="357.3" x2="368.8" y2="321.6"/>
<line class="st3" x1="368.8" y1="321.6" x2="368.8" y2="321.6"/>
<line class="st2" x1="362.1" y1="321.2" x2="362.3" y2="350.2"/>
<line class="st3" x1="362.1" y1="321.2" x2="362.1" y2="321.2"/>
<path class="st2" d="M369.2,430.6c2.2,1.2,5.4,0.7,6.2-1.5"/>
<path class="st2" d="M360.4,427.6c0.1,1.1,4.8,5.4,8.6,5.6"/>
<path class="st2" d="M360,425.4c0.7,0.4,1.2,0.7,1.2,0.7"/>
<path class="st2" d="M360,425.4c0,0.6,0,1.3,0.5,2.3"/>
<path class="st2" d="M369,433.2c3.1,0,6.4-1.3,6.2-4.1"/>
<path class="st3" d="M369.2,10.5c1.7,1,5,1.1,6.2-1.1"/>
<path class="st3" d="M369.2,8.1c3.9,3.4,6.2,2.1,6.2-0.5"/>
<path class="st3" d="M375.2,7.6c-1.6-5.6-8.8-7.6-10-7.6"/>
<path class="st3" d="M360,5.3c-0.1-1.1-0.1-2.4,0.5-3"/>
<path class="st3" d="M360.4,2.3c1.6-1.7,3.8-2.3,4.7-2.2"/>
<path class="st3" d="M369.3,8.3c-4.1-4.7-8.8-6-9.3-5.2"/>
<path class="st3" d="M375.2,7.6c0.1,0.7,0.1,1.5,0,1.8"/>
<line class="st2" x1="358" y1="521.6" x2="416" y2="557.7"/>
<line class="st2" x1="418.2" y1="516.5" x2="468.7" y2="545.8"/>
<line class="st2" x1="417.5" y1="396.4" x2="438" y2="407.7"/>
<line class="st2" x1="360.2" y1="411.6" x2="396.1" y2="434"/>
<line class="st2" x1="448" y1="381.9" x2="448" y2="533.8"/>
<line class="st2" x1="464.5" y1="50.7" x2="464.5" y2="543.4"/>
<line class="st2" x1="417.5" y1="366.9" x2="453.2" y2="384.4"/>
<line class="st2" x1="411.5" y1="554.9" x2="447.3" y2="533.9"/>
<line class="st2" x1="391.7" y1="431.2" x2="434.7" y2="406.1"/>
<line class="st2" x1="368.2" y1="361.3" x2="394.9" y2="345.7"/>
<line class="st2" x1="405.6" y1="382.9" x2="437" y2="364.6"/>
<line class="st2" x1="391.9" y1="347.5" x2="434.2" y2="366.2"/>
<line class="st2" x1="367.9" y1="3.1" x2="471.1" y2="54"/>
<line class="st2" x1="6.7" y1="209.9" x2="6.7" y2="318.2"/>
<line class="st2" x1="0" y1="322.1" x2="24.8" y2="307.6"/>
<line class="st2" x1="375.9" y1="550.5" x2="409.9" y2="531"/>
<line class="st2" x1="382.6" y1="546.8" x2="6.7" y2="318.2"/>
<g id="XMLID_30_">
	<g>
		<path class="st5" d="M466.6,530.2l-2.1,13.2l-2.1-13.2C462.4,530.2,464.5,533.8,466.6,530.2z"/>
	</g>
</g>
<g id="XMLID_29_">
	<g>
		<path class="st5" d="M450.1,520.2l-2.1,13.2l-2.1-13.2C446,520.2,448,523.8,450.1,520.2z"/>
	</g>
</g>
<g id="XMLID_28_">
	<g>
		<path class="st5" d="M446,395l2.1-13.2l2.1,13.2C450.1,395,448,391.4,446,395z"/>
	</g>
</g>
<g id="XMLID_27_">
	<g>
		<path class="st5" d="M462.4,63.9l2.1-13.2l2.1,13.2C466.6,63.9,464.5,60.3,462.4,63.9z"/>
	</g>
</g>
<g id="XMLID_26_">
	<g>
		<path class="st5" d="M434.9,538.8l12.5-4.8l-10.4,8.3C436.9,542.3,439,538.7,434.9,538.8z"/>
	</g>
</g>
<g id="XMLID_25_">
	<g>
		<path class="st5" d="M422.3,410.9l12.5-4.8l-10.4,8.3C424.3,414.4,426.4,410.8,422.3,410.9z"/>
	</g>
</g>
<g id="XMLID_24_">
	<g>
		<path class="st5" d="M424,550l-12.5,4.8l10.4-8.3C421.9,546.5,419.8,550,424,550z"/>
	</g>
</g>
<g id="XMLID_23_">
	<g>
		<path class="st5" d="M404.1,426.5l-12.5,4.8L402,423C402.1,422.9,400,426.5,404.1,426.5z"/>
	</g>
</g>
<g id="XMLID_22_">
	<g>
		<path class="st5" d="M372.8,537.8l9.9,9l-12.2-5.4C370.6,541.3,374.7,541.6,372.8,537.8z"/>
	</g>
</g>
<g id="XMLID_21_">
	<g>
		<path class="st5" d="M16.7,327.2l-9.9-9l12.2,5.4C18.9,323.8,14.8,323.5,16.7,327.2z"/>
	</g>
</g>
<g id="XMLID_20_">
	<g>
		<path class="st5" d="M423,358.6l11.1,7.5l-12.8-3.8C421.3,362.4,425.4,362.1,423,358.6z"/>
	</g>
</g>
<g id="XMLID_19_">
	<g>
		<path class="st5" d="M403.3,355.1l-11.1-7.5l12.8,3.8C405,351.4,400.9,351.7,403.3,355.1z"/>
	</g>
</g>
<line class="st2" x1="315.1" y1="391.9" x2="315.1" y2="506.2"/>
<g id="XMLID_18_">
	<g>
		<path class="st5" d="M317.1,492.6l-2.1,13.2l-2.1-13.2C313,492.6,315.1,496.2,317.1,492.6z"/>
	</g>
</g>
<g id="XMLID_17_">
	<g>
		<path class="st5" d="M313,405.6l2.1-13.2l2.1,13.2C317.1,405.6,315.1,401.9,313,405.6z"/>
	</g>
</g>
<g>
	<g class="st6">
		<path class="st5" d="M410.3,336.2c0.2-0.7,0.8-1.1,1.5-1.6c1.5-0.8,2.7-0.5,3.4-0.1c2.3,1,2.7,3.1,1.9,4.8
			c-0.5,0.8-1.3,1.9-2.7,1.9c0.2,0.2,1.5,1.6,0.5,3.8c-1,2.3-3.3,3-5.4,1.9c-1.3-0.6-2.5-1.7-2.4-3.5c0-0.6,0.1-1,0.2-1.5l1.3,0.6
			c-0.1,0.5-0.1,1-0.1,1.5c0.1,0.7,0.7,1.5,1.5,1.7c1.3,0.6,2.8,0,3.4-1.5c0.2-0.7,0.5-1.7-0.2-2.5c-0.2-0.2-0.8-0.7-1.3-0.8
			l0.6-1.1c0.5,0.2,1,0.5,1.6,0.5c0.5,0,1.3-0.2,1.8-1.3s0.2-2.3-1.1-3c-0.5-0.2-1.1-0.5-1.8,0c-0.5,0.1-0.7,0.6-1,1L410.3,336.2z"
			/>
		<path class="st5" d="M419.6,340.4c0.2-0.7,0.8-1.1,1.5-1.6c1.5-0.8,2.7-0.5,3.4-0.1c2.3,1,2.7,3.1,1.9,4.8
			c-0.5,0.8-1.3,1.9-2.7,1.9c0.2,0.2,1.5,1.6,0.5,3.8c-1,2.3-3.3,3-5.4,1.9c-1.3-0.6-2.5-1.7-2.4-3.5c0-0.6,0.1-1,0.2-1.5l1.3,0.6
			c-0.1,0.5-0.1,1-0.1,1.5c0.1,0.7,0.7,1.5,1.5,1.7c1.3,0.6,2.8,0,3.4-1.5c0.2-0.7,0.5-1.7-0.2-2.5c-0.2-0.2-0.8-0.7-1.3-0.8
			l0.6-1.1c0.5,0.2,1,0.5,1.6,0.5c0.5,0,1.3-0.2,1.8-1.3s0.2-2.3-1.1-3c-0.5-0.2-1.1-0.5-1.8,0c-0.5,0.1-0.7,0.6-1,1L419.6,340.4z"
			/>
		<path class="st5" d="M427.1,352.7c-0.2-1.6,0-3.3,0.7-5s1.8-3.1,3.3-4c1.6-1,3-0.8,4-0.5c1,0.5,1.9,1.5,2.3,3.3
			c0.2,1.6,0,3.3-0.7,5s-1.8,3.1-3.3,4c-1.6,1-3,0.8-4,0.5C428.4,355.6,427.5,354.4,427.1,352.7z M431.8,345
			c-1.1,0.7-1.9,1.9-2.5,3.3c-0.6,1.3-1,2.7-0.7,4.1c0.1,1.3,0.8,1.9,1.5,2.3c0.6,0.2,1.6,0.2,2.7-0.5s1.9-1.9,2.5-3.3
			c0.6-1.3,1-2.7,0.7-4.1c-0.1-1.3-0.8-1.9-1.5-2.3C433.9,344.3,432.8,344.3,431.8,345z"/>
	</g>
</g>
<g>
	<g class="st6">
		<path class="st5" d="M304.4,453.2c2.2,0,3.9,1.5,3.9,4.1c0,2.7-1.8,4.1-3.9,4.1c-1.5,0-2.7-0.7-3.3-1.9c-0.6,1-1.7,1.6-2.8,1.6
			c-1.8,0-3.8-1.3-3.8-3.8c0-2.4,1.8-3.8,3.8-3.8c1.3,0,2.3,0.6,2.8,1.6C301.8,453.8,303,453.2,304.4,453.2z M298.2,455.1
			c-1.5,0-2.4,1-2.4,2.3s0.8,2.3,2.4,2.3c1.3,0,2.3-1,2.3-2.3S299.6,455.1,298.2,455.1z M304.4,454.6c-1.6,0-2.5,1.1-2.5,2.5
			c0,1.6,1,2.5,2.5,2.5s2.5-1,2.5-2.5C307,455.8,305.9,454.6,304.4,454.6z"/>
		<path class="st5" d="M308,451.3l-5.6-4.8c-0.5-0.2-1.5-1.3-1.9-1.6c-0.8-0.6-1.6-0.7-1.9-0.7c-1.6,0-2.5,1.1-2.5,2.7
			c0,1,0.5,1.7,1.1,2.3c0.5,0.2,0.8,0.5,1.6,0.5v1.5c-1.3,0-2.2-0.5-2.7-1c-0.6-0.6-1.5-1.6-1.5-3.1c0-2.4,1.7-4.1,4-4.1
			c0.8,0,1.7,0.2,2.8,1c0.7,0.6,1.6,1.3,2.3,1.8l3.1,2.7v-5.6h1.5v8.5L308,451.3L308,451.3z"/>
		<path class="st5" d="M306.4,439.3c-1.3,0.8-3,1.3-4.8,1.3s-3.5-0.5-4.8-1.3c-1.5-1-1.9-2.4-1.9-3.4s0.6-2.4,1.9-3.4
			c1.3-0.8,3-1.3,4.8-1.3s3.5,0.5,4.8,1.3c1.5,1,1.9,2.4,1.9,3.4C308.4,437,307.8,438.2,306.4,439.3z M297.4,438.2
			c1.1,0.7,2.7,1,4,1c1.5,0,2.8-0.2,4-1c1.1-0.7,1.5-1.6,1.5-2.3c0-0.7-0.5-1.6-1.5-2.3c-1.1-0.7-2.7-1-4-1c-1.5,0-2.8,0.2-4,1
			c-1.1,0.7-1.5,1.6-1.5,2.3C295.8,436.5,296.3,437.5,297.4,438.2z"/>
	</g>
</g>
<g>
	<g class="st6">
		<path class="st5" d="M445.3,297.8c-0.7,0-1.5-0.2-1.9-0.6c-1.5-0.8-1.6-2.3-1.6-3.1c0-2.5,1.7-3.8,3.5-3.8c1,0,2.3,0.5,3,1.7
			c0.1-0.5,0.8-1.8,3.3-1.8s4,1.8,4,4.1c0,1.5-0.6,3-2.3,3.8c-0.5,0.1-0.8,0.2-1.5,0.2v-1.5c0.5,0,1-0.2,1.3-0.5
			c0.6-0.5,1-1.3,1-1.9c0-1.5-1.3-2.5-2.7-2.5c-0.7,0-1.7,0.2-2.3,1.3c-0.1,0.5-0.2,1-0.2,1.6h-1.3c0-0.6,0-1.1-0.2-1.6
			s-0.7-1.1-1.9-1.1c-1.1,0-2.3,0.6-2.3,2.3c0,0.6,0.1,1.1,0.7,1.7c0.2,0.2,0.8,0.5,1.5,0.6L445.3,297.8L445.3,297.8L445.3,297.8z"
			/>
		<path class="st5" d="M451.4,278.5c2.2,0,3.9,1.5,3.9,4.1s-1.8,4.1-3.9,4.1c-1.5,0-2.7-0.7-3.3-1.9c-0.6,1-1.7,1.6-2.8,1.6
			c-1.8,0-3.8-1.3-3.8-3.8s1.8-3.8,3.8-3.8c1.3,0,2.3,0.6,2.8,1.6C448.9,279.3,450.1,278.5,451.4,278.5z M445.4,280.3
			c-1.5,0-2.4,1-2.4,2.3s0.8,2.3,2.4,2.3c1.3,0,2.3-1,2.3-2.3S446.6,280.3,445.4,280.3z M451.4,279.9c-1.6,0-2.5,1.1-2.5,2.5
			c0,1.5,1,2.5,2.5,2.5s2.5-1,2.5-2.5C454.1,281.1,453,279.9,451.4,279.9z"/>
		<path class="st5" d="M443.2,274.4v2.3l-1.5-0.7v-3h13.2v1.5L443.2,274.4L443.2,274.4z"/>
		<path class="st5" d="M453.5,267.4c-1.3,0.8-3,1.3-4.8,1.3s-3.5-0.5-4.8-1.3c-1.5-1-1.9-2.4-1.9-3.4s0.6-2.4,1.9-3.4
			c1.3-0.8,3-1.3,4.8-1.3s3.5,0.5,4.8,1.3c1.5,1,1.9,2.4,1.9,3.4S454.9,266.3,453.5,267.4z M444.5,266.3c1.1,0.7,2.7,1,4,1
			c1.5,0,2.8-0.2,4-1c1.1-0.7,1.5-1.6,1.5-2.3c0-0.7-0.5-1.6-1.5-2.3c-1.1-0.7-2.7-1-4-1c-1.5,0-2.8,0.2-4,1
			c-1.2,0.7-1.5,1.6-1.5,2.3C443.1,264.7,443.3,265.6,444.5,266.3z"/>
		<path class="st5" d="M441,249.1c1,0.5,2.2,0.7,3.4,1c1.7,0.5,3.3,0.6,5,0.6c1.6,0,3.1-0.1,4.8-0.5c1.3-0.2,2.5-0.6,3.8-1l0.6,1.3
			c-2.3,0.8-4.1,1.3-4.6,1.3c-1.5,0.2-3.1,0.5-4.7,0.5c-1.3,0-3.1-0.1-5.1-0.6c-1.3-0.2-2.7-0.7-3.9-1.1L441,249.1z"/>
		<path class="st5" d="M443.2,238.2v4.2l2.8,0.8c0-0.2-0.1-0.6-0.1-0.8c0-2.7,1.9-4.4,4.6-4.4c3,0,4.8,2.3,4.8,4.8
			c0,1.1-0.2,2.2-1,3c-0.5,0.5-0.8,0.8-1.5,1.1L452,246c0.5-0.2,0.7-0.6,1.1-0.8c0.5-0.6,0.8-1.3,0.8-2.2c0-1.8-1.6-3.3-3.4-3.3
			s-3.3,1.5-3.3,3.3c0,0.5,0.1,1.5,0.8,2.5l-6.4-1.9v-5.3h1.6V238.2z"/>
		<path class="st5" d="M443.2,233.9v2.3l-1.5-0.7v-3h13.2v1.5h-11.7V233.9z"/>
		<path class="st5" d="M443.2,227.1v2.3l-1.5-0.7v-3h13.2v1.5h-11.7V227.1z"/>
		<path class="st5" d="M453.5,220.1c-1.3,0.8-3,1.3-4.8,1.3s-3.5-0.5-4.8-1.3c-1.5-1-1.9-2.4-1.9-3.4s0.6-2.4,1.9-3.4
			c1.3-0.8,3-1.3,4.8-1.3s3.5,0.5,4.8,1.3c1.5,1,1.9,2.4,1.9,3.4C455.4,217.8,454.9,219.1,453.5,220.1z M444.5,219
			c1.1,0.7,2.7,1,4,1c1.5,0,2.8-0.2,4-1c1.1-0.7,1.5-1.6,1.5-2.3s-0.5-1.6-1.5-2.3c-1.1-0.7-2.7-1-4-1c-1.5,0-2.8,0.2-4,1
			c-1.1,0.7-1.5,1.6-1.5,2.3C443.1,217.4,443.3,218.3,444.5,219z"/>
		<path class="st5" d="M440.4,208.6c1-0.5,2.5-0.8,3.9-1.1c1.9-0.5,3.9-0.6,5.1-0.6c1.5,0,3.1,0.1,4.7,0.5c0.2,0,2.3,0.5,4.6,1.3
			l-0.6,1.3c-1.1-0.5-2.4-0.7-3.8-1c-1.8-0.5-3.3-0.5-4.8-0.5c-1.7,0-3.3,0.1-5,0.6c-1.5,0.2-2.5,0.7-3.4,1L440.4,208.6z"/>
	</g>
</g>
<g>
	<g class="st6">
		<path class="st5" d="M431.8,471.4v2.3l-1.5-0.7v-3h13.2v1.5L431.8,471.4L431.8,471.4z"/>
		<path class="st5" d="M441.9,464.3c-1.3,0.8-3,1.3-4.8,1.3s-3.5-0.5-4.8-1.3c-1.5-1-1.9-2.4-1.9-3.4s0.6-2.4,1.9-3.4
			c1.3-0.8,3-1.3,4.8-1.3s3.5,0.5,4.8,1.3c1.5,1,1.9,2.4,1.9,3.4C443.9,462,443.4,463.3,441.9,464.3z M433,463.3c1.1,0.7,2.7,1,4,1
			c1.5,0,2.8-0.2,4-1c1.1-0.7,1.5-1.6,1.5-2.3s-0.5-1.6-1.5-2.3c-1.1-0.7-2.7-1-4-1c-1.5,0-2.8,0.2-4,1c-1.2,0.7-1.5,1.6-1.5,2.3
			C431.6,461.6,431.9,462.6,433,463.3z"/>
		<path class="st5" d="M431.8,447.7v7.3h-1.5v-9.8L444,454l-0.7,1.1L431.8,447.7z"/>
		<path class="st5" d="M441.9,443.7c-1.3,0.8-3,1.3-4.8,1.3s-3.5-0.5-4.8-1.3c-1.5-1-1.9-2.4-1.9-3.4s0.6-2.4,1.9-3.4
			c1.3-0.8,3-1.3,4.8-1.3s3.5,0.5,4.8,1.3c1.5,1,1.9,2.4,1.9,3.4C443.9,441.4,443.4,442.7,441.9,443.7z M433,442.7
			c1.1,0.7,2.7,1,4,1c1.5,0,2.8-0.2,4-1c1.2-0.7,1.5-1.6,1.5-2.3c0-0.7-0.5-1.6-1.5-2.3c-1.1-0.7-2.7-1-4-1c-1.5,0-2.8,0.2-4,1
			c-1.1,0.7-1.5,1.6-1.5,2.3C431.6,441,431.9,442,433,442.7z"/>
	</g>
</g>
<g>
	<g class="st6">
		<path class="st5" d="M388.4,414.9c-0.2-0.7-0.5-1.5-0.5-1.9c0.1-1.6,1.1-2.5,1.8-2.8c2.2-1.3,4.1-0.5,5,1.3c0.5,0.8,0.8,2.2,0,3.4
			c0.5-0.1,2.2-0.1,3.3,1.8c1.3,2.2,0.5,4.4-1.6,5.6c-1.1,0.7-2.8,1-4.4-0.1c-0.5-0.2-0.7-0.7-1-1l1.3-0.7c0.2,0.5,0.7,0.7,1.1,0.8
			c0.7,0.2,1.6,0.2,2.3-0.1c1.3-0.7,1.7-2.4,0.8-3.8c-0.5-0.7-1.1-1.5-2.3-1.3c-0.5,0-1,0.2-1.5,0.6l-0.7-1.1c0.5-0.2,0.8-0.6,1.1-1
			c0.2-0.5,0.6-1.3,0-2.3s-1.7-1.7-3.1-0.8c-0.5,0.2-1,0.7-1.1,1.6c0,0.5,0,1,0.2,1.5L388.4,414.9z"/>
		<path class="st5" d="M402.3,404.7l-6.3,3.8l-0.7-1.1l8.3-4.8l-0.8,16.2l-1.5-0.1L402.3,404.7z"/>
		<path class="st5" d="M410.8,411.5c-1.5-0.7-2.7-1.9-3.5-3.5c-1-1.7-1.5-3.4-1.3-4.8c0.1-1.8,1-2.8,1.9-3.4c1-0.6,2.3-0.7,4,0
			c1.5,0.7,2.7,1.9,3.5,3.5c1,1.7,1.5,3.4,1.3,4.8c-0.1,1.8-1,2.8-1.9,3.4S412.5,412.3,410.8,411.5z M407.4,403.3
			c0,1.3,0.5,2.8,1.1,4c0.7,1.1,1.7,2.4,2.8,3c1.1,0.6,2.2,0.5,2.7,0.1c0.6-0.2,1.1-1.1,1.3-2.4c0-1.3-0.5-2.8-1.1-4
			c-0.7-1.3-1.7-2.4-2.8-3c-1.1-0.6-2.2-0.5-2.7-0.1C408,401.1,407.4,401.9,407.4,403.3z"/>
	</g>
</g>
<g>
	<g class="st6">
		<path class="st5" d="M431.5,570l1.5-7.3c0.1-0.6,0.2-1.8,0.5-2.4c0.1-1-0.1-1.7-0.5-2.2c-0.7-1.3-2.3-1.7-3.5-0.8
			c-0.8,0.5-1.3,1.3-1.3,2.2c0,0.5,0.1,1,0.5,1.6l-1.3,0.7c-0.6-1.1-0.7-2.2-0.6-2.8c0.1-0.8,0.6-1.9,1.9-2.7
			c1.9-1.1,4.4-0.6,5.6,1.5c0.5,0.7,0.6,1.6,0.6,3c-0.1,1-0.2,1.9-0.5,2.8l-0.8,4.1l4.8-2.8l0.7,1.1L431.5,570z"/>
		<path class="st5" d="M446.2,557.2c1,1.8,0.7,4.1-1.6,5.4c-2.3,1.5-4.4,0.5-5.4-1.3c-0.7-1.3-0.7-2.5,0.1-3.9
			c-1.3,0-2.3-0.7-2.8-1.7c-1-1.7-0.7-3.9,1.3-5c2.2-1.1,4.1-0.2,5,1.5c0.6,1.1,0.7,2.3,0,3.3C444.4,555.2,445.5,556,446.2,557.2z
			 M441.7,552.8c-0.7-1.3-2.2-1.6-3.1-0.8c-1,0.6-1.6,1.8-0.8,3.1c0.7,1.1,1.9,1.6,3.1,0.8C442,555.2,442.2,553.9,441.7,552.8z
			 M445,557.9c-0.7-1.3-2.2-1.7-3.5-0.8c-1.3,0.8-1.7,2.2-1,3.5s2.3,1.7,3.5,1C445.4,560.7,445.6,559.2,445,557.9z"/>
		<path class="st5" d="M450.1,545.4l-6.3,3.8l-0.7-1.1l8.3-4.8l-0.8,16.2l-1.5-0.1L450.1,545.4z"/>
	</g>
</g>
<g>
	<path class="st5" d="M111.4,362.3c0.4-0.6,1-1.1,1.5-1.4c1.5-0.7,2.8-0.2,3.5,0.2c2.2,1.3,2.4,3.4,1.4,5c-0.5,0.8-1.5,1.8-3,1.7
		c0.3,0.4,1.2,1.8,0,3.8c-1.3,2.2-3.6,2.5-5.6,1.4c-1.2-0.7-2.3-2-2-3.9c0.1-0.5,0.2-0.9,0.4-1.4l1.3,0.7c-0.2,0.4-0.3,1-0.3,1.4
		c0.1,0.8,0.5,1.5,1.3,1.9c1.3,0.7,2.9,0.3,3.6-1c0.4-0.7,0.6-1.7,0-2.6c-0.3-0.4-0.7-0.8-1.2-1l0.7-1.1c0.4,0.3,1,0.5,1.5,0.5
		c0.5,0,1.4-0.1,2-1.1c0.6-1,0.6-2.3-0.8-3.1c-0.5-0.3-1.1-0.5-1.9-0.2c-0.4,0.2-0.8,0.5-1.2,0.9L111.4,362.3z"/>
	<path class="st5" d="M122.6,366.7l-1.9-1.1l1.4-0.8l2.5,1.5l-6.7,11.5l-1.3-0.7L122.6,366.7z"/>
	<path class="st5" d="M123.6,379c-0.1-1.5,0.4-3.3,1.3-4.9c1-1.6,2.2-2.9,3.6-3.6c1.6-0.8,3-0.5,4,0c0.9,0.5,1.8,1.7,1.9,3.5
		c0.1,1.5-0.4,3.3-1.3,4.9c-1,1.6-2.2,2.9-3.6,3.6c-1.6,0.8-3,0.5-4,0C124.6,382,123.7,380.8,123.6,379z M129.1,371.9
		c-1.2,0.6-2.2,1.8-2.9,3c-0.7,1.2-1.3,2.7-1.2,4c0,1.3,0.6,2.1,1.2,2.4c0.6,0.3,1.6,0.5,2.7-0.1c1.2-0.6,2.2-1.8,2.9-3
		c0.7-1.2,1.3-2.7,1.2-4c0-1.3-0.7-2.1-1.2-2.4S130.2,371.3,129.1,371.9z"/>
	<path class="st5" d="M133.4,384.8c-0.1-1.5,0.4-3.3,1.3-4.9c1-1.6,2.2-2.9,3.6-3.6c1.6-0.8,3-0.5,4,0s1.8,1.7,1.9,3.5
		c0.1,1.5-0.4,3.3-1.3,4.9c-1,1.6-2.2,2.9-3.6,3.6c-1.6,0.8-3,0.5-4,0C134.4,387.7,133.5,386.6,133.4,384.8z M138.9,377.6
		c-1.2,0.6-2.2,1.8-2.9,3c-0.7,1.2-1.3,2.7-1.2,4c0,1.3,0.6,2.1,1.2,2.4s1.6,0.5,2.7-0.1c1.2-0.6,2.2-1.8,2.9-3
		c0.7-1.2,1.3-2.7,1.2-4c0-1.3-0.7-2.1-1.2-2.4S140,377,138.9,377.6z"/>
	<path class="st5" d="M155.5,383.3c-0.8,0.6-1.7,1.4-2.6,2.5c-1.2,1.3-2.1,2.6-3,4.1c-0.8,1.4-1.5,2.7-2.1,4.5
		c-0.4,1.3-0.7,2.5-1,3.7l-1.4-0.1c0.4-2.4,1-4.3,1.1-4.6c0.5-1.4,1.2-2.9,2-4.2c0.7-1.2,1.7-2.7,3.1-4.2c0.9-1,2.1-2,3-2.7
		L155.5,383.3z"/>
	<path class="st5" d="M158.9,397.3l1.4,0.8l-0.7,1.2l-1.4-0.8l-1.3,2.2l-1.3-0.7l1.3-2.2l-5.9-3.5l13-5.8L158.9,397.3z M157.6,396.5
		l3-5.1l-6.6,3L157.6,396.5z"/>
	<path class="st5" d="M168.7,403l1.4,0.8l-0.7,1.2l-1.4-0.8l-1.3,2.2l-1.3-0.7l1.3-2.2l-5.9-3.5l13-5.8L168.7,403z M167.4,402.3
		l3-5.1l-6.6,3L167.4,402.3z"/>
	<path class="st5" d="M171.9,407.3c-0.1-1.5,0.4-3.3,1.3-4.9c1-1.6,2.2-2.9,3.6-3.6c1.6-0.8,3-0.5,4,0c0.9,0.5,1.8,1.7,1.9,3.5
		c0.1,1.5-0.4,3.3-1.3,4.9c-1,1.6-2.2,2.9-3.6,3.6c-1.6,0.8-3,0.5-4,0C172.9,410.3,172,409.1,171.9,407.3z M177.4,400.2
		c-1.2,0.6-2.2,1.8-2.9,3c-0.7,1.2-1.3,2.7-1.2,4c0,1.3,0.6,2.1,1.2,2.4c0.6,0.3,1.6,0.5,2.7-0.1c1.2-0.6,2.2-1.8,2.9-3
		c0.7-1.2,1.3-2.7,1.2-4c0-1.3-0.7-2.1-1.2-2.4C179.5,399.7,178.5,399.6,177.4,400.2z"/>
	<path class="st5" d="M181.7,413.1c-0.1-1.5,0.4-3.3,1.3-4.9c1-1.6,2.2-2.9,3.6-3.6c1.6-0.8,3-0.5,4,0c0.9,0.5,1.8,1.7,1.9,3.5
		c0.1,1.5-0.4,3.3-1.3,4.9c-1,1.6-2.2,2.9-3.6,3.6c-1.6,0.8-3,0.5-4,0C182.7,416,181.8,414.9,181.7,413.1z M187.2,405.9
		c-1.2,0.6-2.2,1.8-2.9,3c-0.7,1.2-1.3,2.7-1.2,4c0,1.3,0.6,2.1,1.2,2.4s1.6,0.5,2.7-0.1c1.2-0.6,2.2-1.8,2.9-3
		c0.7-1.2,1.3-2.7,1.2-4c0-1.3-0.7-2.1-1.2-2.4S188.3,405.3,187.2,405.9z"/>
	<path class="st5" d="M198.3,407.7c-0.2,1.1-0.5,2.7-0.9,3.9c-0.6,2-1.5,3.6-2.1,4.8c-0.7,1.3-1.7,2.7-2.7,3.8
		c-0.2,0.2-1.5,1.7-3.4,3.2l-0.8-1.1c0.9-0.8,1.9-1.6,2.7-2.6c1.2-1.4,2.1-2.6,2.9-4c0.9-1.5,1.5-2.9,2.1-4.6
		c0.4-1.3,0.7-2.5,0.9-3.5L198.3,407.7z"/>
</g>
</svg>
