<?xml version="1.0" encoding="utf-8"?>
<!-- Generator: Adobe Illustrator 24.3.0, SVG Export Plug-In . SVG Version: 6.00 Build 0)  -->
<svg version="1.1" id="Слой_1" xmlns="http://www.w3.org/2000/svg" xmlns:xlink="http://www.w3.org/1999/xlink" x="0px" y="0px"
	 viewBox="0 0 69 61" style="enable-background:new 0 0 69 61;" xml:space="preserve">
<style type="text/css">
	.st0{fill:#FFFFFF;}
</style>
<path class="st0" d="M69,33.1L36.4,0.8c-1-1-2.7-1-3.8,0L0,33.1l3.8,3.8l7.3-7.2v28.7c0,1.5,1.2,2.7,2.7,2.7h14.9
	c1.5,0,2.7-1.2,2.7-2.7V40.6h6.3v17.8c0,1.5,1.2,2.7,2.7,2.7h14.9c1.5,0,2.7-1.2,2.7-2.7V29.7l7.3,7.2L69,33.1z M52.6,24.5v31.2H43
	V37.9c0-1.5-1.2-2.7-2.7-2.7H28.7c-1.5,0-2.7,1.2-2.7,2.7v17.8h-9.6V24.5v-0.1l18.1-18l18.1,17.9C52.6,24.4,52.6,24.4,52.6,24.5z"/>
</svg>
