<?xml version="1.0" encoding="utf-8"?>
<!-- Generator: Adobe Illustrator 24.3.0, SVG Export Plug-In . SVG Version: 6.00 Build 0)  -->
<svg version="1.1" id="Слой_1" xmlns="http://www.w3.org/2000/svg" xmlns:xlink="http://www.w3.org/1999/xlink" x="0px" y="0px"
	 viewBox="0 0 374 396" style="enable-background:new 0 0 374 396;" xml:space="preserve">
<style type="text/css">
	.st0{fill:#FFFFFF;}
	.st1{fill:#DADEE4;}
	.st2{fill:none;stroke:#4885FA;stroke-width:3.2387;stroke-miterlimit:10;}
	.st3{fill:#4885FA;}
</style>
<rect x="44.1" y="344.6" class="st0" width="225.2" height="45.6"/>
<g>
	<rect x="269.3" y="268.6" class="st1" width="8.6" height="40.4"/>
	<rect x="297.8" y="268.6" class="st1" width="8.6" height="40.4"/>
	<g>
		<line class="st2" x1="30.8" y1="203.6" x2="30.8" y2="232.4"/>
		<line class="st2" x1="29.1" y1="203.7" x2="210" y2="203.7"/>
		<line class="st2" x1="210.3" y1="203" x2="210.3" y2="256.7"/>
		<line class="st2" x1="79.5" y1="204" x2="79.5" y2="233.5"/>
	</g>
	<path class="st1" d="M79.8,322.9L79.8,322.9c-8,0-14.6-6.6-14.6-14.6v-75.2c0-8,6.6-14.6,14.6-14.6h0c8,0,14.6,6.6,14.6,14.6v75.2
		C94.4,316.4,87.8,322.9,79.8,322.9z"/>
	<path class="st1" d="M29.5,322.9L29.5,322.9c-8,0-14.6-6.6-14.6-14.6v-75.2c0-8,6.6-14.6,14.6-14.6h0c8,0,14.6,6.6,14.6,14.6v75.2
		C44.1,316.4,37.5,322.9,29.5,322.9z"/>
	<path class="st3" d="M248.1,297.7v-56.9h-110l-11.9,26.5l-27.4,21.5H0v107.3h0.4v0.4h310.9v-98.9H248.1z M87.8,381.1H60.6v-27.2
		h27.2V381.1z M129.3,381.1h-27.2v-27.2h27.2V381.1z M170.9,381.1h-27.2v-27.2h27.2V381.1z M212.5,381.1h-27.2v-27.2h27.2V381.1z
		 M254.1,381.1h-27.2v-27.2h27.2V381.1z"/>
	<polygon class="st3" points="168.9,292.8 123.2,292.8 135.5,99 156.7,99 	"/>
	<g>
		<circle class="st1" cx="316" cy="48" r="28.8"/>
		<circle class="st1" cx="254.1" cy="41.1" r="35.4"/>
		
			<ellipse transform="matrix(0.9239 -0.3827 0.3827 0.9239 1.1607 77.7114)" class="st1" cx="195.9" cy="35.9" rx="35.9" ry="35.9"/>
		<path class="st1" d="M151.2,90.4l-12.9-1.2c1.7-17.8,13.5-40.9,35.6-49.5l4.7,12.1C162.4,58,152.6,75.9,151.2,90.4z"/>
	</g>
	<g>
		<circle class="st1" cx="359.6" cy="240.4" r="14.4"/>
		<circle class="st1" cx="328.7" cy="236.9" r="17.7"/>
		
			<ellipse transform="matrix(0.9527 -0.3039 0.3039 0.9527 -57.0414 102.1778)" class="st1" cx="299.7" cy="234.3" rx="17.9" ry="17.9"/>
		<path class="st1" d="M277.4,261.5l-6.4-0.6c1-10.9,8.3-21,17.7-24.7l2.3,6C283,245.4,278.1,254.3,277.4,261.5z"/>
	</g>
</g>
</svg>
