<?xml version="1.0" encoding="utf-8"?>
<!-- Generator: Adobe Illustrator 24.3.0, SVG Export Plug-In . SVG Version: 6.00 Build 0)  -->
<svg version="1.1" id="Слой_1" xmlns="http://www.w3.org/2000/svg" xmlns:xlink="http://www.w3.org/1999/xlink" x="0px" y="0px"
	 viewBox="0 0 50 50" style="enable-background:new 0 0 50 50;" xml:space="preserve">
<style type="text/css">
	.st0{fill:#6B7279;}
</style>
<g>
	<g>
		<path id="SVGID_2_" class="st0" d="M16.8,24.9c0-4.7,3.7-8.4,8.4-8.4s8.4,3.7,8.4,8.4s-3.7,8.4-8.4,8.4S16.8,29.6,16.8,24.9
			 M12,24.9c0,7.1,5.8,12.8,12.8,12.8s12.8-5.8,12.8-12.8S31.9,12,24.9,12S12,17.8,12,24.9 M35.3,11.8c0,1.6,1.3,2.9,2.9,2.9
			c1.6,0,2.9-1.3,2.9-2.9s-1.3-2.9-2.9-2.9C36.6,8.9,35.3,9.9,35.3,11.8 M14.9,45.3c-2.4,0-3.7-0.5-4.7-0.8c-1-0.5-2.1-1-2.9-1.8
			S6,40.9,5.5,39.8c-0.3-0.8-0.8-2.1-0.8-4.7s-0.3-3.4-0.3-10.2s0-7.6,0.3-10.2c0-2.4,0.5-3.7,0.8-4.7c0.5-1,1-2.1,1.8-2.9
			s1.8-1.3,2.9-1.8c1,0,2.4-0.5,4.7-0.5c2.6,0,3.4-0.3,10.2-0.3c6.5,0,7.6,0,10.2,0.3c2.4,0,3.7,0.5,4.7,0.8c1,0.5,2.1,1,2.9,1.8
			c0.8,0.8,1.3,1.8,1.8,2.9c0.3,0.8,0.8,2.1,0.8,4.7s0.3,3.4,0.3,10.2c0,6.5,0,7.6-0.3,10.2c0,2.4-0.5,3.7-0.8,4.7
			c-0.5,1-1,2.1-1.8,2.9c-0.8,0.8-1.8,1.3-2.9,1.8c-0.8,0.3-2.1,0.8-4.7,0.8c-2.6,0-3.4,0.3-10.2,0.3C18.3,45.5,17.5,45.5,14.9,45.3
			 M14.7,0.3c-2.6,0-4.5,0.5-6,1S5.5,2.9,4.2,4.2S1.8,7.1,1.3,8.6s-1,3.4-1,6C0,17.3,0,18.3,0,24.9s0,7.6,0.3,10.2
			c0,2.6,0.5,4.5,1,6c0.5,1.6,1.6,3.1,2.9,4.5s2.9,2.4,4.5,2.9c1.6,0.8,3.4,1.3,6,1.3S18.1,50,24.9,50s7.6,0,10.2-0.3
			c2.6,0,4.5-0.5,6-1c1.6-0.5,3.1-1.6,4.5-2.9c1.3-1.3,2.4-2.9,2.9-4.5s1-3.4,1-6s0.3-3.4,0.3-10.2s0-7.6-0.3-10.2
			c0-2.6-0.5-4.5-1-6s-1.6-3.1-2.9-4.5S42.7,2,41.1,1.5s-3.4-1-6-1C32.7,0,31.7,0,24.9,0C18.3,0,17.3,0,14.7,0.3"/>
	</g>
</g>
</svg>
