<?xml version="1.0" encoding="utf-8"?>
<!-- Generator: Adobe Illustrator 24.3.0, SVG Export Plug-In . SVG Version: 6.00 Build 0)  -->
<svg version="1.1" id="Слой_1" xmlns="http://www.w3.org/2000/svg" xmlns:xlink="http://www.w3.org/1999/xlink" x="0px" y="0px"
	 viewBox="0 0 90.3 98" style="enable-background:new 0 0 90.3 98;" xml:space="preserve">
<style type="text/css">
	.st0{fill:#DADEE4;}
	.st1{fill:#4885FA;}
</style>
<ellipse class="st0" cx="45.2" cy="52.2" rx="45.2" ry="45.8"/>
<g>
	<path class="st1" d="M21.2,54.7v20.1h-3.9V54.7H21.2z"/>
	<path class="st1" d="M31.6,54.7c2.2,0,3.8,0.2,5.3,1.5c1.6,1.4,2,3.4,2,4.8c0,0.8-0.1,3-1.6,4.5c-1.1,1.1-2.8,1.8-5.1,1.8h-2.5v7.4
		h-3.9V54.7H31.6z M29.7,64h1.6c0.8,0,1.7,0,2.6-0.6c0.7-0.6,1.1-1.5,1.1-2.4c0-1.1-0.5-1.9-1.1-2.3C33,58.1,32,58.1,31,58.1h-1.3
		V64z"/>
	<path class="st1" d="M53.7,58.1H47l-0.7,3.2c0.4-0.1,0.8-0.1,1.3-0.1c2.1,0,4,0.8,5.2,2c1.6,1.6,1.8,3.6,1.8,4.8
		c0,2.2-0.7,3.9-2,5.2c-1.6,1.6-3.4,2-5.5,2c-1.1,0-2.8-0.1-4.3-0.8c-0.8-0.4-1.7-1-2.4-1.7l1.3-3.4c0.5,0.7,1.2,1.3,2.1,1.8
		c1,0.5,1.9,0.8,2.9,0.8c1.6,0,2.6-0.7,3.1-1.2c0.6-0.6,1-1.6,1-2.9c0-1.1-0.3-2-1.2-2.8c-1-0.9-2.2-1-3.1-1c-1.4,0-2.8,0.4-4.3,1.3
		l2.4-10.5h9.2V58.1z"/>
	<path class="st1" d="M70.6,67.9H73V71h-2.3v3.8H67V71h-9.8v-1.7l9.9-14.5h3.5V67.9z M67,67.9v-7.6l-5.2,7.6H67z"/>
</g>
<g>
	<g>
		<path class="st1" d="M44.6,22.2c-4.9,17.8,22.2,18.6,16.9,0L53,0L44.6,22.2z"/>
	</g>
</g>
</svg>
