<?xml version="1.0" encoding="utf-8"?>
<!-- Generator: Adobe Illustrator 24.3.0, SVG Export Plug-In . SVG Version: 6.00 Build 0)  -->
<svg version="1.1" id="Слой_1" xmlns="http://www.w3.org/2000/svg" xmlns:xlink="http://www.w3.org/1999/xlink" x="0px" y="0px"
	 viewBox="0 0 223 57" style="enable-background:new 0 0 223 57;" xml:space="preserve">
<style type="text/css">
	.st0{fill:#FFFFFF;}
</style>
<g>
	<polygon class="st0" points="46.4,55.6 46.4,1.6 78.6,1.6 78.6,14.6 61.4,14.6 61.4,22.2 76.9,22.2 76.9,34.2 61.4,34.2 61.4,42.8 
		78.6,42.8 78.6,55.6 	"/>
	<path class="st0" d="M22.5,1.5h-1.8L0,1.6v54h14.9l0-17.7l5.8,0l1.7,0c15.5,0,19.6-11,19.6-18.2C42.1,12.6,38,1.5,22.5,1.5z
		 M21.8,25.8c-0.3,0.1-0.7,0.1-1,0.2l-1.5,0l-4.3,0l0-12.4l4.2,0c0.6,0,1.3,0,1.6,0.1c5.1,0.4,5.6,3.8,5.6,6.2
		C26.5,21.2,26.4,24.8,21.8,25.8z"/>
	<g>
		<path class="st0" d="M173.7,53.1c-4.8,3.4-9.8,4.1-14.4,4.1c-15.2,0-27.5-10.4-27.4-28.6C131.9,9.8,145.4,0,159.2,0
			c4.8,0,10.1,1.2,14.6,4.3l0,15.7c-2-2.3-6.2-6.5-12.7-6.5c-8.7,0-13.7,7.1-13.7,15.5c0,9.5,6.2,14.7,13.7,14.6
			c5.5,0,9.9-2.9,12.7-5.8V53.1z"/>
		<path class="st0" d="M223,37c0-11-7.2-20.1-22.1-20.1c-14.9,0-22.2,9.1-22.2,20.1c0,11.4,7.4,20,22.1,20C215.8,57,223,48,223,37
			 M209.1,37c0,1.4-0.1,10.3-8.2,10.3c-8.1,0-8.2-8.9-8.2-10.3c0-6,2.7-10.3,8.2-10.4C206.3,26.7,209.1,31,209.1,37"/>
		<path class="st0" d="M117.7,36.4c8.5-3.2,11-11.1,11-16.7c0-6.8-3.8-17.3-17.9-18.1c-0.9-0.1-1.7,0-2,0H86.6v54h14.9l0-17.7h0
			l5.3,8.5l6,9.2H131L117.7,36.4z M108.4,25.8c-0.3,0.1-0.7,0.1-1,0.2l-1.5,0l-4.3,0l0-12.4l4.2,0c0.6,0,1.3,0,1.6,0.1
			c5.1,0.4,5.6,3.8,5.6,6.2C113.1,21.2,113,24.8,108.4,25.8z"/>
	</g>
</g>
</svg>
