<?xml version="1.0" encoding="utf-8"?>
<!-- Generator: Adobe Illustrator 25.0.0, SVG Export Plug-In . SVG Version: 6.00 Build 0)  -->
<svg version="1.1" id="Слой_1" xmlns="http://www.w3.org/2000/svg" xmlns:xlink="http://www.w3.org/1999/xlink" x="0px" y="0px"
	 viewBox="0 0 255 255" style="enable-background:new 0 0 255 255;" xml:space="preserve">
<style type="text/css">
	.st0{fill:#FFFFFF;}
	.st1{fill:none;}
</style>
<g>
	<g>
		<path class="st0" d="M127.5,15c-62.3,0-113,50.5-113,112.5s50.7,112.6,113,112.6s113-50.5,113-112.5S189.8,15,127.5,15z
			 M127.5,236.2c-60.1,0-109.1-48.7-109.1-108.6S67.3,18.9,127.5,18.9c60.1,0,109.1,48.7,109.1,108.6
			C236.6,187.4,187.6,236.2,127.5,236.2z"/>
	</g>
	<path id="SVGID_x5F_7_x5F__1_" class="st1" d="M201.8,124.7c0,39.9-32.4,72.3-72.3,72.3c-39.9,0-72.3-32.4-72.3-72.3
		c0-39.9,32.4-72.3,72.3-72.3C169.4,52.4,201.8,84.8,201.8,124.7z"/>
	<path id="SVGID_x5F_8_x5F__1_" class="st1" d="M214.5,140.3c0-47.7-38.7-86.5-86.5-86.5s-86.5,38.7-86.5,86.5s38.7,86.5,86.5,86.5
		S214.5,188,214.5,140.3z"/>
	<g>
		<path class="st0" d="M131.1,131c-15-6.5-29.9-13-44.8-19.5v-0.1c1.4,0.2,2.8,0.5,4.2,0.7c5,0.7,10,1.6,15.1,2.2
			c4.6,0.6,9.3,1,13.9,1.4c5.6,0.5,11.3,0.7,16.9,0.3c5.8-0.4,11.7-0.7,17.4-1.4c7.3-0.9,14.6-2.1,21.9-3.2c0.1,0,0.1,0,0.4,0
			C161,118,146.1,124.4,131.1,131c10.6,13.1,21.2,26.1,31.9,39.1l-0.1,0.1c-1.3-0.9-2.7-1.8-4-2.7c-9.1-6.2-18.2-12.4-27.3-18.6
			c-0.4-0.3-0.6-0.2-1,0c-10.3,7-20.7,14.1-31,21.1c-0.1,0-0.1,0.1-0.3,0.1C109.8,157,120.4,144,131.1,131z"/>
		<path class="st0" d="M127.1,102.8c-0.6,1.7-1.2,3.4-1.8,5c-0.2,0.6,0,1,0.5,1.4c0.4,0.3,0.9,0.6,1.2,1c0.2,0.2,0.3,0.5,0.3,0.7
			c0,0.1-0.4,0.3-0.6,0.3c-1.1,0.1-2.2,0.2-3.3,0.1c-0.5,0-1.1-0.4-1.6-0.6c-1.3-0.6-1.3-1.7-1.2-2.9c0-1.1,0-2.1,0-3.2
			c-1.4,0.4-2.6,0.8-3.9,1.2c-0.5,0.2-0.6,0.5-0.4,1c0.3,0.7,0.7,1.3,0.9,2c0.1,0.3,0.2,0.9,0,1c-0.4,0.2-0.9,0.4-1.3,0.2
			c-2.4-0.9-3.6-2.6-3.8-5.2c-0.1-1.4,0.1-2.3,1.3-3.1s1.6-2,1.6-3.5c0-2,0.1-4.1,0.2-6.1c0.1-0.9,0.5-1.7,1.1-2.4
			c2.5-3,5.4-5.2,9.3-6.2c1.3-0.3,2.6-0.4,3.9,0c1.3,0.4,2.6,0.3,3.9-0.3c1.9-0.9,3.9-1.5,6.1-1.5c0.4,0,0.9,0.2,1.3,0.4
			c0.5,0.3,0.8,0.8,1.2,1.2c1.3,1.2,3,1.6,4.7,1.7c0.2,0,0.4-0.2,0.6-0.4c0.4-0.5,1-0.7,1.7-0.5s0.8,0.7,0.9,1.3
			c0.1,0.7,0,1.3-0.4,1.8s-0.4,1-0.2,1.6c0.4,1,0.2,2-0.5,2.9c-0.5,0.7-0.8,1.4-0.7,2.3c0,0.6-0.1,1-0.7,1.3c-0.8,0.4-1,1-0.9,1.8
			c0.1,0.9,0.2,1.9,0.2,2.8c-0.1,1.6-0.4,3.1-0.5,4.7c-0.1,0.8-0.2,1.6-0.2,2.4c0,0.7,0.3,1.2,0.8,1.7c0.5,0.4,0.9,0.9,1.3,1.5
			c0.3,0.4,0.1,0.8-0.4,0.8c-0.9,0-1.8,0-2.7-0.2c-0.4-0.1-0.9-0.3-1.2-0.6c-0.6-0.5-1.2-1.2-1.8-1.8c-1.9-2-2.7-4.5-2.6-7.2
			c0-0.5,0.1-1,0-1.5c-0.1-0.4-0.3-0.9-0.6-1.1c-0.4-0.3-0.8,0-1.2,0.3c-0.9,0.8-1.9,1.6-2.8,2.4c-0.8,0.7-1.3,1.5-1.3,2.5
			c-0.1,1.5-0.1,3-0.2,4.6c0,0.7,0.4,1.1,1,1.3c0.4,0.2,0.9,0.3,0.7,0.8s-0.7,0.7-1.2,0.7c-0.6,0-1.3-0.1-1.9-0.1
			c-0.4,0-0.8,0-1.1,0c-0.6,0-0.8-0.3-0.8-0.9c0-0.3,0-0.7-0.2-0.9c-1.2-1.9-2.1-3.9-2.5-6.2c0-0.1-0.1-0.3-0.1-0.4
			C127.2,102.8,127.2,102.8,127.1,102.8z"/>
	</g>
	<path class="st0" d="M127.5,252.9c-69.1,0-125.4-56.3-125.4-125.4S58.4,2.1,127.5,2.1c69.1,0,125.4,56.3,125.4,125.4
		S196.6,252.9,127.5,252.9z M127.5,9.1C62.2,9.1,9.1,62.2,9.1,127.5c0,65.3,53.1,118.4,118.4,118.4s118.4-53.1,118.4-118.4
		C245.9,62.2,192.8,9.1,127.5,9.1z"/>
	<g>
		<path class="st0" d="M71.3,56c-2.8,0-4.5,1.1-5.5,2.1c-1.5,1.5-1.8,3-1.8,4.1s0.4,2.7,1.9,4.3c1.5,1.6,3.2,2,4.4,2
			c1.4,0,2.8-0.6,3.9-1.7c1.3-1.3,2.3-3.3,2.2-5.5l3.4,3.5c-0.3,1.2-1,3-3.1,5.1c-2.2,2.2-4.5,3.1-7.1,3.1c-1.9,0-4.5-0.7-6.9-3.2
			c-2.5-2.5-3.1-5.3-3.1-7.3c0-2.1,0.8-4.7,3.5-7.3c1-1,2.4-2,4.6-2.7L71.3,56z"/>
		<path class="st0" d="M86.4,39.5L94,52.3l2.5-1.5l4.8,8.1L97.8,61l-2.8-4.6l-11.4,6.8l2.8,4.6L83,69.8l-4.8-8.1
			c1.4-1,1.8-2.6,1.7-3.9c-0.1-1.3-0.7-2.7-1.9-4.7l-3.8-6.4L86.4,39.5z M84.7,45.2l-4.8,2.9l2.6,4.3c1.7,2.8,1.6,4.7,1.1,6.1l6.7-4
			L84.7,45.2z"/>
		<path class="st0" d="M115,45.3c-0.4,1.6-1.2,3.1-2.1,4.2c-1.2,1.4-3,2.4-5,2.9c-2.4,0.7-4.6,0.7-6.8-0.6c-2.2-1.2-3.9-3.5-4.7-6.2
			c-0.8-2.8-0.6-5.8,0.8-8.3c1.1-1.9,2.8-3.5,5.4-4.2c2.9-0.8,5.1-0.1,6.5,0.7c3,1.8,4.2,5.1,4.8,7l0.1,0.5L100.9,45
			c0.5,1.3,1.4,2.6,2.6,3.2c1.3,0.7,2.5,0.5,3.6,0.2c1.2-0.3,2-0.8,2.6-1.7c0.6-0.8,0.9-1.7,1.1-2.5L115,45.3z M108.7,39.1
			c-0.5-0.9-1.2-1.7-2-2.1c-0.7-0.4-1.8-0.6-3.2-0.2c-1.5,0.4-2.3,1.3-2.7,2c-0.4,0.7-0.7,1.7-0.6,2.7L108.7,39.1z"/>
		<path class="st0" d="M134.7,48.8l-4.4,0.1L129.9,34l-5.6,0.1l0.2,7.5c0,1.6-0.1,3.7-1.7,5.5c-1.7,1.9-4.1,2.3-6.2,2.1l-0.1-4
			c1.3,0.3,2.5-0.2,3.1-0.9c0.6-0.7,0.6-1.8,0.6-2.5L120,30.2l14.2-0.3L134.7,48.8z"/>
		<path class="st0" d="M156.3,33.9l4.3,1.1L156,53.3l-4.3-1.1l0.5-1.9c-2.4,1.7-4.8,1.5-6.1,1.1c-5.7-1.4-7.8-6.9-6.5-12
			c1.5-6,6.5-8.6,11.3-7.5c1.4,0.3,3.6,1.3,4.8,4L156.3,33.9z M144,40.7c-0.8,3.2,0.6,6.4,3.7,7.1c2.7,0.7,5.7-0.7,6.6-4.5
			c1-4-1-6.6-3.7-7.2C147.4,35.3,144.8,37.4,144,40.7z"/>
		<path class="st0" d="M168.7,38.3l3.8,2.2l-3.5,6.1l6.8,3.9l3.5-6.1l3.8,2.2l-9.3,16.5l-3.8-2.2l3.9-6.9l-6.8-3.9l-3.9,6.9
			l-3.8-2.2L168.7,38.3z"/>
		<path class="st0" d="M197.1,72c-4.1,4.1-10.2,4-14.3-0.1c-4-4-4.2-10.2-0.1-14.3c4.1-4.1,10.2-3.9,14.2,0.1
			C201,61.8,201.2,67.9,197.1,72z M193.9,68.9c3.1-3.1,2.3-6.3,0.3-8.3s-5.2-2.7-8.3,0.3c-2.6,2.6-2.7,5.8-0.3,8.2
			C188.1,71.6,191.3,71.4,193.9,68.9z"/>
	</g>
	<g>
		<path class="st0" d="M69.5,172.9c0.6,0.9,1.6,2.4,1.6,4.2c-0.1,0.9-0.4,2.4-2,3.5c-1.3,0.9-2.8,1.1-4.3,0.3
			c0.4,0.8,0.5,1.9,0.4,2.8c-0.1,1.1-0.7,2.3-2.1,3.3c-1.9,1.3-3.6,1.1-4.7,0.8c-1.9-0.6-3-2.2-3.5-2.9l-5.1-7.3l15.5-10.8
			L69.5,172.9z M57,181.9c0.4,0.6,1,1.3,1.8,1.6c0.5,0.2,1.2,0.3,1.9-0.2s0.9-1.1,0.9-1.7c0-0.8-0.5-1.6-0.9-2.1l-2-2.8l-3.6,2.5
			L57,181.9z M63,176.5c0.6,0.8,1.2,1.1,1.3,1.2c0.8,0.3,1.4,0.1,1.7-0.2c0.6-0.4,0.8-0.9,0.8-1.5c0-0.7-0.4-1.2-0.8-1.8l-1.2-1.8
			l-3.1,2.2L63,176.5z"/>
		<path class="st0" d="M97.4,184.1c1.6,0.9,3.7,2.4,4.8,4.7c1.3,2.7,0.9,5.8-0.5,8.2c-0.9,1.5-2.6,3.6-5.9,4.2
			c-3.1,0.5-5.6-0.6-7.5-1.7l-1.8-1.1l-6.2,10.5l-4-2.3l15.2-25.9L97.4,184.1z M88.7,194.8l1.8,1.1c3.4,2,6,1.3,7.4-1.1
			c0.8-1.4,1.8-4.3-2.7-7l-1.7-1L88.7,194.8z"/>
		<path class="st0" d="M121.4,213.7c-1.2,5.7-6.5,8.9-12,7.6s-9-6.3-7.7-12c1.3-5.7,6.5-8.8,12-7.6S122.6,208,121.4,213.7z
			 M117,212.8c0.9-4.2-1.5-6.5-4.2-7.1s-5.9,0.5-6.8,4.7c-0.8,3.6,0.8,6.4,4.2,7.1S116.2,216.3,117,212.8z"/>
		<path class="st0" d="M143.4,208.9c-2.2-1.8-4.2-2-5.5-1.9c-2.1,0.2-3.3,1.1-4,2s-1.4,2.4-1.3,4.5c0.2,2.2,1.1,3.6,2,4.4
			c1.1,0.9,2.5,1.3,4.1,1.2c1.8-0.1,3.8-1,5.2-2.8l0.4,4.9c-1,0.8-2.7,1.7-5.6,1.9c-3.1,0.2-5.5-0.5-7.4-2.2c-1.5-1.3-3-3.4-3.2-6.9
			c-0.3-3.5,1-6,2.3-7.5c1.4-1.6,3.6-3.1,7.4-3.4c1.4-0.1,3.2,0,5.3,1L143.4,208.9z"/>
		<path class="st0" d="M163.1,202.7c-2.6-1.2-4.6-0.9-5.8-0.4c-2,0.7-2.9,1.9-3.4,3c-0.5,1-0.8,2.7-0.1,4.7c0.7,2.1,2,3.2,3.1,3.7
			c1.2,0.6,2.8,0.7,4.3,0.1c1.7-0.6,3.5-2,4.3-4.1l1.6,4.6c-0.8,1-2.2,2.3-4.9,3.3c-3,1-5.4,0.9-7.7-0.2c-1.7-0.9-3.8-2.5-4.9-5.8
			c-1.2-3.4-0.6-6.1,0.3-7.9c0.9-1.9,2.7-3.9,6.3-5.2c1.4-0.5,3-0.8,5.3-0.4L163.1,202.7z"/>
		<path class="st0" d="M168.8,192.6l6.3,8.7l3.2-17.7l12.1,16.7l-3.6,2.6l-6.5-8.9l-3.2,17.7l-12-16.5L168.8,192.6z"/>
		<path class="st0" d="M186,177.2l8.7,6.3l-2.5-17.8l16.7,12.1l-2.6,3.6l-8.9-6.5l2.5,17.8l-16.5-12L186,177.2z"/>
	</g>
</g>
</svg>
