<?xml version="1.0" encoding="utf-8"?>
<!-- Generator: Adobe Illustrator 24.3.0, SVG Export Plug-In . SVG Version: 6.00 Build 0)  -->
<svg version="1.1" id="Слой_1" xmlns="http://www.w3.org/2000/svg" xmlns:xlink="http://www.w3.org/1999/xlink" x="0px" y="0px"
	 viewBox="0 0 135 100" style="enable-background:new 0 0 135 100;" xml:space="preserve">
<style type="text/css">
	.st0{fill:#4885FA;}
	.st1{fill:#DADEE4;}
</style>
<path class="st0" d="M134.8,100.1h-2.2c0-23.4-8.8-46.2-25.5-66.1l1.7-1.4C125.9,52.9,134.8,76.2,134.8,100.1z"/>
<g>
	<polygon class="st0" points="96.9,21.4 105.8,44.9 108.7,34.4 119.8,32 	"/>
</g>
<rect x="-11.8" y="42.9" transform="matrix(0.7071 -0.7071 0.7071 0.7071 -19.5908 50.5158)" class="st1" width="126" height="12"/>
<g>
	
		<rect x="15.8" y="71.3" transform="matrix(0.7071 -0.7071 0.7071 0.7071 -44.7882 40.2593)" class="st0" width="20.9" height="5.8"/>
	<rect x="43" y="43.8" transform="matrix(0.7071 -0.7071 0.7071 0.7071 -17.401 51.4485)" class="st0" width="20.9" height="5.8"/>
	
		<rect x="70.7" y="16.2" transform="matrix(0.7071 -0.7071 0.7071 0.7071 10.2701 62.9486)" class="st0" width="20.9" height="5.8"/>
</g>
<circle class="st0" cx="9" cy="90.5" r="8.9"/>
<g>
	<path class="st0" d="M49.7,82.7c0.4-4,3.4-6.2,7.1-6.2c4.2,0,6.8,2.4,6.8,6c0,1.2-0.2,3.3-2.5,4.6c0.9,0.4,3.3,1.6,3.3,5.2
		c0,4.5-3.5,7-7.8,7c-4.2,0-7.5-2.6-7.9-6.8h4.3c0.3,1.8,1.5,3.1,3.6,3.1c2.5,0,3.5-1.8,3.5-3.5c0-1.6-1-3.4-3.6-3.4H56v-3.1h0.6
		c2.1,0,3-1.5,3-3c0-1.7-1.1-2.9-2.9-2.9c-1.5,0-2.9,1-3,2.9H49.7z"/>
	<path class="st0" d="M68.3,89.5h8.5v3.7h-8.5V89.5z"/>
	<path class="st0" d="M92,78.1L86.7,85c0.7-0.3,1.4-0.5,2.4-0.5c1.6,0,3.5,0.6,4.8,1.9c1.1,1.1,2.1,3,2.1,5.3c0,1.8-0.5,3.7-2,5.3
		c-1.9,2-4,2.5-6.2,2.5c-2.3,0-4.4-0.4-6.2-2.2c-1.2-1.2-2.1-2.9-2.1-5.3c0-2.7,1.2-4.8,2.7-6.8l6.4-8.6L92,78.1z M90.5,94.9
		c0.5-0.5,1.2-1.4,1.2-2.9c0-1.3-0.5-2.3-1.2-3c-0.8-0.8-1.7-1.1-2.8-1.1c-1.3,0-2.1,0.4-2.8,1.2c-0.8,0.8-1.2,1.6-1.2,2.9
		c0,1.2,0.4,2.2,1.2,3c0.6,0.5,1.5,1.1,2.8,1.1C89,96,90,95.4,90.5,94.9z"/>
	<path class="st0" d="M117.2,89c-0.9-0.8-1.9-1.2-3.3-1.2c-2.7,0-4,1.9-4,4c0,2.3,1.7,4,4.1,4c0.9,0,2.1-0.3,3.1-1.3v3.9
		c-0.8,0.4-2,0.9-3.7,0.9c-2.2,0-4.2-0.9-5.5-2.1c-1.1-1-2.3-2.8-2.3-5.5c0-2.5,1-4.5,2.5-5.8c1.7-1.5,3.7-1.8,5.1-1.8
		c1.5,0,2.7,0.3,3.8,0.9V89z"/>
</g>
</svg>
