<?xml version="1.0" encoding="utf-8"?>
<!-- Generator: Adobe Illustrator 24.3.0, SVG Export Plug-In . SVG Version: 6.00 Build 0)  -->
<svg version="1.1" id="Слой_1" xmlns="http://www.w3.org/2000/svg" xmlns:xlink="http://www.w3.org/1999/xlink" x="0px" y="0px"
	 viewBox="0 0 136 98" style="enable-background:new 0 0 136 98;" xml:space="preserve">
<style type="text/css">
	.st0{fill:#DADEE4;}
	.st1{fill:#4885FA;}
</style>
<circle class="st0" cx="39.1" cy="45.4" r="39.1"/>
<path class="st1" d="M37.4,41.6H22.8L45.4-0.1L66.8,0c0,0-12.8,19.3-19.3,29c6.3,0,18.6,0,18.6,0L15.4,84.8L37.4,41.6L37.4,41.6z"/>
<g>
	<path class="st1" d="M82.7,90.1c0.4-0.5,3.1-3.5,3.9-4.8c0.6-0.9,1.3-2.3,1.3-3.7c0-2.1-1.5-3.5-3.4-3.5c-2.3,0-3.5,1.8-3.6,3.8
		h-4.6c0.2-4.7,3.5-7.6,8-7.6c5.3,0,8,3.6,8,7.3c0,3.5-2.4,6.1-4.1,8l-3.9,4.3h8.2v3.8H76L82.7,90.1z"/>
	<path class="st1" d="M110.8,89.8h2.7v3.6h-2.7v4.3h-4.2v-4.3H95.5v-2l11.3-16.5h4V89.8z M106.6,89.8v-8.7l-5.9,8.7H106.6z"/>
	<path class="st1" d="M119,74.9l6.1,15.3l6.1-15.3h4.8l-9.6,22.8h-2.7l-9.5-22.8H119z"/>
</g>
</svg>
