<?xml version="1.0" encoding="utf-8"?>
<!-- Generator: Adobe Illustrator 24.3.0, SVG Export Plug-In . SVG Version: 6.00 Build 0)  -->
<svg version="1.1" id="Слой_1" xmlns="http://www.w3.org/2000/svg" xmlns:xlink="http://www.w3.org/1999/xlink" x="0px" y="0px"
	 viewBox="0 0 73 73" style="enable-background:new 0 0 73 73;" xml:space="preserve">
<style type="text/css">
	.st0{fill:#4885FA;}
</style>
<path class="st0" d="M39,32.1H20.7c-3.8,0-6.9-3.1-6.9-6.9V6.9c0-3.8,3.1-6.9,6.9-6.9H39c3.8,0,6.9,3.1,6.9,6.9v18.2
	C45.9,29,42.8,32.1,39,32.1z M20.7,5.7c-0.7,0-1.2,0.5-1.2,1.2v18.2c0,0.7,0.5,1.2,1.2,1.2H39c0.7,0,1.2-0.5,1.2-1.2V6.9
	c0-0.7-0.5-1.2-1.2-1.2H20.7z"/>
<path class="st0" d="M36.1,59.1h-1.5c-3.8,0-6.9-3.1-6.9-6.9V33.9c0-3.8,3.1-6.9,6.9-6.9h18.2c3.8,0,6.9,3.1,6.9,6.9v4.2H54v-4.2
	c0-0.7-0.5-1.2-1.2-1.2H34.5c-0.7,0-1.2,0.5-1.2,1.2v18.2c0,0.7,0.5,1.2,1.2,1.2h1.5V59.1z"/>
<path class="st0" d="M25.2,59.1H6.9C3.1,59.1,0,56,0,52.1V33.9c0-3.8,3.1-6.9,6.9-6.9h18.2c3.8,0,6.9,3.1,6.9,6.9v18.2
	C32.1,56,29,59.1,25.2,59.1z M6.9,32.7c-0.7,0-1.2,0.5-1.2,1.2v18.2c0,0.7,0.5,1.2,1.2,1.2h18.2c0.7,0,1.2-0.5,1.2-1.2V33.9
	c0-0.7-0.5-1.2-1.2-1.2H6.9z"/>
<path class="st0" d="M53.9,73c-10.5,0-19.1-8.5-19.1-19.1s8.5-19.1,19.1-19.1S73,43.4,73,53.9S64.5,73,53.9,73z M53.9,40.6
	c-7.4,0-13.3,6-13.3,13.3c0,7.4,6,13.3,13.3,13.3c7.4,0,13.3-6,13.3-13.3C67.3,46.6,61.3,40.6,53.9,40.6z"/>
<g>
	<path class="st0" d="M46.9,51.8h5.3v-5.3h4.3v5.3h5.3v4h-5.3v5.3h-4.3v-5.3h-5.3V51.8z"/>
</g>
</svg>
