<?xml version="1.0" encoding="utf-8"?>
<!-- Generator: Adobe Illustrator 24.3.0, SVG Export Plug-In . SVG Version: 6.00 Build 0)  -->
<svg version="1.1" id="Слой_1" xmlns="http://www.w3.org/2000/svg" xmlns:xlink="http://www.w3.org/1999/xlink" x="0px" y="0px"
	 viewBox="0 0 351 353" style="enable-background:new 0 0 351 353;" xml:space="preserve">
<style type="text/css">
	.st0{fill:#DADEE4;}
	.st1{fill:#4885FA;}
	.st2{fill:#E2E5EC;}
	.st3{fill:#FFFFFF;}
	.st4{fill:#F44182;}
</style>
<g>
	<path class="st0" d="M336,124.2h-97.1c-5.6,0-10.1-4.5-10.1-10.1V15c0-5.6,4.5-10.1,10.1-10.1H336c5.6,0,10.1,4.5,10.1,10.1v99.1
		C346.1,119.7,341.6,124.2,336,124.2z"/>
	<path class="st1" d="M336,129h-97.1c-8.3,0-15-6.7-15-15V15c0-8.3,6.7-15,15-15H336c8.3,0,15,6.7,15,15v99.1
		C351,122.3,344.3,129,336,129z M238.9,9.7c-2.9,0-5.2,2.4-5.2,5.2v99.1c0,2.9,2.4,5.2,5.2,5.2H336c2.9,0,5.2-2.4,5.2-5.2V15
		c0-2.9-2.4-5.2-5.2-5.2H238.9z"/>
</g>
<path class="st2" d="M251.4,269.5L251.4,269.5v25.8c0,6.1-4.1,10.8-10.2,10.8h-22.4c-6.1,0-10.2-4.7-10.2-10.2v-25.7"/>
<path class="st2" d="M241.3,310.1h-22.4c-8,0-14.2-6.2-14.2-14.2v-25.7c0-2.2,1.8-4.1,4.1-4.1c2.2,0,4.1,1.8,4.1,4.1v25.7
	c0,3,2.1,6.1,6.1,6.1h22.4c4.2,0,6.1-3.4,6.1-6.8v-25.8c0-2.2,1.8-4.1,4.1-4.1s4.1,1.8,4.1,4.1v25.8
	C255.5,303.7,249.4,310.1,241.3,310.1z"/>
<g>
	<path class="st0" d="M20.3,295.9c0,5.4,4.1,10.2,10.2,10.2h23c6.1,0,10.2-4.7,10.2-10.8v-25.8l-43.4-8V295.9z"/>
	<path class="st0" d="M32.3,181.2l4.6-5l-8.1-7.5c-0.6-0.6-1.4-0.9-2.3-0.9H0v6.8h25.1L32.3,181.2z"/>
	<path class="st0" d="M258.9,202.5v-0.1h-0.2L227,172.6l-22.4-45.4c-0.7-1.4-2.7-2.7-4.7-2.7H67.8c-2,0-3.4,1.4-4.1,2.7l-23,45.4
		l-27.2,29.8h-0.6v0.7l0,0h0v48.8c0,9.5,7.4,17.6,17.6,17.6h33.2h177.6c9.5,0,17.6-7.5,17.6-17.6v-48.8h0.6L258.9,202.5z"/>
</g>
<path class="st3" d="M76.6,239.7H44c-1.1,0-2.1-0.4-2.9-1.2l-17.6-17.6c-1.6-1.6-1.6-4.2,0-5.7c1.6-1.6,4.2-1.6,5.7,0l16.4,16.4
	h30.8c2.2,0,4.1,1.8,4.1,4.1S78.8,239.7,76.6,239.7z"/>
<path class="st3" d="M227.7,239.7h-32.5c-2.2,0-4.1-1.8-4.1-4.1s1.8-4.1,4.1-4.1H226l15.7-16.4c1.6-1.6,4.1-1.7,5.7-0.1
	c1.6,1.6,1.7,4.1,0.1,5.7l-16.9,17.6C229.9,239.2,228.8,239.7,227.7,239.7z"/>
<g>
	<path class="st1" d="M296.9,311.5L296.9,311.5v25.8c0,6.1-4.1,10.8-10.2,10.8h-22.4c-6.1,0-10.2-4.7-10.2-10.2v-25.7"/>
	<path class="st1" d="M286.8,352.9h-22.4c-8.4,0-15-6.6-15-15v-25.7h9.7v25.7c0,2.6,1.8,5.3,5.3,5.3h22.4c3.9,0,5.3-3.2,5.3-6v-25.8
		h9.7v25.8C301.8,346.2,295.3,352.9,286.8,352.9z"/>
</g>
<path class="st1" d="M286.8,352.1h-22.4c-8,0-14.2-6.2-14.2-14.2v-25.7c0-2.2,1.8-4.1,4.1-4.1c2.2,0,4.1,1.8,4.1,4.1v25.7
	c0,3,2.1,6.1,6.1,6.1h22.4c4.2,0,6.1-3.4,6.1-6.8v-25.8c0-2.2,1.8-4.1,4.1-4.1s4.1,1.8,4.1,4.1v25.8
	C301,345.7,294.9,352.1,286.8,352.1z"/>
<g>
	<path class="st1" d="M109.2,311.5L109.2,311.5v25.8c0,6.1-4.1,10.8-10.2,10.8H76c-6.1,0-10.2-4.7-10.2-10.2v-25.7"/>
	<path class="st1" d="M99.1,352.9H76c-8.4,0-15-6.6-15-15v-25.7h9.7v25.7c0,2.6,1.8,5.3,5.3,5.3h23c3.9,0,5.3-3.2,5.3-6v-25.8h9.7
		v25.8C114.1,346.2,107.6,352.9,99.1,352.9z"/>
</g>
<path class="st1" d="M99.1,352.1H76c-8,0-14.2-6.2-14.2-14.2v-25.7c0-2.2,1.8-4.1,4.1-4.1c2.2,0,4.1,1.8,4.1,4.1v25.7
	c0,3,2.1,6.1,6.1,6.1h23c4.2,0,6.1-3.4,6.1-6.8v-25.8c0-2.2,1.8-4.1,4.1-4.1c2.2,0,4.1,1.8,4.1,4.1v25.8
	C113.3,345.7,107.2,352.1,99.1,352.1z"/>
<path class="st1" d="M285.1,223.7l-4.8-4.8l8.1-8.1c0.6-0.6,1.5-1,2.4-1h26.4v6.8h-25L285.1,223.7z"/>
<path class="st1" d="M77.8,223.2l-7.2-6.6H45.5v-6.8h26.4c0.8,0,1.7,0.3,2.3,0.9l8.1,7.5L77.8,223.2z"/>
<path class="st4" d="M304.4,244.4L304.4,244.4v49.5c0,10.2-8.1,17.6-17.6,17.6H76c-10.2,0-17.6-8.1-17.6-17.6v-49.5H304.4z"/>
<g>
	<path class="st1" d="M304.4,244.4L304.4,244.4v49.5c0,10.2-8.1,17.6-17.6,17.6H76c-10.2,0-17.6-8.1-17.6-17.6v-49.5H304.4z"/>
	<path class="st1" d="M286.8,316.4H76c-12.6,0-22.5-9.9-22.5-22.5v-49.5c0-2.7,2.2-4.9,4.9-4.9h246c2.7,0,4.9,2.2,4.9,4.9v49.5
		C309.3,306.5,299.4,316.4,286.8,316.4z M63.3,249.3v44.6c0,7.2,5.6,12.8,12.8,12.8h210.8c7.2,0,12.8-5.6,12.8-12.8v-44.6H63.3z"/>
</g>
<path class="st1" d="M272.6,214.6l-22.4-45.4c-0.7-1.4-2.7-2.7-4.7-2.7H113.3c-2,0-3.4,1.4-4.1,2.7l-23,45.4l-27.8,30.5H305
	L272.6,214.6z"/>
<path class="st1" d="M305,249.1H58.4c-1.6,0-3.1-0.9-3.7-2.4c-0.7-1.5-0.4-3.2,0.7-4.4l27.4-30.1l22.8-44.9c1.5-3.1,4.4-4.9,7.7-4.9
	h132.2c3.4,0,6.9,2.1,8.4,5l22,44.8l31.9,30c1.2,1.1,1.6,2.9,1,4.5C308.1,248.1,306.6,249.1,305,249.1z M67.6,241h227.1l-25-23.5
	c-0.4-0.3-0.6-0.7-0.9-1.2l-22.3-45.3c-0.2-0.2-0.8-0.5-1.1-0.5H113.3c-0.2,0-0.4,0.5-0.4,0.5l-23.1,45.4c-0.2,0.3-0.4,0.6-0.6,0.9
	L67.6,241z"/>
<path class="st3" d="M122.1,281.7H89.6c-1.1,0-2.1-0.4-2.9-1.2l-17.6-17.6c-1.6-1.6-1.6-4.2,0-5.7c1.6-1.6,4.2-1.6,5.7,0l16.4,16.4
	h30.8c2.2,0,4.1,1.8,4.1,4.1C126.2,279.8,124.3,281.7,122.1,281.7z"/>
<path class="st3" d="M273.2,281.7h-32.5c-2.2,0-4.1-1.8-4.1-4.1c0-2.2,1.8-4.1,4.1-4.1h30.8l15.7-16.4c1.6-1.6,4.1-1.7,5.7-0.1
	c1.6,1.6,1.7,4.1,0.1,5.7l-16.9,17.6C275.4,281.2,274.3,281.7,273.2,281.7z"/>
<g>
	<path class="st1" d="M284,76.5v25.8h-20.2V24.5H296c6.8,0,13.8,1.3,19.7,7c6.1,5.8,7.2,12.4,7.2,18.9c0,6.2-0.8,13.4-6.9,19.4
		c-6.1,6-13.3,6.8-19.4,6.8H284z M284,60.2h6.8c2.1,0,6.1-0.2,8.5-2.4c2.4-2.1,2.6-5.2,2.6-7.1c0-2.1-0.2-4.9-2.3-7
		c-2.3-2.4-6.1-2.8-8.6-2.8H284V60.2z"/>
</g>
</svg>
