<?xml version="1.0" encoding="utf-8"?>
<!-- Generator: Adobe Illustrator 25.3.1, SVG Export Plug-In . SVG Version: 6.00 Build 0)  -->
<svg version="1.1" id="Слой_1" xmlns="http://www.w3.org/2000/svg" xmlns:xlink="http://www.w3.org/1999/xlink" x="0px" y="0px"
	 viewBox="0 0 160.6 98" style="enable-background:new 0 0 160.6 98;" xml:space="preserve">
<style type="text/css">
	.st0{fill:#DADEE4;}
	.st1{fill:#4885FA;}
</style>
<path id="path34" class="st0" d="M39.2,6.3c21.5,0,39.1,17.5,39.1,39.2c0,21.5-17.5,39-39.1,39C17.5,84.5,0,67,0,45.5
	C0,23.8,17.5,6.3,39.2,6.3"/>
<path id="path38" class="st1" d="M31.4,63.5h-4.6L15.9,32.1h6.5l7,21.3L37,31.9h3.4l7.2,21.6l7.5-21.3h6.5L50,63.5h-4.6l-6.9-19.9"
	/>
<g>
	<path class="st1" d="M76.8,78.7h-3.3v-3.8h7.7v22.7h-4.4V78.7z"/>
	<path class="st1" d="M94.9,78.7H84.4v-3.8h17.5L88.2,98.3l-3.7-1.7L94.9,78.7z"/>
	<path class="st1" d="M115.5,78.7h-7.6l-0.8,3.6c0.4-0.1,1-0.1,1.5-0.1c2.4,0,4.6,1,5.9,2.3c1.8,1.8,2,4.1,2,5.5
		c0,2.5-0.8,4.4-2.3,5.9c-1.8,1.8-3.8,2.3-6.2,2.3c-1.2,0-3.2-0.1-4.9-1c-0.9-0.4-1.9-1.2-2.8-1.9l1.5-3.8c0.6,0.8,1.3,1.5,2.4,2
		c1.1,0.6,2.2,0.9,3.3,0.9c1.9,0,2.9-0.8,3.5-1.4c0.6-0.7,1.2-1.8,1.2-3.3c0-1.3-0.4-2.3-1.3-3.1c-1.2-1-2.5-1.2-3.5-1.2
		c-1.6,0-3.2,0.4-4.9,1.5l2.7-11.9h10.5V78.7z"/>
	<path class="st1" d="M135.4,97.7h-3.3l-7.9-22.7h4.7l5.1,15.5l5.6-15.7h2.5l5.2,15.7l5.5-15.5h4.7L149,97.7h-3.3l-5-14.4
		L135.4,97.7z"/>
</g>
</svg>
