<?xml version="1.0" encoding="utf-8"?>
<!-- Generator: Adobe Illustrator 24.3.0, SVG Export Plug-In . SVG Version: 6.00 Build 0)  -->
<svg version="1.1" id="Слой_1" xmlns="http://www.w3.org/2000/svg" xmlns:xlink="http://www.w3.org/1999/xlink" x="0px" y="0px"
	 viewBox="0 0 385 353" style="enable-background:new 0 0 385 353;" xml:space="preserve">
<style type="text/css">
	.st0{fill:#DADEE4;}
	.st1{fill:#4885FA;}
	.st2{fill:#FFFFFF;}
</style>
<g>
	<g>
		<rect x="0.1" y="55.8" class="st0" width="133.8" height="297.2"/>
		<rect x="33.2" y="30.8" class="st0" width="73" height="26.1"/>
	</g>
</g>
<g>
	<g>
		<rect x="251.3" y="55.8" class="st0" width="133.8" height="297.2"/>
		<rect x="284.5" y="30.8" class="st0" width="73" height="26.1"/>
	</g>
</g>
<g>
	<rect x="123.8" y="25.1" class="st1" width="133.8" height="327.9"/>
	<rect x="157" y="0" class="st1" width="73" height="26.1"/>
</g>
<g>
	<rect x="147.5" y="33.5" class="st2" width="17.8" height="28.2"/>
	<rect x="147.5" y="68.4" class="st2" width="17.8" height="28.2"/>
	<rect x="147.5" y="103.3" class="st2" width="17.8" height="28.2"/>
	<rect x="147.5" y="138.3" class="st2" width="17.8" height="28.2"/>
	<rect x="147.5" y="173.2" class="st2" width="17.8" height="28.2"/>
	<rect x="147.5" y="208.1" class="st2" width="17.8" height="28.2"/>
	<rect x="147.5" y="243" class="st2" width="17.8" height="28.2"/>
	<rect x="147.5" y="277.9" class="st2" width="17.8" height="28.2"/>
	<rect x="147.5" y="312.8" class="st2" width="17.8" height="28.2"/>
</g>
<g>
	<rect x="170.1" y="33.5" class="st2" width="17.8" height="28.2"/>
	<rect x="170.1" y="68.4" class="st2" width="17.8" height="28.2"/>
	<rect x="170.1" y="103.3" class="st2" width="17.8" height="28.2"/>
	<rect x="170.1" y="138.3" class="st2" width="17.8" height="28.2"/>
	<rect x="170.1" y="173.2" class="st2" width="17.8" height="28.2"/>
	<rect x="170.1" y="208.1" class="st2" width="17.8" height="28.2"/>
	<rect x="170.1" y="243" class="st2" width="17.8" height="28.2"/>
	<rect x="170.1" y="277.9" class="st2" width="17.8" height="28.2"/>
	<rect x="170.1" y="312.8" class="st2" width="17.8" height="28.2"/>
</g>
<g>
	<rect x="192.4" y="33.5" class="st2" width="17.8" height="28.2"/>
	<rect x="192.4" y="68.4" class="st2" width="17.8" height="28.2"/>
	<rect x="192.4" y="103.3" class="st2" width="17.8" height="28.2"/>
	<rect x="192.4" y="138.3" class="st2" width="17.8" height="28.2"/>
	<rect x="192.4" y="173.2" class="st2" width="17.8" height="28.2"/>
	<rect x="192.4" y="208.1" class="st2" width="17.8" height="28.2"/>
	<rect x="192.4" y="243" class="st2" width="17.8" height="28.2"/>
	<rect x="192.4" y="277.9" class="st2" width="17.8" height="28.2"/>
	<rect x="192.4" y="312.8" class="st2" width="17.8" height="28.2"/>
</g>
<g>
	<rect x="214.9" y="33.5" class="st2" width="17.8" height="28.2"/>
	<rect x="214.9" y="68.4" class="st2" width="17.8" height="28.2"/>
	<rect x="214.9" y="103.3" class="st2" width="17.8" height="28.2"/>
	<rect x="214.9" y="138.3" class="st2" width="17.8" height="28.2"/>
	<rect x="214.9" y="173.2" class="st2" width="17.8" height="28.2"/>
	<rect x="214.9" y="208.1" class="st2" width="17.8" height="28.2"/>
	<rect x="214.9" y="243" class="st2" width="17.8" height="28.2"/>
	<rect x="214.9" y="277.9" class="st2" width="17.8" height="28.2"/>
	<rect x="214.9" y="312.8" class="st2" width="17.8" height="28.2"/>
</g>
<g>
	<g>
		<rect x="298" y="78.6" class="st2" width="17.8" height="28.2"/>
		<rect x="298" y="113.5" class="st2" width="17.8" height="28.2"/>
		<rect x="298" y="148.4" class="st2" width="17.8" height="28.2"/>
		<rect x="298" y="183.3" class="st2" width="17.8" height="28.2"/>
		<rect x="298" y="218.2" class="st2" width="17.8" height="28.2"/>
		<rect x="298" y="253.1" class="st2" width="17.8" height="28.2"/>
		<rect x="298" y="288" class="st2" width="17.8" height="28.2"/>
	</g>
	<g>
		<rect x="320.6" y="78.6" class="st2" width="17.8" height="28.2"/>
		<rect x="320.6" y="113.5" class="st2" width="17.8" height="28.2"/>
		<rect x="320.6" y="148.4" class="st2" width="17.8" height="28.2"/>
		<rect x="320.6" y="183.3" class="st2" width="17.8" height="28.2"/>
		<rect x="320.6" y="218.2" class="st2" width="17.8" height="28.2"/>
		<rect x="320.6" y="253.1" class="st2" width="17.8" height="28.2"/>
		<rect x="320.6" y="288" class="st2" width="17.8" height="28.2"/>
	</g>
</g>
<g>
	<g>
		<rect x="46.8" y="78.6" class="st2" width="17.8" height="28.2"/>
		<rect x="46.8" y="113.5" class="st2" width="17.8" height="28.2"/>
		<rect x="46.8" y="148.4" class="st2" width="17.8" height="28.2"/>
		<rect x="46.8" y="183.3" class="st2" width="17.8" height="28.2"/>
		<rect x="46.8" y="218.2" class="st2" width="17.8" height="28.2"/>
		<rect x="46.8" y="253.1" class="st2" width="17.8" height="28.2"/>
		<rect x="46.8" y="288" class="st2" width="17.8" height="28.2"/>
	</g>
	<g>
		<rect x="69.3" y="78.6" class="st2" width="17.8" height="28.2"/>
		<rect x="69.3" y="113.5" class="st2" width="17.8" height="28.2"/>
		<rect x="69.3" y="148.4" class="st2" width="17.8" height="28.2"/>
		<rect x="69.3" y="183.3" class="st2" width="17.8" height="28.2"/>
		<rect x="69.3" y="218.2" class="st2" width="17.8" height="28.2"/>
		<rect x="69.3" y="253.1" class="st2" width="17.8" height="28.2"/>
		<rect x="69.3" y="288" class="st2" width="17.8" height="28.2"/>
	</g>
</g>
</svg>
