<?xml version="1.0" encoding="utf-8"?>
<!-- Generator: Adobe Illustrator 24.3.0, SVG Export Plug-In . SVG Version: 6.00 Build 0)  -->
<svg version="1.1" id="Слой_1" xmlns="http://www.w3.org/2000/svg" xmlns:xlink="http://www.w3.org/1999/xlink" x="0px" y="0px"
	 viewBox="0 0 61 61" style="enable-background:new 0 0 61 61;" xml:space="preserve">
<style type="text/css">
	.st0{fill:#4885FA;}
</style>
<path class="st0" d="M39.8,33.1H21.2c-3.9,0-7.1-3.2-7.1-7.1V7.4c0-3.9,3.2-7.1,7.1-7.1h18.6c3.9,0,7.1,3.2,7.1,7.1v18.6
	C46.9,30,43.7,33.1,39.8,33.1z M21.2,6.2c-0.7,0-1.2,0.6-1.2,1.2v18.6c0,0.7,0.6,1.2,1.2,1.2h18.6c0.7,0,1.2-0.6,1.2-1.2V7.4
	c0-0.7-0.6-1.2-1.2-1.2H21.2z"/>
<path class="st0" d="M53.9,60.7H35.3c-3.9,0-7.1-3.2-7.1-7.1V34.9c0-3.9,3.2-7.1,7.1-7.1h18.6c3.9,0,7.1,3.2,7.1,7.1v18.6
	C61,57.5,57.8,60.7,53.9,60.7z M35.3,33.7c-0.7,0-1.2,0.6-1.2,1.2v18.6c0,0.7,0.6,1.2,1.2,1.2h18.6c0.7,0,1.2-0.6,1.2-1.2V34.9
	c0-0.7-0.6-1.2-1.2-1.2H35.3z"/>
<path class="st0" d="M25.7,60.7H7.1c-3.9,0-7.1-3.2-7.1-7.1V34.9c0-3.9,3.2-7.1,7.1-7.1h18.6c3.9,0,7.1,3.2,7.1,7.1v18.6
	C32.8,57.5,29.6,60.7,25.7,60.7z M7.1,33.7c-0.7,0-1.2,0.6-1.2,1.2v18.6c0,0.7,0.6,1.2,1.2,1.2h18.6c0.7,0,1.2-0.6,1.2-1.2V34.9
	c0-0.7-0.6-1.2-1.2-1.2H7.1z"/>
</svg>
