<?xml version="1.0" encoding="utf-8"?>
<!-- Generator: Adobe Illustrator 24.3.0, SVG Export Plug-In . SVG Version: 6.00 Build 0)  -->
<svg version="1.1" id="Слой_1" xmlns="http://www.w3.org/2000/svg" xmlns:xlink="http://www.w3.org/1999/xlink" x="0px" y="0px"
	 viewBox="0 0 348 338" style="enable-background:new 0 0 348 338;" xml:space="preserve">
<style type="text/css">
	.st0{fill:#FFFFFF;}
	.st1{fill:#DADEE4;}
	.st2{fill:#4885FA;}
	.st3{fill:none;stroke:#4885FA;stroke-width:6.2056;stroke-miterlimit:10;}
</style>
<g>
	<rect x="141.6" y="35.9" class="st0" width="151.9" height="143.1"/>
	<rect x="17.2" y="199.8" class="st1" width="319.9" height="132.2"/>
	<rect x="-0.6" y="117.1" class="st2" width="27.9" height="218.8"/>
	<rect x="-0.6" y="117.1" class="st2" width="134.5" height="85.8"/>
	<rect x="323.1" y="63.1" class="st2" width="24.3" height="274.1"/>
	<line class="st3" x1="19.1" y1="270.7" x2="329.5" y2="270.7"/>
	<line class="st3" x1="100.6" y1="192.7" x2="100.6" y2="330.1"/>
	<line class="st3" x1="176.3" y1="186.9" x2="176.3" y2="332.4"/>
	<line class="st3" x1="253.1" y1="193.9" x2="253.1" y2="332.4"/>
	<rect x="-0.6" y="326.2" class="st2" width="348" height="12.8"/>
	<g>
		<path class="st2" d="M249.3,165.2c3.2,0,5.8-2.6,5.8-5.8c0-3.2-2.6-5.9-5.8-5.9c-3.2,0-5.9,2.6-5.9,5.8
			C243.5,162.6,246.1,165.2,249.3,165.2z"/>
		<path class="st2" d="M201.1,165.2c3.2,0,5.9-2.6,5.9-5.8c0-3.2-2.6-5.8-5.9-5.8c-3.2,0-5.8,2.6-5.8,5.8
			C195.2,162.5,197.9,165.2,201.1,165.2z"/>
		<path class="st2" d="M97.1,0.7v202.5h250.2V41.4L97.1,0.7z M272.4,113.6c-1.6,5.1-3.3,10.2-4.9,15.4c-0.7,2.3-2.2,3.4-4.7,3.4
			c-21.6,0-43.3,0-64.9,0c-0.7,0-0.9,0.2-1.1,0.8c-1.1,3.1-2.2,6.2-3.4,9.4c-0.1,0.2-0.2,0.5-0.3,0.8c0.4,0,0.7,0,0.9,0
			c22.8,0,45.6,0,68.4,0c0.5,0,1,0,1.5,0.1c1.7,0.4,3,2.1,2.8,3.8c-0.2,1.9-1.7,3.3-3.5,3.3c-1.3,0-2.7,0-4.2,0
			c2.7,3.2,3.8,6.8,3.1,10.9c-0.7,4-2.8,7.1-6.3,9.2c-5.3,3.2-12.2,2.1-16.4-2.4c-4.2-4.6-4.9-12-0.2-17.6c-9.5,0-18.9,0-28.5,0
			c2.8,3.4,3.9,7.3,2.9,11.6c-0.7,3.1-2.3,5.6-4.8,7.5c-5.2,3.9-12.3,3.5-17-1c-4.5-4.3-5.9-12.2-0.8-18.2c-1,0-2,0-3,0
			c-3,0-4.7-2.4-3.7-5.2c1.5-4.1,2.9-8.1,4.4-12.2c0.1-0.3,0.2-0.5,0.3-0.9c-0.7,0-1.4,0-2,0c-2.2,0-3.9-1.4-4.3-3.6
			c-1.1-5.7-2.1-11.5-3.2-17.2c-1.6-8.7-3.2-17.4-4.8-26.1c-1.5-8.4-3.1-16.8-4.6-25.3c-0.1-0.5-0.3-0.7-0.7-0.8
			c-5.5-2.2-11-4.4-16.6-6.5c-1.9-0.7-3.2-1.7-3.8-3.7c0-0.5,0-1,0-1.5c0-0.1,0.1-0.2,0.1-0.2c0.8-2.8,3.3-4.1,6-3
			c4.5,1.8,9,3.5,13.5,5.3c2.1,0.8,4.2,1.7,6.3,2.5c1.8,0.7,2.9,2,3.3,3.9c1.3,7.2,2.6,14.4,3.9,21.6c1.6,8.9,3.3,17.9,4.9,26.8
			c1.1,6.2,2.3,12.4,3.4,18.6c0,0.2,0.1,0.3,0.1,0.6c0.3,0,0.5,0,0.7,0c22.5,0,45.1,0,67.6,0c0.6,0,0.8-0.2,1-0.7
			c5-15.7,10-31.3,15-47c0.1-0.2,0.1-0.4,0.2-0.7c-0.2,0-0.3-0.1-0.5-0.1c-7.9-0.3-15.9-0.7-23.8-1c-9.2-0.4-18.3-0.8-27.5-1.2
			c-7-0.3-13.9-0.6-20.9-0.9c-2.1-0.1-4.2-0.2-6.3-0.3c-2.4-0.1-4.2-2.2-4.1-4.5c0.1-2.4,2-4.3,4.4-4.3c3.6,0.1,7.2,0.3,10.9,0.4
			c5,0.2,10,0.4,15,0.7c8.2,0.4,16.4,0.7,24.6,1.1c6,0.3,11.9,0.5,17.9,0.8c5.5,0.2,11,0.5,16.5,0.7c3.2,0.2,5,2.9,4,6.1
			C281.2,86.3,276.8,100,272.4,113.6z"/>
	</g>
</g>
</svg>
