<?xml version="1.0" encoding="utf-8"?>
<!-- Generator: Adobe Illustrator 25.3.1, SVG Export Plug-In . SVG Version: 6.00 Build 0)  -->
<svg version="1.1" id="Слой_1" xmlns="http://www.w3.org/2000/svg" xmlns:xlink="http://www.w3.org/1999/xlink" x="0px" y="0px"
	 viewBox="0 0 65 135" style="enable-background:new 0 0 65 135;" xml:space="preserve">
<style type="text/css">
	.st0{opacity:0.7;fill:#FFFFFF;}
	.st1{fill:#4F8AFA;}
</style>
<g>
	<rect class="st0" width="65" height="135"/>
	<path class="st1" d="M21.1,20c1.6,0.1,3.3,1.2,4.4,3.2c2.8,4.7,5.6,9.4,8.3,14.1c5.2,8.8,10.4,17.7,15.7,26.5
		c1.4,2.3,1.5,4.5,0.1,6.8c-8,13.6-16.1,27.2-24.1,40.9c-1.5,2.5-3.9,3.6-6.5,3.1c-2.5-0.5-4.3-2.5-4.6-5.2
		c-0.2-1.5,0.4-2.8,1.1-4.1C22,94.5,28.3,83.7,34.7,72.9c0.9-1.5,1.8-3.1,2.7-4.6c0.4-0.7,0.4-1.2,0-1.9
		C30.1,54,22.9,41.7,15.5,29.3c-1.1-1.8-1.5-3.7-0.7-5.7C15.8,21.4,17.9,20,21.1,20z"/>
</g>
</svg>
