<?xml version="1.0" encoding="utf-8"?>
<!-- Generator: Adobe Illustrator 24.3.0, SVG Export Plug-In . SVG Version: 6.00 Build 0)  -->
<svg version="1.1" id="Слой_1" xmlns="http://www.w3.org/2000/svg" xmlns:xlink="http://www.w3.org/1999/xlink" x="0px" y="0px"
	 viewBox="0 0 56 56" style="enable-background:new 0 0 56 56;" xml:space="preserve">
<style type="text/css">
	.st0{fill:#4885FA;}
</style>
<path class="st0" d="M6.1,6.1c0.2,0,0.3,0,0.5,0c11.3,0,22.7,0,34,0c0.2,0,0.5,0,0.7,0c1.6-0.3,2.7-1.6,2.6-3.2
	c-0.1-1.6-1.4-2.9-3-2.9c-0.6,0-1.1,0-1.7,0C27.1,0,15.1,0,3,0C1.3,0,0,1.4,0,3C0,19.7,0,36.3,0,53c0,1.6,1.4,3,3,3
	c16.7,0,33.4,0,50,0c0.1,0,0.3,0,0.4,0c1.6-0.3,2.6-1.5,2.6-3.1c0-8.4,0-16.8,0-25.1c0-0.3,0-0.5,0-0.8c-0.2-1.6-1.9-2.9-3.5-2.5
	c-1.6,0.3-2.6,1.5-2.6,3.1c0,7.4,0,14.7,0,22.1c0,0.1,0,0.2,0,0.4c-14.6,0-29.2,0-43.8,0C6.1,35.3,6.1,20.7,6.1,6.1z M25.4,33.8
	c-1-1-1.9-1.9-2.8-2.8c-2.3-2.3-4.5-4.5-6.8-6.8c-0.7-0.7-1.7-0.9-2.7-0.5c-1.5,0.7-1.9,2.6-0.6,3.8c3.7,3.7,7.4,7.4,11.1,11.1
	c1.1,1.1,2.5,1.1,3.5,0c0.6-0.6,1.1-1.1,1.7-1.7c5-5,10-10,14.9-14.9c1.9-1.9,3.8-3.8,5.8-5.8c0.7-0.7,0.9-1.5,0.6-2.4
	c-0.5-1.7-2.6-2.3-3.9-1c-2,2-3.9,3.9-5.9,5.9c-3.8,3.8-7.6,7.6-11.4,11.4C27.8,31.4,26.6,32.6,25.4,33.8z"/>
<path class="st0" d="M6.1,6.1c0,14.6,0,29.2,0,43.8c14.6,0,29.2,0,43.8,0c0-0.1,0-0.2,0-0.4c0-7.4,0-14.7,0-22.1
	c0-1.6,1-2.8,2.6-3.1c1.6-0.3,3.3,0.9,3.5,2.5c0,0.3,0,0.5,0,0.8c0,8.4,0,16.8,0,25.1c0,1.6-1,2.8-2.6,3.1c-0.1,0-0.3,0-0.4,0
	c-16.7,0-33.4,0-50,0c-1.6,0-3-1.4-3-3C0,36.3,0,19.7,0,3c0-1.7,1.3-3,3-3c12,0,24.1,0,36.1,0c0.6,0,1.1,0,1.7,0
	c1.6,0,2.9,1.2,3,2.9c0.1,1.6-1,2.9-2.6,3.2c-0.2,0-0.5,0-0.7,0c-11.3,0-22.7,0-34,0C6.4,6.1,6.3,6.1,6.1,6.1z"/>
<path class="st0" d="M25.4,33.8c1.2-1.2,2.4-2.5,3.7-3.7c3.8-3.8,7.6-7.6,11.4-11.4c2-2,3.9-3.9,5.9-5.9c1.3-1.3,3.4-0.8,3.9,1
	c0.3,0.9,0,1.7-0.6,2.4c-1.9,1.9-3.8,3.8-5.8,5.8c-5,5-10,10-14.9,14.9c-0.6,0.6-1.1,1.1-1.7,1.7c-1.1,1.1-2.5,1.1-3.5,0
	c-3.7-3.7-7.4-7.4-11.1-11.1c-1.2-1.2-0.9-3.2,0.6-3.8c0.9-0.4,1.9-0.2,2.7,0.5c2.3,2.3,4.5,4.5,6.8,6.8
	C23.5,31.9,24.4,32.8,25.4,33.8z"/>
</svg>
