<?xml version="1.0" encoding="utf-8"?>
<!-- Generator: Adobe Illustrator 24.3.0, SVG Export Plug-In . SVG Version: 6.00 Build 0)  -->
<svg version="1.1" id="Слой_1" xmlns="http://www.w3.org/2000/svg" xmlns:xlink="http://www.w3.org/1999/xlink" x="0px" y="0px"
	 viewBox="0 0 59 50" style="enable-background:new 0 0 59 50;" xml:space="preserve">
<style type="text/css">
	.st0{fill:#6B7279;}
</style>
<path class="st0" d="M58.2,1.4c-0.7-0.9-1.8-1.4-3-1.4c-0.7,0-1.4,0.1-2.1,0.4L3,19.5c-2.7,1-3,2.5-3,3.3s0.5,2.3,3.2,3.2l0,0
	l10.4,3l5.6,16c0.8,2.2,2.5,3.5,4.5,3.5c1.3,0,2.5-0.5,3.6-1.5l6.4-5.9l9.3,7.5l0,0l0.1,0.1l0,0c1,0.8,2.2,1.2,3.3,1.2l0,0
	c2.2,0,3.9-1.6,4.4-4.1L59,5.5C59.3,3.8,59,2.4,58.2,1.4z M17.1,28.5l20-10.2L24.6,31.5c-0.2,0.2-0.3,0.5-0.4,0.8L21.8,42L17.1,28.5
	z M24.9,44.5c-0.1,0.1-0.2,0.1-0.2,0.2l2.2-9L31,39L24.9,44.5z M55.6,4.8l-8.2,40.5c-0.1,0.4-0.3,1.3-1,1.3c-0.3,0-0.7-0.2-1.1-0.5
	l-10.5-8.5l0,0l-6.3-5.1l18-19.2c0.6-0.6,0.6-1.6,0.1-2.2c-0.5-0.7-1.4-0.9-2.2-0.5L14.8,25.8l-10.5-3l50-19.1
	c0.4-0.2,0.7-0.2,0.9-0.2c0.1,0,0.3,0,0.4,0.1C55.6,3.7,55.7,4.1,55.6,4.8z"/>
</svg>
