<?xml version="1.0" encoding="utf-8"?>
<!-- Generator: Adobe Illustrator 24.3.0, SVG Export Plug-In . SVG Version: 6.00 Build 0)  -->
<svg version="1.1" id="Слой_1" xmlns="http://www.w3.org/2000/svg" xmlns:xlink="http://www.w3.org/1999/xlink" x="0px" y="0px"
	 viewBox="0 0 96 98" style="enable-background:new 0 0 96 98;" xml:space="preserve">
<style type="text/css">
	.st0{fill:#DADEE4;}
	.st1{fill:#4885FA;}
</style>
<g>
	<path class="st0" d="M9.7,1C4.9,1,1,4.9,1,9.7v32.6v39.2c0,3.4,2,6.3,4.8,7.7v4c0,2.1,1.7,3.8,3.8,3.8c2.1,0,3.8-1.7,3.8-3.8v-4
		c2.9-1.4,4.8-4.3,4.8-7.7V42.8V9.7C18.3,4.9,14.4,1,9.7,1L9.7,1z"/>
	<path class="st0" d="M9.7,98c-2.7,0-4.8-2.2-4.8-4.8v-3.4C1.8,88,0,84.9,0,81.4V9.7C0,4.3,4.3,0,9.7,0h0c5.3,0,9.6,4.3,9.6,9.7
		v71.8c0,3.5-1.8,6.6-4.8,8.3v3.4C14.5,95.8,12.3,98,9.7,98z M9.7,2C5.4,2,2,5.4,2,9.7v71.8c0,2.9,1.6,5.5,4.3,6.8l0.6,0.3v4.6
		c0,1.6,1.3,2.8,2.8,2.8c1.6,0,2.8-1.3,2.8-2.8v-4.6l0.6-0.3c2.6-1.3,4.3-3.9,4.3-6.8V9.7C17.3,5.4,13.9,2,9.7,2L9.7,2z"/>
</g>
<g>
	<g>
		<path class="st1" d="M49.8,9h4.6V4.4H58V9h4.6v3.3H58v4.6h-3.6v-4.6h-4.6V9z"/>
		<path class="st1" d="M77.5,4.3H71l-0.7,3.1c0.4-0.1,0.8-0.1,1.3-0.1c2.1,0,4,0.8,5.1,2c1.6,1.6,1.7,3.6,1.7,4.7
			c0,2.1-0.6,3.8-2,5.2c-1.6,1.6-3.3,2-5.4,2c-1.1,0-2.7-0.1-4.2-0.8c-0.8-0.4-1.7-1-2.4-1.7l1.3-3.3c0.5,0.7,1.2,1.3,2,1.8
			c1,0.5,1.9,0.7,2.9,0.7c1.6,0,2.5-0.7,3-1.2c0.6-0.6,1-1.6,1-2.9c0-1.1-0.3-2-1.2-2.7c-1-0.9-2.1-1-3.1-1c-1.4,0-2.8,0.4-4.3,1.3
			l2.3-10.4h9.1V4.3z"/>
		<path class="st1" d="M94.3,4.3h-6.6L87,7.4c0.4-0.1,0.8-0.1,1.3-0.1c2.1,0,4,0.8,5.1,2c1.6,1.6,1.7,3.6,1.7,4.7
			c0,2.1-0.7,3.8-2,5.2c-1.6,1.6-3.3,2-5.4,2c-1.1,0-2.7-0.1-4.2-0.8c-0.8-0.4-1.7-1-2.4-1.7l1.3-3.3c0.5,0.7,1.2,1.3,2,1.8
			c1,0.5,1.9,0.7,2.9,0.7c1.6,0,2.5-0.7,3-1.2c0.6-0.6,1-1.6,1-2.9c0-1.1-0.3-2-1.2-2.7c-1-0.9-2.1-1-3.1-1c-1.4,0-2.8,0.4-4.3,1.3
			l2.3-10.4h9.1V4.3z"/>
	</g>
</g>
<g>
	<path class="st1" d="M52.9,78.5h7.7v3.3h-7.7V78.5z"/>
	<path class="st1" d="M76,80.2h2.3v3.1H76V87h-3.6v-3.7h-9.6v-1.7l9.8-14.3H76V80.2z M72.4,80.2v-7.5l-5.1,7.5H72.4z"/>
	<path class="st1" d="M79.6,77.1c0-6.8,3.7-10.3,7.6-10.3c3.9,0,7.6,3.5,7.6,10.3c0,6.8-3.7,10.3-7.6,10.3
		C83.3,87.5,79.6,83.9,79.6,77.1z M83.4,77.1c0,5.2,2.1,7,3.8,7s3.8-1.9,3.8-7c0-5.1-2.1-7-3.8-7C85.6,70.1,83.4,72,83.4,77.1z"/>
</g>
<path class="st1" d="M18.3,19.8H13c-0.7,0-1.2-0.5-1.2-1.2c0-0.7,0.5-1.2,1.2-1.2h5.3c0.7,0,1.2,0.5,1.2,1.2
	C19.5,19.3,19,19.8,18.3,19.8z"/>
<path class="st1" d="M18.3,37H13c-0.7,0-1.2-0.5-1.2-1.2s0.5-1.2,1.2-1.2h5.3c0.7,0,1.2,0.5,1.2,1.2S19,37,18.3,37z"/>
<path class="st1" d="M18.3,54.3H13c-0.7,0-1.2-0.5-1.2-1.2c0-0.7,0.5-1.2,1.2-1.2h5.3c0.7,0,1.2,0.5,1.2,1.2
	C19.5,53.7,19,54.3,18.3,54.3z"/>
<path class="st1" d="M18.3,71.5H13c-0.7,0-1.2-0.5-1.2-1.2s0.5-1.2,1.2-1.2h5.3c0.7,0,1.2,0.5,1.2,1.2S19,71.5,18.3,71.5z"/>
<path class="st1" d="M18.3,11.7H7.8c-0.7,0-1.2-0.5-1.2-1.2c0-0.7,0.5-1.2,1.2-1.2h10.6c0.7,0,1.2,0.5,1.2,1.2
	C19.5,11.1,19,11.7,18.3,11.7z"/>
<path class="st1" d="M18.3,80.1H7.8c-0.7,0-1.2-0.5-1.2-1.2c0-0.7,0.5-1.2,1.2-1.2h10.6c0.7,0,1.2,0.5,1.2,1.2
	C19.5,79.5,19,80.1,18.3,80.1z"/>
<path class="st1" d="M18.3,45.9H7.8c-0.7,0-1.2-0.5-1.2-1.2s0.5-1.2,1.2-1.2h10.6c0.7,0,1.2,0.5,1.2,1.2S19,45.9,18.3,45.9z"/>
<path class="st1" d="M18.3,63H7.8c-0.7,0-1.2-0.5-1.2-1.2s0.5-1.2,1.2-1.2h10.6c0.7,0,1.2,0.5,1.2,1.2S19,63,18.3,63z"/>
<path class="st1" d="M18.3,28.8H7.8c-0.7,0-1.2-0.5-1.2-1.2c0-0.7,0.5-1.2,1.2-1.2h10.6c0.7,0,1.2,0.5,1.2,1.2
	C19.5,28.2,19,28.8,18.3,28.8z"/>
<path class="st1" d="M35.6,11.7H22.9c-0.7,0-1.2-0.5-1.2-1.2c0-0.7,0.5-1.2,1.2-1.2h12.7c0.7,0,1.2,0.5,1.2,1.2
	C36.8,11.1,36.3,11.7,35.6,11.7z"/>
<path class="st1" d="M35.6,80.1H22.9c-0.7,0-1.2-0.5-1.2-1.2c0-0.7,0.5-1.2,1.2-1.2h12.7c0.7,0,1.2,0.5,1.2,1.2
	C36.8,79.5,36.3,80.1,35.6,80.1z"/>
</svg>
