<?xml version="1.0" encoding="utf-8"?>
<!-- Generator: Adobe Illustrator 24.2.1, SVG Export Plug-In . SVG Version: 6.00 Build 0)  -->
<svg version="1.1" id="Слой_1" xmlns="http://www.w3.org/2000/svg" xmlns:xlink="http://www.w3.org/1999/xlink" x="0px" y="0px"
	 viewBox="0 0 96 98" style="enable-background:new 0 0 96 98;" xml:space="preserve">
<style type="text/css">
	.st0{fill:#DADEE4;}
	.st1{fill:#FFFFFF;}
	.st2{fill:#4885FA;}
</style>
<g>
	<g>
		<path class="st0" d="M76,44.9L76,44.9v7.8c0,1.8-1.2,3.3-3.1,3.3l0,0h-6.8c-1.8,0-3.1-1.4-3.1-3.1v-7.8l0,0"/>
		<path class="st0" d="M72.9,56.4h-6.8c-2,0-3.6-1.6-3.6-3.6V45h1v7.8c0,1.2,0.9,2.6,2.6,2.6h6.8c1.5,0,2.6-1.1,2.6-2.8v-7.8h1v7.8
			C76.5,54.8,75,56.4,72.9,56.4z"/>
	</g>
	<g>
		<path class="st0" d="M19.3,44.9L19.3,44.9v7.8c0,1.8-1.2,3.3-3.1,3.3l0,0h-7c-1.8,0-3.1-1.4-3.1-3.1v-7.8l0,0"/>
		<path class="st0" d="M16.2,56.4h-7c-2,0-3.6-1.6-3.6-3.6V45h1v7.8c0,1.2,0.9,2.6,2.6,2.6h7c1.5,0,2.6-1.1,2.6-2.8v-7.8h1v7.8
			C19.8,54.8,18.3,56.4,16.2,56.4z"/>
	</g>
</g>
<g>
	<path class="st0" d="M9.8,18.2l-2.2-2H0v-2h8c0.3,0,0.5,0.1,0.7,0.3l2.5,2.3L9.8,18.2z"/>
</g>
<g>
	<path class="st0" d="M78.2,24.6L78.2,24.6v15c0,3.1-2.5,5.3-5.3,5.3l0,0H9.2c-3.1,0-5.3-2.5-5.3-5.3l0,0v-15
		C3.9,24.6,78.2,24.6,78.2,24.6z"/>
	<path class="st0" d="M72.9,45.9H9.2c-3.6,0-6.3-2.8-6.3-6.3v-15c0-0.6,0.5-1,1-1h74.3c0.6,0,1,0.5,1,1v15
		C79.3,43.1,76.5,45.9,72.9,45.9z M4.9,25.6v13.9c0,2.4,1.9,4.3,4.3,4.3h63.7c2.4,0,4.3-1.9,4.3-4.3V25.6H4.9z"/>
</g>
<g>
	<path class="st0" d="M68.6,15.6L61.9,1.8C61.7,1.4,61,1,60.4,1H20.5c-0.6,0-1,0.4-1.2,0.8l-7,13.7l-8.4,9.2h74.5L68.6,15.6z"/>
	<path class="st0" d="M78.4,25.8H3.9c-0.4,0-0.8-0.2-0.9-0.6c-0.2-0.4-0.1-0.8,0.2-1.1l8.3-9.1l6.9-13.6C18.8,0.5,19.6,0,20.5,0
		h39.9c1,0,2,0.6,2.4,1.4L69.5,15l9.7,9.1c0.3,0.3,0.4,0.7,0.3,1.1C79.2,25.5,78.8,25.8,78.4,25.8z M6.2,23.8h69.6l-7.9-7.4
		c-0.1-0.1-0.2-0.2-0.2-0.3L60.9,2.3c0-0.1-0.3-0.3-0.5-0.3H20.5c-0.2,0-0.3,0.1-0.3,0.3l-7,13.7c0,0.1-0.1,0.2-0.2,0.2L6.2,23.8z"
		/>
</g>
<g>
	<path class="st1" d="M23.1,35.8h-9.8c-0.3,0-0.6-0.1-0.9-0.4l-5.3-5.3c-0.5-0.5-0.5-1.3,0-1.7c0.5-0.5,1.3-0.5,1.7,0l5,5h9.3
		c0.7,0,1.2,0.6,1.2,1.2S23.8,35.8,23.1,35.8z"/>
	<path class="st1" d="M68.8,35.8H59c-0.7,0-1.2-0.6-1.2-1.2s0.6-1.2,1.2-1.2h9.3l4.8-4.9c0.5-0.5,1.3-0.5,1.7,0
		c0.5,0.5,0.5,1.2,0,1.7l-5.1,5.3C69.5,35.7,69.2,35.8,68.8,35.8z"/>
</g>
<g>
	<g>
		<path class="st2" d="M89.7,57.6L89.7,57.6v7.8c0,1.8-1.2,3.3-3.1,3.3l0,0h-6.8c-1.8,0-3.1-1.4-3.1-3.1v-7.8l0,0"/>
		<path class="st2" d="M86.7,69.8h-6.8c-2.4,0-4.3-1.9-4.3-4.3v-7.8c0-0.7,0.6-1.2,1.2-1.2c0.7,0,1.2,0.6,1.2,1.2v7.8
			c0,0.9,0.6,1.8,1.8,1.8h6.8c1.3,0,1.8-1,1.8-2.1v-7.8c0-0.7,0.6-1.2,1.2-1.2c0.7,0,1.2,0.6,1.2,1.2v7.8
			C91,67.9,89.1,69.8,86.7,69.8z"/>
	</g>
	<g>
		<path class="st2" d="M33,57.6L33,57.6v7.8c0,1.8-1.2,3.3-3.1,3.3l0,0h-7c-1.8,0-3.1-1.4-3.1-3.1v-7.8l0,0"/>
		<path class="st2" d="M29.9,69.8h-7c-2.4,0-4.3-1.9-4.3-4.3v-7.8c0-0.7,0.6-1.2,1.2-1.2s1.2,0.6,1.2,1.2v7.8c0,0.9,0.6,1.8,1.8,1.8
			h7c1.3,0,1.8-1,1.8-2.1v-7.8c0-0.7,0.6-1.2,1.2-1.2s1.2,0.6,1.2,1.2v7.8C34.2,67.9,32.4,69.8,29.9,69.8z"/>
	</g>
</g>
<g>
	<path class="st2" d="M86.2,31l-1.4-1.4l2.5-2.5c0.2-0.2,0.5-0.3,0.7-0.3h8v2h-7.6L86.2,31z"/>
	<path class="st2" d="M23.5,30.9l-2.2-2h-7.6v-2h8c0.3,0,0.5,0.1,0.7,0.3l2.5,2.3L23.5,30.9z"/>
</g>
<g>
	<path class="st2" d="M92,37.3L92,37.3v15c0,3.1-2.5,5.3-5.3,5.3l0,0H23c-3.1,0-5.3-2.5-5.3-5.3l0,0v-15H92z"/>
	<path class="st2" d="M86.7,58.8H23c-3.7,0-6.6-2.9-6.6-6.6v-15c0-0.7,0.6-1.2,1.2-1.2H92c0.7,0,1.2,0.6,1.2,1.2v15
		C93.2,55.9,90.3,58.8,86.7,58.8z M18.9,38.5v13.7c0,2.3,1.8,4.1,4.1,4.1h63.7c2.3,0,4.1-1.8,4.1-4.1V38.5H18.9z"/>
</g>
<g>
	<path class="st2" d="M82.4,28.3l-6.8-13.7c-0.2-0.4-0.8-0.8-1.4-0.8h-40c-0.6,0-1,0.4-1.2,0.8l-7,13.7l-8.4,9.2h74.5L82.4,28.3z"/>
	<path class="st2" d="M92.2,38.7H17.7c-0.5,0-0.9-0.3-1.1-0.7s-0.1-1,0.2-1.3l8.3-9.1L31.9,14c0.5-0.9,1.3-1.5,2.3-1.5h39.9
		c1,0,2.1,0.6,2.5,1.5l6.7,13.5l9.6,9.1c0.4,0.3,0.5,0.9,0.3,1.3C93.1,38.4,92.7,38.7,92.2,38.7z M20.4,36.3H89l-7.5-7.1
		c-0.1-0.1-0.2-0.2-0.3-0.4l-6.8-13.7c0,0-0.2-0.1-0.3-0.1H34.2l-7.1,13.9c0,0-0.1,0.1-0.1,0.2L20.4,36.3z"/>
</g>
<g>
	<path class="st1" d="M36.9,48.5h-9.8c-0.3,0-0.6-0.1-0.9-0.4l-5.3-5.3c-0.5-0.5-0.5-1.3,0-1.7c0.5-0.5,1.3-0.5,1.7,0l5,5h9.3
		c0.7,0,1.2,0.6,1.2,1.2S37.6,48.5,36.9,48.5z"/>
	<path class="st1" d="M82.6,48.5h-9.8c-0.7,0-1.2-0.6-1.2-1.2s0.6-1.2,1.2-1.2h9.3l4.8-4.9c0.5-0.5,1.3-0.5,1.7,0
		c0.5,0.5,0.5,1.2,0,1.7l-5.1,5.3C83.2,48.4,82.9,48.5,82.6,48.5z"/>
</g>
<g>
	<path class="st2" d="M33.1,87.4c0-7,3.8-10.6,7.8-10.6s7.8,3.6,7.8,10.6c0,6.9-3.8,10.6-7.8,10.6S33.1,94.4,33.1,87.4z M37.1,87.4
		c0,5.3,2.1,7.2,3.9,7.2s3.9-1.9,3.9-7.2c0-5.3-2.2-7.2-3.9-7.2S37.1,82.2,37.1,87.4z"/>
	<path class="st2" d="M50.3,87.4c0-7,3.8-10.6,7.8-10.6s7.8,3.6,7.8,10.6c0,6.9-3.8,10.6-7.8,10.6S50.3,94.4,50.3,87.4z M54.2,87.4
		c0,5.3,2.1,7.2,3.9,7.2c1.7,0,3.9-1.9,3.9-7.2c0-5.3-2.2-7.2-3.9-7.2C56.4,80.2,54.2,82.2,54.2,87.4z"/>
	<path class="st2" d="M67.5,87.4c0-7,3.8-10.6,7.8-10.6s7.8,3.6,7.8,10.6c0,6.9-3.8,10.6-7.8,10.6C71.2,98,67.5,94.4,67.5,87.4z
		 M71.4,87.4c0,5.3,2.1,7.2,3.9,7.2s3.9-1.9,3.9-7.2c0-5.3-2.2-7.2-3.9-7.2C73.6,80.2,71.4,82.2,71.4,87.4z"/>
</g>
<g>
	<path class="st2" d="M25.9,80.7h-9.4v-3.4h15.6L19.9,98.1l-3.3-1.5L25.9,80.7z"/>
</g>
</svg>
