<?xml version="1.0" encoding="utf-8"?>
<!-- Generator: Adobe Illustrator 24.3.0, SVG Export Plug-In . SVG Version: 6.00 Build 0)  -->
<svg version="1.1" id="Слой_1" xmlns="http://www.w3.org/2000/svg" xmlns:xlink="http://www.w3.org/1999/xlink" x="0px" y="0px"
	 viewBox="0 0 138 97" style="enable-background:new 0 0 138 97;" xml:space="preserve">
<style type="text/css">
	.st0{fill:#E9504E;}
	.st1{fill:#FFFFFF;}
</style>
<g>
	<path class="st0" d="M137.9,33.5c-0.1-1.6-0.2-3.3-0.2-4.9c-0.5-6.9-1.3-14.8-5.9-20.3c-3.9-4.7-9.9-5.8-15.7-6.4
		c-7.3-0.8-14.6-1.3-21.9-1.6C79.2-0.2,64.4,0.1,49.6,0.4c-7.6,0.2-15.2,0.3-22.9,0.9c-9.3,0.8-19,2.1-23.2,11.5
		c-3.9,8.3-3.4,19-3.4,28C0,48.8,0,56.9,0.3,65C0.7,75.4,1.3,89,12.6,93.6c6,2.4,13.3,3,19.8,3.4c6.8,0.5,13.7,0.4,20.5,0.5
		c14.4,0.2,28.7-0.3,43-0.5c9.9-0.2,20.2-0.3,29.7-3.6c8.3-2.8,10.4-11.7,11.5-19.5c1.1-7.7,0.8-15.5,0.8-23.2
		C138,45,138.1,39.3,137.9,33.5z"/>
	<path class="st1" d="M90.8,48.6c-12.1-7.1-23.9-14-35.7-21c0,14.1,0,28,0,42C66.9,62.6,78.8,55.6,90.8,48.6z"/>
</g>
</svg>
