<?xml version="1.0" encoding="utf-8"?>
<!-- Generator: Adobe Illustrator 25.0.0, SVG Export Plug-In . SVG Version: 6.00 Build 0)  -->
<svg version="1.1" id="Слой_1" xmlns="http://www.w3.org/2000/svg" xmlns:xlink="http://www.w3.org/1999/xlink" x="0px" y="0px"
	 viewBox="0 0 255 255" style="enable-background:new 0 0 255 255;" xml:space="preserve">
<style type="text/css">
	.st0{fill:#FFFFFF;}
</style>
<g>
	<g>
		<path class="st0" d="M127.9,14.4c-62.3,0-113,50.5-113,112.5s50.7,112.6,113,112.6s113-50.5,113-112.5S190.2,14.4,127.9,14.4z
			 M127.9,235.6c-60.1,0-109.1-48.7-109.1-108.6S67.7,18.3,127.9,18.3C188,18.3,237,67,237,126.9C237,186.8,188,235.6,127.9,235.6z"
			/>
		<path class="st0" d="M138.4,124.3c4,3.6,5.6,7.8,5.6,13.2c0,6.2-2.3,11.1-5.1,14c-2.3,2.4-6.8,5.8-14.7,5.8c-4.6,0-9.2-1-14-3.6
			c-4.3-2.3-7.4-5.2-10-8.6L94,161.2c3.5,3.3,7.8,6.3,11.7,8.2c7.4,3.6,15.6,4,20.8,4c10.3,0,18.8-2.2,26.4-9.8
			c6.6-6.6,9.8-14.7,9.8-25c0-5.8-0.9-15.2-8.5-23c-5.5-5.6-14.6-9.6-24.8-9.6c-2.5,0-4.6,0.3-6.5,0.6l3.5-15.1h32.1V75.2H114
			l-11.5,50.4c7.2-4.3,14-6.2,20.8-6.2C128,119.4,133.4,120,138.4,124.3z"/>
		<path class="st0" d="M98.2,207.7c0,2.5-0.8,3.4-0.9,3.6c-0.9,1-2.6,0.9-3.5,0.7v5.7c1,0.3,1.8,0.4,2.8,0.4c2,0,4.3-0.3,6.2-2.4
			c1.1-1.3,2.2-3.4,2.2-7.7v-6.9h5.9v16.6h7.3v-22.5h-20V207.7z"/>
		<path class="st0" d="M134.7,194.5c-2.5,0-5.9,0.5-8.6,3.2c-2.3,2.3-3.4,5.6-3.4,8.9c0,3.7,1.4,6.7,3.4,8.7c2.6,2.6,5.6,3.2,9,3.2
			c2.5,0,4.9-0.4,7.1-1.7c1.3-0.8,3.3-2.5,4.3-5.6l-6.8-0.7c-0.6,1.3-1.5,1.8-1.6,1.9c-0.8,0.5-1.9,0.7-2.9,0.7
			c-1.1,0-2.6-0.2-3.7-1.4c-0.9-1-1.4-2.6-1.4-3.8h16.8v-0.8c0-2.8-0.5-6.3-3.2-9.1C140.9,195,137.3,194.5,134.7,194.5z
			 M130.3,203.5c0.2-1,0.7-1.8,1.3-2.4c0.7-0.7,1.8-1.5,3.7-1.5c1.5,0,2.6,0.5,3.4,1.3c1.1,1,1.4,2.4,1.5,2.6L130.3,203.5
			L130.3,203.5z"/>
		<polygon class="st0" points="148.9,201.1 155,201.1 155,217.8 162.2,217.8 162.2,201.1 168.3,201.1 168.3,195.3 148.9,195.3 		"/>
		<polygon class="st0" points="52.6,70.7 48.9,68.1 41.3,78.7 58.6,91 61.4,87 47.9,77.3 		"/>
		<path class="st0" d="M64.7,53.2l1.6,1.9c-3.2-0.7-5.6,0.8-6.8,1.8c-4.3,3.7-5.1,10-0.6,15.2c3.8,4.4,10.2,6.1,15.2,1.8
			c1.1-1,3-3,3-6.3l1.4,1.7l3.8-3.2L68.4,49.9L64.7,53.2z M71.9,61.1c2.9,3.4,2.2,7-0.2,9c-2.7,2.3-6.5,1.5-8.9-1.3
			c-2.5-2.9-2.7-6.7,0.1-9C65.2,57.8,68.9,57.6,71.9,61.1z"/>
		<path class="st0" d="M89.1,59.7c3.1,1.6,6,0.8,7.1,0.3c4.6-2,7.8-8,4.9-14.5c-2.7-6.2-8.7-8.2-13.9-6c-1.9,0.8-3.8,2.4-4.7,5.1
			l-0.8-2.1l-4.5,2l13,30l4.5-2L89.1,59.7z M85.6,52.5c-1.8-4.2-0.1-7.4,2.8-8.7c3.3-1.4,6.6,0.4,8.1,3.9c1.5,3.4,0.6,7.1-2.7,8.5
			C91,57.5,87.4,56.6,85.6,52.5z"/>
		<path class="st0" d="M117.4,54.4c1.5-0.2,4.1-0.8,6-3.6l0.2,2.2l4.9-0.6l-2.4-21.1l-4.9,0.6l0.3,2.5c-2.3-2.4-5.1-2.5-6.6-2.3
			c-5.6,0.6-9.8,5.4-9.1,12.2C106.5,50.2,110.8,55.2,117.4,54.4z M116,36.5c3.1-0.3,6.2,1.5,6.7,6.1c0.5,4.4-2.1,7-5.2,7.3
			c-3.6,0.4-6.2-2.4-6.6-6C110.5,40.1,112.5,36.9,116,36.5z"/>
		<polygon class="st0" points="139,44.9 147.6,46.4 146.1,55.1 151,55.9 154.6,35 149.7,34.2 148.4,41.9 139.7,40.4 141,32.7 
			136.2,31.8 132.6,52.7 137.5,53.6 		"/>
		<polygon class="st0" points="162.8,60.9 169.4,45.6 175.1,48.1 176.9,44 161,37 159.2,41.2 164.9,43.7 158.2,58.9 		"/>
		<polygon class="st0" points="179.4,59.9 186.8,50.3 182.8,47.3 168.9,65.4 189,63.2 181.4,73 185.3,76 199.5,57.7 		"/>
		<path class="st0" d="M209.1,71.9c-1.3-1.7-2.8-3.3-5.2-3.8c-2.3-0.4-4,0.6-5.1,1.4c-1.2,0.9-2.2,2.2-2.4,4.1
			c-0.1,1.1,0.1,2.4,0.8,3.7L186.5,77l3.5,4.6l9.7-0.1l0.6,0.8l-6.2,4.7l3,4L214,78.2L209.1,71.9z M203.4,79.9l-1.8-2.3
			c-0.7-1-1.2-1.8-1.2-2.5c0-0.6,0.2-1.4,1-2.1c0.8-0.6,1.7-0.6,2.4-0.3s1.3,1,1.9,1.8l1.7,2.3L203.4,79.9z"/>
	</g>
	<path class="st0" d="M127.5,252.9c-69.1,0-125.4-56.3-125.4-125.4S58.4,2.1,127.5,2.1c69.1,0,125.4,56.3,125.4,125.4
		S196.6,252.9,127.5,252.9z M127.5,9.1C62.2,9.1,9.1,62.2,9.1,127.5c0,65.3,53.1,118.4,118.4,118.4s118.4-53.1,118.4-118.4
		C245.9,62.2,192.8,9.1,127.5,9.1z"/>
</g>
</svg>
