<svg xmlns="http://www.w3.org/2000/svg" xmlns:xlink="http://www.w3.org/1999/xlink" version="1.1" id="Слой_1" x="0px" y="0px" viewBox="0 0 72 65" style="enable-background:new 0 0 72 65;" xml:space="preserve">
<style type="text/css">
	.st0{fill:#DADEE4;}
	.st1{fill:#4885FA;}
</style>
<rect y="15.5" class="st0" width="72" height="49.5"/>

<g>
	<path class="st1" d="M11.6,12.1h-1.1c-0.5,0-0.9-0.4-0.9-0.9V0.9C9.6,0.4,10,0,10.5,0h1.1c0.5,0,0.9,0.4,0.9,0.9v10.2   C12.5,11.7,12.1,12.1,11.6,12.1z"/>
</g>
<path class="st1" d="M63.9,7.4v4.9c0,0.5-0.4,0.9-0.9,0.9h-4c-0.5,0-0.9-0.4-0.9-0.9V7.4H13.9v4.9c0,0.5-0.4,0.9-0.9,0.9H9.1  c-0.5,0-0.9-0.4-0.9-0.9V7.4H4.3C1.9,7.4,0,9.3,0,11.7v3.9h72v-3.9c0-2.4-1.9-4.3-4.3-4.3H63.9z"/>
<path class="st1" d="M61.6,12.1h-1.1c-0.5,0-0.9-0.4-0.9-0.9V0.9c0-0.5,0.4-0.9,0.9-0.9h1.1c0.5,0,0.9,0.4,0.9,0.9v10.2  C62.5,11.7,62.1,12.1,61.6,12.1z"/>
</svg>