<?xml version="1.0" encoding="utf-8"?>
<!-- Generator: Adobe Illustrator 24.3.0, SVG Export Plug-In . SVG Version: 6.00 Build 0)  -->
<svg version="1.1" id="Слой_1" xmlns="http://www.w3.org/2000/svg" xmlns:xlink="http://www.w3.org/1999/xlink" x="0px" y="0px"
	 viewBox="0 0 121 50" style="enable-background:new 0 0 121 50;" xml:space="preserve">
<style type="text/css">
	.st0{fill-rule:evenodd;clip-rule:evenodd;fill:#6B7279;}
</style>
<g>
	<path class="st0" d="M11.7,8L8.5,20.6L5.2,8H0c1,2.9,2.1,6,3.1,9.1c1.6,4.3,2.5,7.8,2.9,10.1v13h4.9v-13L16.7,8H11.7L11.7,8z
		 M18.1,18.3c-1,1.2-1.4,3.1-1.4,5.8v8.4c0,2.5,0.4,4.3,1.4,5.6c1.2,1.6,2.9,2.5,5.2,2.5c2.1,0,3.7-0.8,4.9-2.5
		c1-1.2,1.4-3.1,1.4-5.6v-8.4c0-2.7-0.4-4.5-1.4-5.8c-1.2-1.6-2.9-2.5-4.9-2.5C21,15.9,19.4,16.7,18.1,18.3L18.1,18.3z M21,33.4
		V23.3c0-2.3,0.8-3.5,2.3-3.5c1.2,0,2.1,1.2,2.1,3.5v10.1c0,2.1-0.8,3.3-2.1,3.3C21.8,36.7,21,35.4,21,33.4L21,33.4z M41.4,16.3
		v18.3c-1,1.2-1.9,2.1-2.9,2.1c-0.4,0-0.8-0.4-0.8-1c-0.2-0.2-0.2-0.8-0.2-1.6V16.3h-4.3v19c0,1.6,0.2,2.9,0.4,3.5
		c0.4,1.2,1.4,1.9,2.9,1.9c1.4,0,3.1-1,4.9-2.9v2.5h4.3v-24H41.4L41.4,16.3z"/>
	<path class="st0" d="M85.3,0c-8.9,0-17.9,0-26.8,1c-3.7,0.4-6.8,3.1-7.6,7c-1.2,5.4-1.2,11.3-1.2,16.9c0,5.4,0,11.3,1.2,16.7
		c0.8,3.9,3.9,6.6,7.6,7c8.9,1,17.7,1,26.8,1c8.9,0,17.7,0,26.6-1c3.9-0.4,7-3.1,7.8-7c1.2-5.4,1.2-11.3,1.2-16.7
		c0-5.6,0-11.5-1.2-16.9c-0.8-3.9-3.9-6.6-7.8-7c-8.2-1-16.7-1-25.1-1C86.4,0,85.7,0,85.3,0L85.3,0z M86.8,8.4v31.7h4.3v-2.3
		c1.4,1.9,2.9,2.7,4.3,2.7c1.9,0,2.9-1,3.5-2.7c0.2-1,0.4-2.7,0.4-4.7v-9.5c0-2.3-0.2-3.9-0.4-4.7c-0.6-1.9-1.6-2.7-3.5-2.7
		c-1.4,0-3.1,0.8-4.3,2.5V8.4H86.8L86.8,8.4z M91.1,35.7V21c0.6-0.6,1.4-1,2.1-1c1.2,0,1.9,1.2,1.9,3.3v10.1c0,2.3-0.6,3.3-1.9,3.3
		C92.6,36.7,91.7,36.3,91.1,35.7L91.1,35.7z M54.8,8.4v4.3H60v27.4h4.7V12.8h5.2V8.4H54.8z M104.1,18.5c-1,1.2-1.4,3.1-1.4,5.8v8.2
		c0,2.5,0.6,4.3,1.4,5.6c1.2,1.6,3.1,2.5,5.2,2.5c2.3,0,4.1-0.8,5.4-2.7c0.4-0.6,0.8-1.6,1-2.5c0-0.4,0-1.4,0-2.9v-0.6h-4.3
		c0,1.9-0.2,2.7-0.2,2.9c-0.2,1.2-0.8,1.9-1.9,1.9c-1.4,0-2.3-1-2.3-3.3v-4.3h8.7v-4.7c0-2.7-0.4-4.5-1.2-5.8
		c-1.2-1.4-3.1-2.3-5.2-2.3C107,16.3,105.3,17.1,104.1,18.5L104.1,18.5z M107,23.3c0-2.1,0.8-3.3,2.3-3.3c1.4,0,2.1,1.2,2.1,3.3v2.3
		H107V23.3L107,23.3z M78.7,16.5v18.1c-1,1.4-1.9,2.1-2.9,2.1c-0.4,0-0.8-0.4-0.8-1c-0.2-0.2-0.2-0.6-0.2-1.6V16.5h-4.3v18.8
		c0,1.6,0.2,2.9,0.4,3.5c0.4,1.2,1.4,1.9,2.9,1.9s3.1-1,4.9-2.9v2.5H83V16.5H78.7L78.7,16.5z"/>
</g>
</svg>
